<svg id="portrait-svg" data-name="Layer 1" xmlns="http://www.w3.org/2000/svg" viewBox="0 0 566.93788 688.25942">
  <defs>
    <style>
      .cls-1 {
        fill: none;
        stroke: #ffeed3;
        stroke-miterlimit: 10;
        stroke-width: 3px;
      }
    </style>
  </defs>
  <g>
    <path class="cls-1" d="M148.16432,442.587c-18.63788,11.75043-29.43329,11.26886-35.92432,8.38965-5.967-2.64679-6.44916-6.786-17.84534-16.08032-11.00574-8.97586-14.45492-9.1499-21.60876-15.04584-12.39978-10.21942-17.81327-22.69845-22.26224-32.95413-7.83081-18.05133-8.75305-33.3501-9.29031-43.871-1.169-22.89056-1.95346-38.25348,8.7742-50.06452,10.21853-11.25048,25.356-13.19354,29.13778-13.679a53.24483,53.24483,0,0,1,25.57123,3.0777c25.85779,10.17212,32.99652,39.38952,33.7096,42.51867"/>
    <path class="cls-1" d="M76.09666,298.408c14.4313,1.09973,26.95727,11.20885,34.63536,23.47746s11.296,26.57749,14.6941,40.64608,6.77956,28.4005,14.0729,40.90167c-4.6959,2.50288-10.46386-.39277-14.45069-3.91712s-7.69477-7.93761-12.89848-9.0499c-3.23535-.69155-6.61109.023-9.89955-.3399a29.972,29.972,0,0,1-8.85914-2.91049c-7.32485-3.29988-14.89742-6.90464-19.84414-13.23492a25.4922,25.4922,0,0,1,11.17825-39.58147"/>
    <path class="cls-1" d="M72.14958,322.73044c-4.32258,1.49107-7.4994,5.20192-9.91269,9.08573a50.42934,50.42934,0,0,0-6.03674,38.28093c2.00657,8.08842,6.28295,15.87892,13.11309,20.65363"/>
    <path class="cls-1" d="M100.63146,335.05751c5.055-4.25314,12.38317-3.90983,18.77848-5.56567a58.39566,58.39566,0,0,0,9.5928-3.73342c4.68958-2.15091,9.46061-4.35475,13.28031-7.823s6.60678-8.46592,6.15368-13.60531"/>
    <path class="cls-1" d="M182.8963,373.12655a76.91221,76.91221,0,0,1-10.865-26.01156c-2.1824-10.1968-2.26342-20.71047-2.33543-31.138-.17322-25.08047-.15356-51.10257,10.34551-73.88041,5.47013-11.8675,13.55909-22.30263,21.57655-32.62156l15.70389-20.21182c6.016-7.74287,12.07043-15.5278,19.31368-22.13681,7.69848-7.02439,16.5923-12.58637,25.43138-18.10719l42.41478-26.492c14.02855-8.76213,29.33691-17.85878,45.82758-16.58106,11.30216.87571,21.58751,6.56784,31.46449,12.13117l45.31585,25.52472"/>
    <path class="cls-1" d="M40.786,280.3356c-2.54638-18.47455,1.73159-38.31964,13.8311-52.511,6.27794-7.3633,14.33635-12.95087,22.2972-18.45138L109.806,186.64685l32.54252-22.48512c32.03331-22.13328,64.24865-44.37231,99.47366-60.96186,7.50567-3.53486,15.17758-6.82106,23.22847-8.82444a143.21985,143.21985,0,0,1,18.04874-2.94523c25.67616-2.99319,51.844-4.95707,77.24235-.146s50.24721,17.12258,65.5061,37.98859"/>
    <path class="cls-1" d="M433.7497,133.21773l1.37165-6.57385c-6.58564-4.06391-11.72419-10.034-17.32733-15.37164C394.56611,89.145,362.37061,77.61409,330.3083,76.53768,298.246,75.46126,266.356,84.30245,237.65662,98.63747c-37.70318,18.83234-70.16583,46.8244-107.43664,66.49866-26.84473,14.17059-41.52258,16.99658-63.95917,34.56207-29.55322,23.13708-40.62454,44.76385-43.60809,50.94012a129.29526,129.29526,0,0,0-12.38712,46.4516"/>
    <path class="cls-1" d="M438.52043,143.146a89.06555,89.06555,0,0,0-31.30988-43.43023c-12.42453-9.22146-27.11938-15.04631-42.18-18.59352a160.82175,160.82175,0,0,0-50.42678-3.69437c-5.79954.49445-11.567,1.3039-17.33109,2.113l-30.6184,4.2977c-19.97059,2.80313-40.28255,5.70478-58.5573,14.23214-14.28754,6.66685-26.79693,16.53133-40.09877,24.99548C122.909,151.75708,67.98637,164.83278,28.17977,200.49286c-6.52293,5.84346-12.59874,12.28874-17.19213,19.745a65.05627,65.05627,0,0,0-7.31441,50.458"/>
    <path class="cls-1" d="M442.59343,142.72763c6.00541-12.98833,2.75959-28.88445-5.338-40.68239S416.8798,81.96678,404.186,75.3616a114.59856,114.59856,0,0,0-26.13975-10.262c-10.12484-2.41118-20.61631-2.83688-31.024-2.75837-62.11468.4686-122.86331,18.48719-180.50233,41.64313-12.97983,5.21453-25.85049,10.696-38.72,16.177L86.35041,137.81436a116.21588,116.21588,0,0,0-15.31614,7.42719,58.77876,58.77876,0,0,0-26.18855,36.14372"/>
    <path class="cls-1" d="M404.18584,63.80692c-15.16075-9.30541-33.35325-12.70944-51.14184-12.63723s-35.3817,3.42495-52.854,6.76547L217.1914,73.80364l-37.21913,7.11591c-14.6304,2.79718-29.29857,5.60374-43.51436,10.05165A197.31646,197.31646,0,0,0,30.3136,171.975"/>
    <path class="cls-1" d="M436.76922,81.19675c-14.74876-13.8831-30.27554-28.11088-49.62865-34.0878-16.41907-5.0708-34.04238-3.70147-51.168-2.28255L199.25674,56.15389c-12.59961,1.04393-25.26137,2.09775-37.54038,5.10871-14.97517,3.67209-29.12022,10.19832-42.53481,17.80021a287.69935,287.69935,0,0,0-88.21581,78.01578"/>
    <path class="cls-1" d="M450.798,146.784c5.25531-.01351,9.995-3.61368,12.71689-8.10921s3.75921-9.79007,4.53246-14.9882c2.09368-14.07464,2.43623-29.14721-4.13608-41.768-3.57569-6.86639-8.99-12.58273-14.55146-17.96819-10.7849-10.4436-23.79119-20.55734-38.80372-20.47622"/>
    <path class="cls-1" d="M461.83867,149.308c7.68379-3.32266,13.57757-10.101,16.82831-17.81546s4.02621-16.30307,3.34008-24.64632a74.80118,74.80118,0,0,0-23.30262-48.07524"/>
    <path class="cls-1" d="M464.82865,157.54981c5.69619,2.14692,9.60645,7.31184,13.19759,12.22707l12.68482,17.36182c2.76218,3.78062,5.66421,8.0549,5.12921,12.7064"/>
    <path class="cls-1" d="M475.61858,153.52611c6.32008-1.89766,12.54356,2.813,17.47035,7.20291,5.78917,5.15831,11.86921,10.78225,13.75173,18.30413"/>
    <path class="cls-1" d="M481.79237,141.4071a57.08244,57.08244,0,0,1,35.06635,18.67022"/>
    <path class="cls-1" d="M485.42472,134.56406c4.26144-.84,7.18152-5.078,7.87777-9.36527s-.36059-8.64376-1.41017-12.85849"/>
    <path class="cls-1" d="M407.916,147.70021a123.93365,123.93365,0,0,1-69.43292-3.3811c-6.56763-2.28522-13.13257-5.16534-20.08612-5.22711-10.79016-.09583-20.34137,6.52447-29.0705,12.8678a16.35547,16.35547,0,0,0-3.44934,3.50769,36.10361,36.10361,0,0,0-4.64373,7.42889c-4.71607,10.52393,12.8399,81.50964,13.78961,90.674a9.0878,9.0878,0,0,1-1.23432,6.07983,9.23,9.23,0,0,1-4.9132,3.11744c-17.67371,5.87347-40.60218-2.15876-53.43824,11.33551-5.47088,5.75146-7.30169,13.9873-11.32177,20.83184-4.79273,8.16-12.559,14.1186-18.26178,21.6706-17.10065,22.64593-12.77521,54.58026-4.92109,81.849,2.9726,10.32055,6.38727,20.64431,12.05951,29.7644,8.734,14.043,22.226,24.34363,35.416,34.31925q19.30527,14.60064,38.61053,29.20126c20.93134,15.83044,30.68433,24.65961,39.57117,36.47742,25.14307,33.43554,17.43481,66.05078,27.83814,67.58319,12.45086,1.834,19.63671-45.45093,62.45379-88.09806a196.83054,196.83054,0,0,1,32.1734-25.89538"/>
    <path class="cls-1" d="M163.41352,373.14449a288.76363,288.76363,0,0,1,11.1,55.45c3.38,34.51,1.37,104.55,1.72,131.73.09,6.6.2,13.35,2.5,19.53,1.92,5.15,5.26,9.64,8.79,13.86a152.437,152.437,0,0,0,36,31.33c40.58,25.35,90.31,30.11,135.49,45.9,25.03,8.76,51.56,21.16,76.9,13.33,8.81-2.73,16.7-7.76,24.46-12.76,12.35-7.95,28.31-19.79,30.67-36.76.28-1.99-.07-9.97-.78-25.92-.37-8.37-.59-10.68,0-14.97,1.08-7.84,3.51-12.45,3.82-15.1"/>
    <path class="cls-1" d="M455.17351,485.99449a79.55032,79.55032,0,0,0,24.25,1.55c9.35-.89,13.05-3.02,18.07-.52,6.6,3.29,8.85,11.31,10.32,16.52,1.15,4.08,3.39,12.05-.21,15.2-2.2,1.93-5.04.69-11.66.28-6.27-.38-7.39.5-18.03,1.43-14.17,1.23-17.95-.27-23.64.82-16.1,3.09-29.52,14.75-38.41,28.52s-13.9,29.63-18.81,45.27c-1.34,4.26-2.69,8.76-1.69,13.12,1.54,6.75,8.09,10.95,14.09,14.43,9.47,5.48,19.67,11.15,30.59,10.47,10.26-.64,22.56-8.53,25.48-19.25,3.77-13.88-10.33-26.58-5.4-31.83,2.572-2.739,6.47156,1.7312,14.87-.76,7.41458-2.19934,10.42608-7.39456,16.77194-6.57708a12.20129,12.20129,0,0,1,4.90323,1.80642"/>
    <path class="cls-1" d="M365.86348,34.18066c-44.24516-16.54631-93.07915-13.62628-140.1772-9.99479-29.91133,2.3063-60.09856,4.86249-88.72058,13.85061S81.03361,63.09,63.83337,87.66967"/>
    <path class="cls-1" d="M455.10719,113.66041c-7.78523-25.90373-25.98564-47.27522-44.88478-66.62556-16.24961-16.63756-34.2155-32.91424-56.474-39.65363-9.70476-2.9384-19.88139-3.94226-29.99929-4.60913-24.72224-1.62943-49.52625-1.33649-74.30039-1.04281"/>
    <path class="cls-1" d="M302.11278,12.14557c-20.39238-.154-40.93432-.32285-60.92235-4.3665-8.486-1.71673-16.92954-4.13713-25.58739-4.14987-7.15327-.01052-14.19609,1.6269-21.14722,3.31546C146.34563,18.63152,96.37794,34.79446,63.40218,71.72375"/>
    <path class="cls-1" d="M331.38662,37.94381c-28.1518-4.77156-56.62771,3.78288-85.03514,6.66553-38.915,3.9489-79.36879-2.65106-116.53976,9.52627C87.35187,68.0456,56.2235,104.19889,31.27784,141.267a178.491,178.491,0,0,0-10.63968,17.39189,103.61615,103.61615,0,0,0-10.40657,31.96782"/>
    <path class="cls-1" d="M286.66431,114.34109c-44.35906,2.58018-83.70739,27.94833-120.73573,52.5102-37.78886,25.06636-75.5885,50.14013-112.39805,76.62366"/>
    <path class="cls-1" d="M31.40293,256.71987a231.1495,231.1495,0,0,0-8.2341,77.53131c.95062,14.38885,2.47071,34.6466,12.90323,57.80649,4.59934,10.21038,11.59616,19.04538,22.09808,33.62793,10.5402,14.63568,17.98948,23.18792,20.22449,25.72689A288.1129,288.1129,0,0,0,99.0398,472.57378"/>
    <path class="cls-1" d="M147.55592,320.83187c18.04315-.26557,33.31909.32428,44.90326,1.03222,45.001,2.75006,77.20459,9.90448,83.28283,11.28473,4.29651.97565,11.02875,2.58362,17.281,4.12787,15.82635,3.90906,28.79028,7.463,37.723,9.99408"/>
    <path class="cls-1" d="M157.87849,300.18666a684.22612,684.22612,0,0,1,88.81317,11.64722c9.57129,1.92828,21.24994,4.5235,39.99792,7.85529,23.01374,4.08984,42.0492,6.68945,54.91083,8.28027"/>
    <path class="cls-1" d="M426.58523,441.91468c-2.33486,4.19769-4.69857,8.46968-5.74341,13.158s-.60335,9.937,2.28724,13.7732c1.93045,2.562,4.75472,4.275,7.53091,5.88223q4.16927,2.41377,8.41047,4.70034"/>
    <path class="cls-1" d="M449.35434,472.02184c.77721-2.37094,3.19019-3.7395,5.40937-4.88,3.62288-1.86183,7.30982-3.72861,11.30156-4.53957s8.39295-.45039,11.74158,1.86874"/>
    <path class="cls-1" d="M428.32953,559.52259l16.94374.68847a37.86032,37.86032,0,0,1,8.86132,1.06376c1.96121.55825,3.82046,1.43027,5.77242,2.02006a34.93675,34.93675,0,0,0,6.93646,1.19141,103.59424,103.59424,0,0,0,19.17819-.02551,15.11926,15.11926,0,0,0,5.98924-1.47554,9.7005,9.7005,0,0,0,4.62672-8.4779,14.55308,14.55308,0,0,0-3.72808-9.19748"/>
    <path class="cls-1" d="M476.4865,375.77487c6.32909,18.69453,17.90971,35.08377,29.353,51.1646,4.76079,6.69014,9.74882,14.14518,9.06673,22.328-.54525,6.54125-4.75376,12.31136-9.907,16.377-4.27522,3.37288-9.96107,7.4016-8.64892,12.68668"/>
    <path class="cls-1" d="M345.25972,351.81014l2.49294,59.35357a13.32536,13.32536,0,0,0,.648,4.26744,11.1502,11.1502,0,0,0,4.00805,4.6438c8.39,6.254,19.15843,8.17794,29.53083,9.56286,5.16729.68993,10.43028,1.28985,15.57272.43418,5.06424-.84265,9.78122-3.05818,14.42374-5.24989,6.51717-3.07672,13.25744-6.32365,17.83031-11.894a48.9214,48.9214,0,0,0,4.65921-7.28019c6.27683-11.21383,12.71325-22.96953,13.22922-35.81019"/>
    <path class="cls-1" d="M332.58946,350.30075c3.73505,17.438,1.29614,35.63555,3.757,53.29851.64648,4.64013,1.81239,9.56372,5.2921,12.70066"/>
    <path class="cls-1" d="M347.3372,325.146a150.69807,150.69807,0,0,1,45.92735-2.56812"/>
    <path class="cls-1" d="M353.6294,340.21578c9.08857-7.17768,20.65357-10.66718,32.18232-11.767,11.52874-1.09973,23.14215.038,34.65905,1.25586a59.36546,59.36546,0,0,1,10.21735,2.08606,78.873,78.873,0,0,1,14.67425,6.07336c3.01557,1.48108,13.86005,6.80738,21.67743,8.25806,10.97889,2.03735,13.55725-4.02051,37.16132-11.3548a117.37994,117.37994,0,0,1,35.61285-5.67743c13.96717.03913,18.48059,2.78565,21.01068,5.63642,4.09107,4.60968,4.79517,11.03869,4.57819,15.88116a108.02861,108.02861,0,0,1-2.68713,17.371c-2.91779,13.83881-5.98377,28.04233-13.75251,39.86066-2.736,4.16211-13.03381,15.26727-35.449,19.014"/>
    <path class="cls-1" d="M444.48342,408.16567c7.3592-10.56945,7.42464-25.06516,15.26952-35.27933a8.808,8.808,0,0,1,2.37592-2.30225c2.034-1.20983,4.58953-.90657,6.93127-.56451"/>
    <path class="cls-1" d="M355.83775,362.358A41.58956,41.58956,0,0,0,383.715,374.25848a14.50882,14.50882,0,0,0,7.17733-1.26075c2.01857-1.06365,3.5377-2.86552,5.39177-4.19533,2.85094-2.04479,6.5108-2.99127,8.84615-5.60951,2.02528-2.27061,3.60734-5.9867,6.62572-5.60355"/>
    <path class="cls-1" d="M357.7846,350.13108c6.33654-3.07523,13.34948-4.44638,20.3052-5.554,5.9028-.93993,11.96831-1.70851,17.82263-.50291,7.51935,1.54849,13.97536,6.18851,20.17752,10.71307"/>
    <path class="cls-1" d="M375.64628,366.57893c-2.01391,1.00366-4.55278-.474-5.5068-2.51186s-.763-4.40285-.552-6.64308a14.42037,14.42037,0,0,1,3.553-7.65444"/>
    <path class="cls-1" d="M382.58722,367.65289a15.60409,15.60409,0,0,0,6.83217-19.37826"/>
    <path class="cls-1" d="M485.203,368.44908a17.94121,17.94121,0,0,0,20.05453-9.41228"/>
    <path class="cls-1" d="M483.96407,361.58174a21.73225,21.73225,0,0,1,17.60742-16.31116"/>
    <path class="cls-1" d="M519.16824,306.57843c-5.814-37.22872-11.863-75.19629-29.132-108.686"/>
    <path class="cls-1" d="M312.66287,312.53939l38.03517-9.63967c11.38911-2.88646,23.13015-5.79527,34.76453-4.15671,7.19491,1.01332,14.02334,3.73,20.77109,6.4247l21.08315,8.41956c8.6738,3.46389,18.24815,6.97023,27.11645,4.04a15.04247,15.04247,0,0,1-9.30678,12.724"/>
    <path class="cls-1" d="M473.59152,335.75942c2.24482-6.57754,8.31367-10.96586,14.05781-14.87841,4.697-3.19931,9.48049-6.413,14.85967-8.2466s11.51311-2.15505,16.60241.37413c4.94247,2.45621,8.64752,7.41458,14.05435,8.52239"/>
    <path class="cls-1" d="M476.84992,336.845a56.88093,56.88093,0,0,1,17.25425-8.962c8.4181-2.66758,17.31943-3.33312,26.12629-3.981"/>
    <path class="cls-1" d="M113.43911,526.27349l-5.57558-35.42a92.04377,92.04377,0,0,0-2.19627-11.01315c-2.38995-8.36575-7.19643-16.87487-4.74784-25.22364"/>
    <path class="cls-1" d="M159.64513,338.40044c-4.47335,6.0704-11.707,9.636-19.08929,11.17275s-15.00644,1.25528-22.54152.96686"/>
    <path class="cls-1" d="M161.037,349.77618c-3.76647,4.3938-7.75946,8.95182-13.15725,11.03883-3.71647,1.43694-7.79849,1.57185-11.782,1.48116a114.68366,114.68366,0,0,1-13.7293-1.14048c-3.715-.53488-7.85259-1.16126-10.92968.98789"/>
    <path class="cls-1" d="M167.714,366.46369a66.534,66.534,0,0,1-16.58992.17659"/>
    <path class="cls-1" d="M497.62043,525.348c1.22589,4.38684,2.18854,9.93347-.39429,11.97671-1.93737,1.53266-5.08978.47712-6.1939.14209-8.27088-2.50946-18.0777.07578-37.11994,5.09568A146.35014,146.35014,0,0,0,419.634,556.48641"/>
    <path class="cls-1" d="M507.251,418.05724c3.49816-12.45676,2.81958-25.66547,1.7846-38.56265a57.89541,57.89541,0,0,1-.17627-11.70282,28.14462,28.14462,0,0,1,9.25525-17.51093,13.56876,13.56876,0,0,0,2.75836-3.37024,14.81278,14.81278,0,0,0,1.90882-6.20776"/>
  </g>
</svg>
