<svg id="Layer_1" data-name="Layer 1" xmlns="http://www.w3.org/2000/svg" viewBox="0 0 1920 1080">
  <defs>
    <style>
      .cls-1 {
        fill: #1c0028;
      }

      .cls-2 {
        fill: #3c004e;
        opacity: 0.85;
      }
    </style>
  </defs>
  <g id="Reflection">
    <g id="Reflection-mountains">
      <g>
        <path class="cls-1" d="M1035.17157,639.50936c-3.32669-1.28444-2.21563-2.56888-4.99-3.86614-2.768-1.29729-2.768-.6294-10.526-1.91383a49.3661,49.3661,0,0,0-5.035-.63579v-8.35528H1012.026v8.37456h-.00643c-3.2432.25044-2.96062,1.18166-7.058,1.90094-3.69919.64865-4.58545,0-7.70663.64222a19.76466,19.76466,0,0,0-6.4029,2.56888c-2.24776.32111-3.76343,1.19452-3.89827,2.30558a2.23836,2.23836,0,0,0,.57154,1.54773c1.734,2.34411,4.38637,1.20737,8.869,3.21109.03215.01286.06425.03211.09635.045-.81563.7771-.88626,1.54777-3.03125,2.3184-2.96066,1.06611-5.43319,1.06611-.989,3.19185a36.55673,36.55673,0,0,0,6.87175,2.41475c-1.89456.50734-3.15971.34679-4.06526,1.77892-.17337.26976-.55873.77067-.4046,1.25876.29543.91194,2.13217.68718,4.3093,1.19452,2.44685.57159,3.45514,1.63765,4.7139,2.42118a19.32535,19.32535,0,0,0-3.65422,1.69547c-1.24591.745-1.57987,1.07249-1.59916,1.46423-.07706,1.36793,3.44875,3.012,6.76258,3.59645-1.86884.89909-3.012.39175-3.76982,1.66333a1.50488,1.50488,0,0,0-.26972.89269c.06421.64222.77063,1.14956,1.82388,1.33583a59.22421,59.22421,0,0,1,5.88914,1.856c.00642,0,.01285.00643.01928.00643a5.51865,5.51865,0,0,0-1.27158-.1477c-.31472.05139-.34039.17341-.78353.4046-1.84316.9569-2.93494.411-3.6478,1.53491-.10273.16056-.32753.456-.23761.745.17341.53948,1.25876.4046,2.53677.7a5.48657,5.48657,0,0,1,1.95876.8734,2.36953,2.36953,0,0,0-.22476.5202,2.16949,2.16949,0,0,0-.16056.96333c.1156.7.83488.52662,1.67618.91837a5.216,5.216,0,0,1,1.82388,1.8303c.03215.43032.05782.71929.05782.71929.00643,0,.4046.00642.79635,1.05324.29543.76425-.25691,1.05325-.122,1.445.07064.20551.2248.2248.52663.51376,1.2459,1.21381.53305,1.93952,1.99729,2.40832a2.06636,2.06636,0,0,0,.96333.16056c.7-.1156.52019-.83488.912-1.67618.67432-1.46424,2.24776-1.60555,2.51748-2.81292.12845-.59083-.18627-.79635-.52019-1.59912q.13488-.02888.289-.07707c1.567-.49452,3.28173-2.03582,3.2432-3.30744a1.277,1.277,0,0,0-.28258-.745c1.86241-.53306,3.49367-1.43857,3.44871-2.21567-.01285-.27615-.244-.50734-1.11745-1.02753a16.71454,16.71454,0,0,0-3.98177-1.64408,5.02647,5.02647,0,0,1,1.01472-.3404c2.94776-.70642,4.59827.65508,5.69648-.64221a2.55648,2.55648,0,0,0,.56515-1.92666c-.23122-1.5413-2.29272-2.45328-4.31573-3.012a8.25335,8.25335,0,0,1,3.17257-1.49c1.83034-.43028,3.37807-.23762,3.62212-1.00825.12845-.4046-.19266-.82849-.3404-1.05968-1.01467-1.59911-2.57526-.822-5.20838-2.19a4.41468,4.41468,0,0,1-.46881-.28254c3.94962-.68718,8.14976-2.646,8.05341-4.27077-.02567-.46881-.41742-.86059-1.90094-1.74686a20.14528,20.14528,0,0,0-2.19-1.14956,8.2122,8.2122,0,0,1,.81563-.39817c3.98816-1.66336,6.35156-.71285,7.89929-2.66522a1.78272,1.78272,0,0,0,.51376-1.278c-.122-.9248-1.47066-1.65051-3.47438-1.9138a6.649,6.649,0,0,0-1.05968-1.34226,34.89059,34.89059,0,0,0,4.38636-1.88169C1041.26626,640.79379,1038.49187,640.79379,1035.17157,639.50936Z"/>
        <path class="cls-1" d="M1007.57707,645.20528c-4.65288-1.79648-3.09889-3.593-6.97929-5.40737-3.87141-1.81446-3.87141-.88031-14.72217-2.67679a69.04365,69.04365,0,0,0-7.04223-.88925V624.54575h-3.62887v11.71309h-.009c-4.5361.35027-4.14088,1.65273-9.87165,2.65876-5.17388.90723-6.41345,0-10.77889.89824a27.64414,27.64414,0,0,0-8.95543,3.593c-3.14384.44912-5.26373,1.67071-5.45232,3.2247a3.13062,3.13062,0,0,0,.79939,2.16474c2.42526,3.2786,6.135,1.6887,12.4047,4.4912.04495.018.08985.0449.13475.06288-1.14078,1.0869-1.23957,2.16479-4.23966,3.24264-4.14093,1.49111-7.59914,1.49111-1.38333,4.46428a51.13108,51.13108,0,0,0,9.61118,3.37739c-2.64982.70959-4.41932.485-5.68587,2.48809-.24249.3773-.78147,1.0779-.5659,1.76057.41321,1.27549,2.98217.96113,6.02721,1.67072,3.4223.79944,4.83254,2.2905,6.59311,3.38638a27.02943,27.02943,0,0,0-5.111,2.37137c-1.74259,1.04193-2.20969,1.5-2.23666,2.048-.10779,1.91325,4.8236,4.21275,9.45849,5.03018-2.61385,1.2575-4.21274.54791-5.27266,2.32641a2.10475,2.10475,0,0,0-.37725,1.24856c.0898.89824,1.07785,1.60783,2.551,1.86836a82.837,82.837,0,0,1,8.23685,2.59587c.009,0,.018.009.027.009a7.7181,7.7181,0,0,0-1.7785-.20657c-.44019.07187-.4761.24254-1.09588.56589-2.57795,1.33837-4.105.57489-5.102,2.14681-.1437.22456-.45811.63771-.33235,1.04193.24255.75455,1.76057.5659,3.54806.97911a7.67364,7.67364,0,0,1,2.73963,1.22159,3.31415,3.31415,0,0,0-.31437.72758,3.03449,3.03449,0,0,0-.22456,1.34736c.16168.979,1.1677.73656,2.3444,1.28447a7.29557,7.29557,0,0,1,2.551,2.56c.04495.60186.08086,1.006.08086,1.006.009,0,.5659.009,1.11381,1.47313.41321,1.06891-.35931,1.47313-.17066,2.021.09879.28744.31441.31442.73656.71858,1.74259,1.69769.74555,2.7127,2.79351,3.3684a2.89024,2.89024,0,0,0,1.34736.22456c.97911-.16168.72758-1.1677,1.27555-2.34439.94314-2.048,3.14384-2.2456,3.52108-3.9343.17966-.82637-.26052-1.11381-.72757-2.23661q.18865-.04038.40422-.10778c2.19171-.69167,4.59-2.84741,4.5361-4.626a1.7861,1.7861,0,0,0-.39523-1.04194c2.60487-.74555,4.88643-2.01205,4.82355-3.09894-.018-.38623-.34134-.70959-1.56293-1.43716a23.37792,23.37792,0,0,0-5.5691-2.29949,7.02922,7.02922,0,0,1,1.41923-.4761c4.1229-.988,6.43138.91623,7.96739-.89824a3.57562,3.57562,0,0,0,.79046-2.69472c-.32341-2.15574-3.20673-3.43128-6.03621-4.21275a11.54357,11.54357,0,0,1,4.43731-2.08392c2.56-.60181,4.72476-.33235,5.06609-1.41019.17966-.5659-.26946-1.15877-.47609-1.48212-1.41918-2.23661-3.6019-1.14977-7.28472-3.063a6.17244,6.17244,0,0,1-.6557-.39517c5.52415-.96113,11.39868-3.7008,11.26392-5.97332-.03591-.6557-.58383-1.20367-2.65876-2.44324a28.1746,28.1746,0,0,0-3.063-1.60783,11.47971,11.47971,0,0,1,1.14078-.55691c5.578-2.32647,8.88361-.997,11.04835-3.72772a2.49344,2.49344,0,0,0,.71858-1.78749c-.17067-1.29347-2.057-2.30848-4.85946-2.67674a9.299,9.299,0,0,0-1.48211-1.87734,48.80082,48.80082,0,0,0,6.135-2.63184C1016.10142,647.00176,1012.221,647.00176,1007.57707,645.20528Z"/>
        <path class="cls-1" d="M971.04157,641.79314c-3.98237-1.5376-2.65232-3.0752-5.97353-4.62814-3.31352-1.553-3.31352-.75345-12.60061-2.291a59.09788,59.09788,0,0,0-6.0274-.76111V624.11079h-3.10592v10.02515h-.0077c-3.88242.2998-3.54414,1.41456-8.44908,2.27561-4.42828.77649-5.48923,0-9.22557.7688a23.6605,23.6605,0,0,0-7.6649,3.07519c-2.69079.3844-4.50519,1.42995-4.6666,2.76a2.67951,2.67951,0,0,0,.68419,1.85278c2.07576,2.80613,5.2509,1.44534,10.6171,3.844.03847.01539.07691.03843.11534.05382-.97639.93026-1.061,1.85283-3.62871,2.77535-3.54419,1.27623-6.504,1.27623-1.184,3.821a43.76275,43.76275,0,0,0,8.22615,2.89068c-2.268.60734-3.78247.41514-4.8665,2.12954-.20755.32293-.66885.92257-.48435,1.50686.35366,1.09168,2.55241.82262,5.15865,1.43,2.92912.68424,4.13614,1.96042,5.643,2.89838a23.13336,23.13336,0,0,0-4.37446,2.02964c-1.49147.89178-1.89126,1.28388-1.91435,1.75283-.09225,1.63754,4.12849,3.60566,8.09546,4.3053-2.23718,1.07629-3.60566.469-4.51284,1.99116a1.80155,1.80155,0,0,0-.32288,1.06864c.07686.7688.92252,1.37613,2.18336,1.59911a70.89888,70.89888,0,0,1,7.04986,2.22179c.0077,0,.0154.0077.02309.0077a6.60533,6.60533,0,0,0-1.5222-.17681c-.37675.06151-.40749.20759-.938.48434-2.20645,1.1455-3.51341.492-4.36677,1.83744-.123.1922-.39209.54582-.28445.89179.20759.64581,1.50686.48434,3.03676.838a6.56771,6.56771,0,0,1,2.34483,1.04555,2.83591,2.83591,0,0,0-.26906.62273,2.5969,2.5969,0,0,0-.1922,1.15319c.13837.838.99942.63042,2.00655,1.09938a6.24412,6.24412,0,0,1,2.18336,2.19105c.03847.51513.06921.861.06921.861.00769,0,.48435.0077.9533,1.26084.35366.91487-.30754,1.26084-.14607,1.7298.08455.246.2691.2691.63042.615,1.49147,1.453.63811,2.32178,2.39095,2.883a2.47386,2.47386,0,0,0,1.15319.1922c.838-.13838.62273-.99943,1.09173-2.00655.80723-1.75284,2.69079-1.922,3.01368-3.36734.15376-.70728-.223-.9533-.62273-1.9143q.16146-.03456.346-.09225c1.87587-.592,3.92855-2.43708,3.88242-3.95933a1.52883,1.52883,0,0,0-.33827-.89179c2.22948-.63811,4.18226-1.7221,4.12844-2.65236-.01539-.33058-.29215-.60733-1.3377-1.23006a20.00955,20.00955,0,0,0-4.76656-1.96812,6.01626,6.01626,0,0,1,1.21471-.40748c3.52876-.84566,5.50458.78419,6.81924-.7688a3.0603,3.0603,0,0,0,.67654-2.30639c-.2768-1.84509-2.74461-2.93682-5.16634-3.60567a9.88,9.88,0,0,1,3.79786-1.78361c2.1911-.51508,4.04388-.28445,4.336-1.207.15377-.48435-.23063-.99178-.40748-1.26854-1.21467-1.9143-3.08284-.98408-6.23494-2.62163a5.28225,5.28225,0,0,1-.56121-.33822c4.72808-.82262,9.756-3.16749,9.64071-5.11253-.03074-.5612-.49969-1.03021-2.27561-2.09115a24.11591,24.11591,0,0,0-2.62163-1.37613,9.82544,9.82544,0,0,1,.97639-.47665c4.7742-1.99121,7.60342-.85336,9.4562-3.19053a2.13411,2.13411,0,0,0,.615-1.5299c-.14607-1.10707-1.76053-1.97582-4.15918-2.291a7.95891,7.95891,0,0,0-1.26853-1.6068,41.76717,41.76717,0,0,0,5.2509-2.25258C978.3375,643.33073,975.01628,643.33073,971.04157,641.79314Z"/>
        <path class="cls-1" d="M942.82019,652.31368c-6.12655-2.36547-4.08037-4.73094-9.1898-7.12-5.09758-2.38915-5.09758-1.15913-19.385-3.5246a90.91786,90.91786,0,0,0-9.27267-1.1709V625.11079h-4.77822v15.4229h-.01184c-5.9728.46121-5.45239,2.17619-12.99824,3.50085-6.81257,1.19457-8.44475,0-14.19282,1.18273a36.39968,36.39968,0,0,0-11.79183,4.73094c-4.13957.59137-6.93087,2.19987-7.1792,4.246a4.12216,4.12216,0,0,0,1.05258,2.85036c3.19339,4.317,8.07809,2.22354,16.33356,5.91367.05919.02368.11831.05912.17744.0828-1.5021,1.43113-1.63218,2.85043-5.58248,4.26965-5.45246,1.96338-10.006,1.96338-1.82145,5.87823a67.32572,67.32572,0,0,0,12.65527,4.4471c-3.48908.93433-5.819.63865-7.48673,3.27612-.31929.4968-1.029,1.4193-.74513,2.31819.54409,1.67946,3.92669,1.26553,7.93618,2.19987,4.50621,1.05265,6.36311,3.01595,8.6813,4.45893a35.58985,35.58985,0,0,0-6.72976,3.12243c-2.29451,1.37194-2.90956,1.97515-2.94507,2.6966-.14193,2.51923,6.35135,5.547,12.45423,6.62336-3.44173,1.65578-5.547.72145-6.94265,3.06324a2.77143,2.77143,0,0,0-.49673,1.644c.11825,1.18273,1.41923,2.11707,3.35893,2.46011a109.07363,109.07363,0,0,1,10.84565,3.418c.01184,0,.02368.01184.03552.01184a10.16244,10.16244,0,0,0-2.34179-.272c-.5796.09464-.62689.31936-1.443.74513-3.39444,1.76226-5.4051.757-6.71792,2.82675-.1892.29568-.6032.83969-.4376,1.37194.31936.99353,2.31818.74513,4.67181,1.28921a10.1041,10.1041,0,0,1,3.60733,1.6085,4.36353,4.36353,0,0,0-.41393.958,3.99536,3.99536,0,0,0-.29568,1.77411c.21288,1.28914,1.53754.96985,3.08692,1.6913,1.73858.80425,2.4601,2.28267,3.35892,3.37076.0592.79249.10648,1.32466.10648,1.32466.01184,0,.74513.01184,1.46658,1.9397.54408,1.40746-.47312,1.9397-.22472,2.66115.13008.37849.414.414.96985.94618,2.2945,2.23538.98169,3.57188,3.67828,4.43525a3.80581,3.80581,0,0,0,1.77411.29569c1.28921-.21289.958-1.53755,1.67953-3.08692,1.24186-2.6966,4.13957-2.95684,4.6363-5.18039.23656-1.08809-.343-1.46658-.958-2.945q.2484-.05317.53224-.14193c2.88588-.91073,6.04376-3.74925,5.9728-6.09111a2.35187,2.35187,0,0,0-.52041-1.37194c3.42989-.98169,6.43408-2.64931,6.35128-4.08045-.02368-.50856-.44945-.93433-2.058-1.89234a30.78265,30.78265,0,0,0-7.333-3.0278,9.256,9.256,0,0,1,1.86875-.62689c5.42871-1.301,8.46834,1.20642,10.49084-1.18273a4.70807,4.70807,0,0,0,1.04082-3.5482c-.42584-2.83852-4.22237-4.51806-7.948-5.547a15.19967,15.19967,0,0,1,5.84271-2.744c3.37084-.79242,6.2212-.43761,6.67064-1.85683.23657-.74513-.3548-1.52578-.62688-1.95154-1.86867-2.945-4.7427-1.51394-9.592-4.03317a8.12587,8.12587,0,0,1-.86337-.52033c7.27377-1.26554,15.0089-4.87294,14.83146-7.86522-.04728-.86337-.76873-1.58489-3.50085-3.21707a37.10138,37.10138,0,0,0-4.03316-2.11707,15.115,15.115,0,0,1,1.5021-.73329c7.34473-3.06331,11.69726-1.31282,14.54762-4.90838a3.28318,3.28318,0,0,0,.94617-2.35363c-.22472-1.70314-2.70844-3.03963-6.39856-3.52452a12.24473,12.24473,0,0,0-1.95154-2.47195,64.256,64.256,0,0,0,8.07809-3.4654C954.0444,654.67915,948.935,654.67915,942.82019,652.31368Z"/>
        <path class="cls-1" d="M896.04632,647.26368c-5.17342-1.99746-3.44557-3.99492-7.76009-6.01231-4.30452-2.01746-4.30452-.9788-16.36919-2.97626a76.77231,76.77231,0,0,0-7.83007-.98873V624.2929h-4.03484v13.02347h-.01c-5.04357.38946-4.60413,1.83763-10.976,2.9562-5.75269,1.00873-7.13094,0-11.98475.99873a30.73658,30.73658,0,0,0-9.9573,3.99492c-3.49556.49936-5.8526,1.85762-6.0623,3.58546a3.48085,3.48085,0,0,0,.88883,2.40691c2.69658,3.64539,6.82133,1.87762,13.79245,4.99365.05.02.09991.04993.14983.06992-1.26841,1.20848-1.37825,2.407-4.714,3.6054-4.60419,1.65792-8.44928,1.65792-1.53809,4.96372a56.85114,56.85114,0,0,0,10.68642,3.75523c-2.94626.789-4.91373.53929-6.322,2.76644-.26962.41951-.86889,1.19849-.62921,1.95753.45944,1.41818,3.31579,1.06865,6.7015,1.85762,3.80516.88889,5.37317,2.54675,7.3307,3.76523a30.05372,30.05372,0,0,0-5.68277,2.63666c-1.93754,1.1585-2.4569,1.66786-2.48689,2.27707-.11984,2.1273,5.36323,4.684,10.51665,5.59292-2.90628,1.39819-4.684.60921-5.86254,2.58668a2.34026,2.34026,0,0,0-.41945,1.38825c.09985.99873,1.19843,1.7877,2.83636,2.07737a92.1036,92.1036,0,0,1,9.15833,2.88628c.01,0,.02.01.03.01a8.58193,8.58193,0,0,0-1.97746-.22969c-.48943.07992-.52936.26968-1.21848.62921-2.86635,1.48809-4.5642.6392-5.67278,2.387-.15977.24968-.50936.70905-.36952,1.15849.26967.839,1.95753.62921,3.945,1.08865a8.53212,8.53212,0,0,1,3.04611,1.35825,3.68516,3.68516,0,0,0-.34953.809,3.37384,3.37384,0,0,0-.24968,1.4981c.17976,1.08858,1.29834.819,2.60667,1.42817,1.4681.67913,2.07737,1.92754,2.83636,2.84636.05.66919.08991,1.11857.08991,1.11857.01,0,.6292.01,1.23841,1.63793.45944,1.18849-.39951,1.63793-.18976,2.24714.10985.3196.34959.34959.819.799,1.93754,1.88762.829,3.01619,3.106,3.74524a3.21379,3.21379,0,0,0,1.4981.24968c1.08864-.17976.809-1.29834,1.41824-2.60667,1.04865-2.27707,3.49555-2.49682,3.915-4.37444.19976-.91881-.28967-1.23841-.809-2.48683q.20976-.04489.44944-.11984c2.4369-.769,5.10349-3.16595,5.04357-5.14348a1.98589,1.98589,0,0,0-.43944-1.1585c2.89628-.829,5.43309-2.23714,5.36317-3.44563-.02-.42944-.37952-.789-1.73778-1.59794a25.99329,25.99329,0,0,0-6.19213-2.55674,7.81551,7.81551,0,0,1,1.578-.52936c4.58413-1.09858,7.15087,1.01872,8.85872-.99873a3.97557,3.97557,0,0,0,.87889-2.99619c-.35959-2.39691-3.56547-3.81515-6.7115-4.684a12.835,12.835,0,0,1,4.93373-2.31706c2.84642-.66913,5.25333-.36953,5.63285-1.56795.19976-.62921-.29961-1.2884-.52936-1.64793-1.57794-2.48683-4.00485-1.2784-8.09968-3.4057a6.86047,6.86047,0,0,1-.72905-.43939c6.14215-1.06864,12.67388-4.11482,12.524-6.64157-.03992-.729-.64913-1.33832-2.9562-2.71658a31.32842,31.32842,0,0,0-3.4057-1.7877,12.76428,12.76428,0,0,1,1.26841-.61921c6.20207-2.58673,9.87745-1.10857,12.28436-4.14475a2.77235,2.77235,0,0,0,.799-1.98746c-.18976-1.43817-2.28707-2.56674-5.4031-2.9762a10.33974,10.33974,0,0,0-1.64793-2.08737,54.25813,54.25813,0,0,0,6.82134-2.92627C905.52431,649.26114,901.20979,649.26114,896.04632,647.26368Z"/>
        <path class="cls-1" d="M873.91031,639.90154c-7.02947-2.58772-4.68173-5.17544-10.54417-7.789-5.84885-2.61362-5.84885-1.268-22.24195-3.85575-4.6004-.72456-7.88442-1.12565-10.63926-1.28091V610.14275H825.0025v16.872h-.01358c-6.85305.50455-6.25595,2.38066-14.91389,3.82978-7.81658,1.30681-9.68931,0-16.28452,1.29386a42.92175,42.92175,0,0,0-13.52968,5.17544c-4.74966.64693-7.95234,2.40656-8.23727,4.645a4.3922,4.3922,0,0,0,1.20771,3.11817c3.664,4.72262,9.26863,2.43246,18.74076,6.4693.06792.0259.13576.06468.20359.09058-1.72347,1.5656-1.87272,3.11825-6.4052,4.67082-6.256,2.14785-11.48062,2.14785-2.0899,6.43052a79.8141,79.8141,0,0,0,14.52038,4.86493c-4.0033,1.02212-6.67663.69866-8.59011,3.58394-.36634.54348-1.18062,1.55265-.85494,2.536.62427,1.83725,4.50539,1.38444,9.10579,2.40656,5.17033,1.15155,7.3009,3.29932,9.96073,4.87787a41.8044,41.8044,0,0,0-7.72158,3.41581c-2.63266,1.50085-3.33835,2.16073-3.3791,2.95-.16284,2.75593,7.28739,6.06821,14.2897,7.24567-3.949,1.81136-6.36454.78924-7.96584,3.35105a2.93516,2.93516,0,0,0-.56993,1.79849c.13567,1.29386,1.62838,2.316,3.854,2.69125a129.60938,129.60938,0,0,1,12.44406,3.7392c.01358,0,.02717.01295.04075.01295a12.20585,12.20585,0,0,0-2.68692-.29757c-.665.10353-.71927.34937-1.65564.81514-3.8947,1.92784-6.20169.82809-7.708,3.09235-.21709.32346-.69211.91859-.5021,1.50084.36643,1.08688,2.65983.81514,5.36034,1.41034a11.8685,11.8685,0,0,1,4.139,1.75963,4.6625,4.6625,0,0,0-.47493,1.048,4.1909,4.1909,0,0,0-.33926,1.94079c.24426,1.41026,1.76414,1.061,3.54186,1.85021,1.99482.87981,2.82268,2.49714,3.854,3.68747.06792.86694.12217,1.44912.12217,1.44912.01358,0,.85494.013,1.68272,2.122.62427,1.53969-.54285,2.12194-.25784,2.91118.14925.414.475.4529,1.11278,1.03507,2.63267,2.44542,1.12637,3.90749,4.22039,4.852a4.55554,4.55554,0,0,0,2.03556.32346c1.47922-.23288,1.09921-1.682,1.92706-3.37695,1.42488-2.95,4.74966-3.23465,5.31959-5.66712.27143-1.19033-.39359-1.60437-1.0992-3.2217q.285-.05816.61069-.15525c3.31118-.9963,6.93447-4.10152,6.85305-6.66341a2.501,2.501,0,0,0-.5971-1.50085c3.93537-1.07392,7.38231-2.89823,7.28731-4.46383-.02717-.55635-.51568-1.02212-2.36124-2.07015a36.32453,36.32453,0,0,0-8.41369-3.31227,10.97945,10.97945,0,0,1,2.14416-.68579c6.22878-1.42321,9.71639,1.31976,12.037-1.29386a4.98746,4.98746,0,0,0,1.19421-3.88158c-.4886-3.10522-4.84466-4.94256-9.11938-6.06821a17.81274,17.81274,0,0,1,6.7038-3.00176c3.86762-.86687,7.13806-.47872,7.65375-2.03129.27142-.81514-.4071-1.66913-.71928-2.1349-2.14407-3.2217-5.44167-1.65618-11.0056-4.41211a9.42342,9.42342,0,0,1-.99061-.56922c8.34576-1.38444,17.22088-5.33078,17.01729-8.60421-.05425-.94449-.882-1.7338-4.0168-3.51934a43.341,43.341,0,0,0-4.62756-2.316,17.71229,17.71229,0,0,1,1.72347-.80219c8.42719-3.35113,13.42118-1.43616,16.69162-5.36955a3.50838,3.50838,0,0,0,1.08562-2.57477c-.25785-1.86316-3.1076-3.32523-7.34157-3.85568a13.48184,13.48184,0,0,0-2.23916-2.7042,75.69313,75.69313,0,0,0,9.26863-3.791C886.78872,642.48926,880.92629,642.48926,873.91031,639.90154Z"/>
        <path class="cls-1" d="M815.6376,657.13076c-5.2523-1.9335-3.49811-3.867-7.87842-5.81979-4.37016-1.95285-4.37016-.94745-16.6188-2.88095-3.43734-.54138-5.8911-.84107-7.94947-.95708V634.89552h-4.09637V647.502h-.01015c-5.12048.377-4.67434,1.77878-11.1434,2.86154-5.84041.97642-7.23968,0-12.1675.96675a32.07031,32.07031,0,0,0-10.10915,3.867c-3.54885.48338-5.94184,1.79814-6.15473,3.47066a3.28176,3.28176,0,0,0,.90237,2.32984c2.7377,3.52866,6.92536,1.8175,14.00277,4.83375.05075.01935.10144.04833.15212.06768-1.28775,1.16979-1.39927,2.3299-4.78585,3.49-4.6744,1.60484-8.57812,1.60484-1.56154,4.80478a59.63692,59.63692,0,0,0,10.84937,3.635c-2.99119.76371-4.98866.522-6.41838,2.67785-.27372.40608-.88213,1.16011-.63879,1.89485.46644,1.37277,3.36635,1.03443,6.80368,1.79814,3.86318.86042,5.45511,2.4652,7.44249,3.64467a31.23442,31.23442,0,0,0-5.76943,2.55223c-1.96708,1.1214-2.49436,1.61446-2.52481,2.20416-.12167,2.05918,5.445,4.53406,10.677,5.41383-2.9506,1.35342-4.75547.58971-5.95194,2.50385a2.193,2.193,0,0,0-.42584,1.3438c.10137.96675,1.2167,1.73046,2.87961,2.01085a96.84531,96.84531,0,0,1,9.298,2.79386c.01015,0,.0203.00968.03045.00968a9.11954,9.11954,0,0,0-2.00762-.22233c-.49689.07735-.53743.261-1.23706.60905-2.91006,1.44045-4.6338.61874-5.75928,2.31055-.16221.24169-.51713.68635-.37516,1.1214.27379.8121,1.98738.60906,4.00515,1.05379a8.86787,8.86787,0,0,1,3.09256,1.31476,3.48352,3.48352,0,0,0-.35486.78307,3.13139,3.13139,0,0,0-.25349,1.45012c.18251,1.05373,1.31814.79274,2.64642,1.38245,1.49049.65738,2.10905,1.86582,2.87961,2.75521.05075.64776.09128,1.08275.09128,1.08275.01015,0,.6388.00968,1.2573,1.58549.46644,1.15043-.40561,1.58548-.19265,2.17518.11152.30937.35492.3384.83145.77339,1.96708,1.82717.8416,2.91961,3.1534,3.62531a3.40384,3.40384,0,0,0,1.52094.24169c1.10524-.174.8213-1.25676,1.43986-2.5232,1.06465-2.20416,3.54886-2.41688,3.9747-4.23437.20281-.88939-.29408-1.19876-.8213-2.4072q.213-.04346.45629-.116c2.47407-.74442,5.18132-3.06458,5.12048-4.97879a1.86862,1.86862,0,0,0-.44614-1.1214c2.94044-.80242,5.51594-2.16551,5.445-3.3353-.0203-.41569-.38531-.76371-1.76428-1.54677a27.1414,27.1414,0,0,0-6.28655-2.47488,8.20409,8.20409,0,0,1,1.60207-.51241c4.654-1.0634,7.25992.98611,8.99381-.96675a3.72656,3.72656,0,0,0,.89229-2.90024c-.36507-2.32017-3.61984-3.693-6.81384-4.53406a13.30925,13.30925,0,0,1,5.009-2.24287c2.88982-.6477,5.33344-.35769,5.71874-1.51774.20281-.60906-.30417-1.24715-.53742-1.59516-1.602-2.4072-4.06593-1.23747-8.22319-3.29665a7.03919,7.03919,0,0,1-.74018-.42532c6.23581-1.03443,12.86715-3.98306,12.715-6.4289-.04054-.70571-.659-1.29548-3.00128-2.62959a32.38243,32.38243,0,0,0-3.45764-1.73047,13.23477,13.23477,0,0,1,1.28775-.59938c6.29665-2.5039,10.02807-1.07307,12.47168-4.012a2.62138,2.62138,0,0,0,.81116-1.92382c-.19266-1.39212-2.322-2.48456-5.48549-2.8809a10.07342,10.07342,0,0,0-1.67306-2.02053,56.55728,56.55728,0,0,0,6.92536-2.83257C825.26012,659.06426,820.87981,659.06426,815.6376,657.13076Z"/>
        <path class="cls-1" d="M541.21736,634.45927c3.98237-1.5376,2.65232-3.0752,5.97353-4.62814,3.31352-1.553,3.31352-.75345,12.60061-2.29105a59.09722,59.09722,0,0,1,6.02739-.7611V616.77691h3.10593v10.02516h.00769c3.88242.29979,3.54415,1.41456,8.44909,2.27561,4.42828.77649,5.48922,0,9.22557.7688a23.66033,23.66033,0,0,1,7.66489,3.07519c2.69079.3844,4.50519,1.43,4.66661,2.76a2.67952,2.67952,0,0,1-.68419,1.85279c-2.07577,2.80613-5.25091,1.44534-10.6171,3.844-.03848.01539-.07691.03843-.11534.05382.97639.93026,1.061,1.85283,3.6287,2.77535,3.5442,1.27623,6.50405,1.27623,1.184,3.82095a43.76268,43.76268,0,0,1-8.22614,2.89068c2.268.60734,3.78247.41514,4.8665,2.12954.20754.32293.66885.92257.48435,1.50686-.35367,1.09168-2.55242.82262-5.15865,1.43-2.92912.68424-4.13614,1.96042-5.643,2.89838a23.13336,23.13336,0,0,1,4.37446,2.02964c1.49147.89178,1.89126,1.28388,1.91435,1.75283.09225,1.63754-4.12849,3.60566-8.09547,4.3053,2.23718,1.07629,3.60567.46895,4.51284,1.99116a1.80141,1.80141,0,0,1,.32288,1.06864c-.07686.76879-.92252,1.37613-2.18336,1.59911a70.89974,70.89974,0,0,0-7.04986,2.22179c-.00769,0-.01539.0077-.02308.0077a6.60533,6.60533,0,0,1,1.5222-.17681c.37675.06151.40749.20759.938.48434,2.20644,1.1455,3.51341.49205,4.36676,1.83744.123.1922.3921.54582.28446.89179-.2076.64581-1.50687.48434-3.03677.838a6.56773,6.56773,0,0,0-2.34482,1.04555,2.8365,2.8365,0,0,1,.26906.62272,2.59712,2.59712,0,0,1,.1922,1.1532c-.13838.838-.99943.63042-2.00655,1.09938a6.24412,6.24412,0,0,0-2.18336,2.191c-.03848.51513-.06921.86105-.06921.86105-.0077,0-.48435.0077-.9533,1.26084-.35367.91487.30753,1.26084.14607,1.7298-.08456.246-.26911.2691-.63042.615-1.49147,1.453-.63812,2.32178-2.39095,2.883a2.47388,2.47388,0,0,1-1.1532.1922c-.838-.13838-.62272-.99943-1.09172-2.00655-.80723-1.75284-2.6908-1.922-3.01368-3.36734-.15377-.70728.223-.9533.62273-1.9143q-.16147-.03456-.346-.09225c-1.87587-.592-3.92855-2.43708-3.88242-3.95933a1.52869,1.52869,0,0,1,.33827-.89179c-2.22949-.63811-4.18226-1.7221-4.12844-2.65236.01539-.33058.29215-.60733,1.3377-1.23006a20.00938,20.00938,0,0,1,4.76656-1.96812,6.01638,6.01638,0,0,0-1.21472-.40748c-3.52875-.84566-5.50457.78419-6.81923-.7688a3.06035,3.06035,0,0,1-.67655-2.30639c.27681-1.84509,2.74462-2.93682,5.16635-3.60567a9.88,9.88,0,0,0-3.79786-1.78361c-2.19111-.51509-4.04389-.28446-4.336-1.207-.15377-.48434.23063-.99177.40748-1.26853,1.21467-1.9143,3.08284-.98408,6.23494-2.62163a5.28225,5.28225,0,0,0,.56121-.33822c-4.72808-.82262-9.756-3.16749-9.64071-5.11253.03073-.56121.49969-1.03021,2.27561-2.09115a24.11591,24.11591,0,0,1,2.62163-1.37613,9.82319,9.82319,0,0,0-.97639-.47665c-4.77421-1.99121-7.60342-.85336-9.4562-3.19053a2.13407,2.13407,0,0,1-.615-1.5299c.14607-1.10708,1.76053-1.97582,4.15917-2.291a7.95941,7.95941,0,0,1,1.26854-1.60681,41.765,41.765,0,0,1-5.25091-2.25257C533.92143,635.99686,537.24264,635.99686,541.21736,634.45927Z"/>
        <path class="cls-1" d="M569.43873,644.97981c6.12656-2.36547,4.08038-4.73094,9.1898-7.12,5.09759-2.38915,5.09759-1.15913,19.385-3.5246a90.91465,90.91465,0,0,1,9.27267-1.1709V617.77691h4.77822v15.42291h.01184c5.97279.46121,5.45239,2.17619,12.99824,3.50085,6.81256,1.19457,8.44474,0,14.19281,1.18273a36.39959,36.39959,0,0,1,11.79183,4.73094c4.13957.59137,6.93088,2.19987,7.17921,4.24605a4.12222,4.12222,0,0,1-1.05258,2.85036c-3.1934,4.317-8.0781,2.22354-16.33356,5.91367-.05919.02368-.11832.05912-.17744.0828,1.5021,1.43113,1.63218,2.85043,5.58247,4.26965,5.45246,1.96338,10.006,1.96338,1.82146,5.87823a67.32488,67.32488,0,0,1-12.65527,4.44709c3.48908.93434,5.819.63866,7.48673,3.27613.31929.4968,1.029,1.4193.74512,2.31819-.54408,1.67946-3.92668,1.26553-7.93617,2.19986-4.50622,1.05266-6.36312,3.016-8.6813,4.45894a35.58985,35.58985,0,0,1,6.72976,3.12243c2.29451,1.37194,2.90955,1.97515,2.94507,2.6966.14192,2.51923-6.35135,5.547-12.45423,6.62336,3.44173,1.65578,5.547.72145,6.94265,3.06324a2.77136,2.77136,0,0,1,.49672,1.644c-.11824,1.18273-1.41922,2.11707-3.35892,2.46011a109.0713,109.0713,0,0,0-10.84566,3.418c-.01184,0-.02367.01184-.03551.01184a10.16244,10.16244,0,0,1,2.34179-.272c.5796.09464.62688.31936,1.443.74512,3.39444,1.76227,5.40511.757,6.71792,2.82676.18921.29568.60321.83969.43761,1.37194-.31936.99353-2.31818.74513-4.67181,1.28921a10.1041,10.1041,0,0,0-3.60733,1.6085,4.364,4.364,0,0,1,.41393.958,3.9955,3.9955,0,0,1,.29568,1.77411c-.21288,1.28914-1.53754.96985-3.08692,1.6913-1.73858.80425-2.46011,2.28267-3.35892,3.37076-.0592.79249-.10648,1.32466-.10648,1.32466-.01184,0-.74513.01184-1.46658,1.9397-.54409,1.40746.47312,1.9397.22472,2.66115-.13008.37849-.414.414-.96985.94618-2.29451,2.23538-.98169,3.57188-3.67829,4.43525a3.80562,3.80562,0,0,1-1.7741.29568c-1.28921-.21288-.958-1.53754-1.67953-3.08692-1.24186-2.69659-4.13957-2.95683-4.6363-5.18038-.23656-1.08809.343-1.46658.958-2.945q-.2484-.05316-.53225-.14192c-2.88587-.91073-6.04375-3.74925-5.97279-6.09111a2.3518,2.3518,0,0,1,.52041-1.37194c-3.42989-.98169-6.43408-2.64931-6.35128-4.08045.02367-.50857.44944-.93433,2.05794-1.89234a30.78239,30.78239,0,0,1,7.333-3.0278,9.25591,9.25591,0,0,0-1.86874-.62689c-5.42871-1.301-8.46835,1.20642-10.49085-1.18273a4.70811,4.70811,0,0,1-1.04081-3.5482c.42584-2.83852,4.22237-4.51806,7.948-5.547a15.19953,15.19953,0,0,0-5.84271-2.744c-3.37083-.79242-6.22119-.43761-6.67064-1.85683-.23656-.74513.35481-1.52578.62689-1.95154,1.86866-2.945,4.7427-1.51394,9.592-4.03317a8.1269,8.1269,0,0,0,.86337-.52033c-7.27378-1.26554-15.00891-4.87294-14.83147-7.86522.04729-.86337.76874-1.58489,3.50085-3.21707a37.10056,37.10056,0,0,1,4.03317-2.11707,15.11616,15.11616,0,0,0-1.5021-.73329c-7.34473-3.06332-11.69726-1.31282-14.54762-4.90838a3.2831,3.2831,0,0,1-.94617-2.35363c.22472-1.70314,2.70843-3.03963,6.39856-3.52452a12.24473,12.24473,0,0,1,1.95154-2.47195,64.25671,64.25671,0,0,1-8.0781-3.4654C558.21452,647.34528,563.324,647.34528,569.43873,644.97981Z"/>
        <path class="cls-1" d="M616.21261,639.92981c5.17341-1.99746,3.44557-3.99492,7.76009-6.01231,4.30452-2.01746,4.30452-.9788,16.36919-2.97626a76.77184,76.77184,0,0,1,7.83006-.98873V616.959h4.03485V629.9825h.01c5.04357.38946,4.60412,1.83763,10.976,2.9562,5.75269,1.00873,7.13094,0,11.98476.99873a30.73668,30.73668,0,0,1,9.9573,3.99492c3.49555.49936,5.8526,1.85762,6.06229,3.58546a3.48085,3.48085,0,0,1-.88882,2.40691c-2.69658,3.64539-6.82134,1.87762-13.79245,4.99365-.05.02-.09991.04993-.14983.06992,1.2684,1.20848,1.37825,2.407,4.714,3.6054,4.60419,1.65792,8.44927,1.65792,1.53808,4.96372a56.85114,56.85114,0,0,1-10.68642,3.75523c2.94627.789,4.91374.53929,6.322,2.76644.26961.41951.86889,1.19848.6292,1.95753-.45943,1.41818-3.31579,1.06865-6.70149,1.85762-3.80516.88888-5.37317,2.54675-7.3307,3.76523a30.05372,30.05372,0,0,1,5.68277,2.63666c1.93754,1.1585,2.4569,1.66786,2.48689,2.27707.11984,2.1273-5.36324,4.68405-10.51665,5.59292,2.90627,1.39819,4.684.60921,5.86253,2.58668a2.34019,2.34019,0,0,1,.41945,1.38825c-.09985.99873-1.19842,1.7877-2.83635,2.07737a92.104,92.104,0,0,0-9.15834,2.88628c-.01,0-.02.01-.03.01a8.582,8.582,0,0,1,1.97747-.22969c.48943.07992.52935.26968,1.21848.62921,2.86635,1.48809,4.5642.6392,5.67277,2.387.15977.24969.50937.70906.36953,1.1585-.26968.839-1.95753.62921-3.945,1.08865a8.532,8.532,0,0,0-3.04612,1.35825,3.68468,3.68468,0,0,1,.34953.809,3.37383,3.37383,0,0,1,.24969,1.4981c-.17977,1.08858-1.29834.819-2.60667,1.42817-1.46811.67913-2.07738,1.92754-2.83636,2.84636-.05.66919-.08991,1.11857-.08991,1.11857-.01,0-.62921.01-1.23842,1.63793-.45944,1.18849.39952,1.63793.18976,2.24714-.10984.3196-.34959.34959-.819.799-1.93754,1.88762-.829,3.01618-3.106,3.74524a3.21375,3.21375,0,0,1-1.49809.24968c-1.08864-.17976-.809-1.29834-1.41824-2.60667-1.04865-2.27707-3.49555-2.49682-3.915-4.37444-.19976-.91881.28967-1.23841.809-2.48683q-.20976-.04489-.44944-.11984c-2.43691-.769-5.1035-3.16595-5.04358-5.14348a1.986,1.986,0,0,1,.43945-1.1585c-2.89628-.829-5.43309-2.23714-5.36317-3.44563.02-.42944.37952-.789,1.73777-1.59794a25.99387,25.99387,0,0,1,6.19214-2.55675,7.8164,7.8164,0,0,0-1.578-.52935c-4.58413-1.09858-7.15088,1.01872-8.85873-.99873a3.97561,3.97561,0,0,1-.87888-2.99619c.35959-2.39691,3.56547-3.81515,6.71149-4.684a12.83487,12.83487,0,0,0-4.93372-2.31706c-2.84642-.66913-5.25333-.36953-5.63285-1.56795-.19976-.62921.2996-1.2884.52935-1.64793,1.578-2.48683,4.00486-1.2784,8.09968-3.4057a6.86183,6.86183,0,0,0,.72906-.43939c-6.14215-1.06864-12.67388-4.11482-12.524-6.64157.03993-.72905.64914-1.33833,2.9562-2.71658a31.33026,31.33026,0,0,1,3.4057-1.7877,12.76388,12.76388,0,0,0-1.2684-.61921c-6.20207-2.58673-9.87745-1.10857-12.28436-4.14475a2.77235,2.77235,0,0,1-.799-1.98746c.18976-1.43817,2.28706-2.56674,5.4031-2.9762a10.33989,10.33989,0,0,1,1.64792-2.08737,54.25813,54.25813,0,0,1-6.82134-2.92627C606.73462,641.92727,611.04914,641.92727,616.21261,639.92981Z"/>
        <path class="cls-1" d="M638.34861,632.56767c7.02948-2.58772,4.68173-5.17544,10.54417-7.789,5.84886-2.61362,5.84886-1.268,22.242-3.85575,4.6004-.72456,7.88442-1.12566,10.63926-1.28091V602.80888h5.48242v16.872H687.27c6.85305.50455,6.256,2.38066,14.91389,3.82978,7.81658,1.30681,9.68931,0,16.28452,1.29386A42.92137,42.92137,0,0,1,731.9981,629.98c4.74965.64693,7.95234,2.40656,8.23726,4.645a4.39219,4.39219,0,0,1-1.2077,3.11817c-3.664,4.72262-9.26863,2.43246-18.74077,6.4693-.06792.0259-.13575.06468-.20359.09058,1.72347,1.5656,1.87273,3.11825,6.40521,4.67082,6.256,2.14785,11.48061,2.14785,2.0899,6.43052a79.81513,79.81513,0,0,1-14.52038,4.86493c4.00329,1.02212,6.67663.69866,8.5901,3.58394.36635.54348,1.18063,1.55265.85495,2.536-.62427,1.83726-4.5054,1.38444-9.10579,2.40657-5.17033,1.15155-7.3009,3.29932-9.96074,4.87787a41.80315,41.80315,0,0,1,7.72158,3.41581c2.63267,1.50085,3.33836,2.16073,3.37911,2.95.16284,2.75593-7.2874,6.06821-14.2897,7.24567,3.949,1.81136,6.36453.78923,7.96583,3.351a2.9351,2.9351,0,0,1,.56994,1.79849c-.13567,1.29386-1.62839,2.316-3.854,2.69125a129.611,129.611,0,0,0-12.44406,3.73919c-.01359,0-.02717.013-.04075.013a12.20585,12.20585,0,0,1,2.68692-.29757c.665.10353.71927.34937,1.65563.81514,3.89471,1.92784,6.2017.82809,7.708,3.09235.21709.32346.6921.91859.5021,1.50084-.36643,1.08688-2.65984.81514-5.36034,1.41034a11.86856,11.86856,0,0,0-4.139,1.75963,4.662,4.662,0,0,1,.47494,1.048,4.1909,4.1909,0,0,1,.33926,1.94079c-.24426,1.41026-1.76414,1.061-3.54187,1.85021-1.99481.87981-2.82267,2.49714-3.854,3.68747-.06792.86694-.12217,1.44911-.12217,1.44911-.01359,0-.855.013-1.68272,2.12195-.62427,1.5397.54285,2.12195.25784,2.91119-.14926.414-.475.4529-1.11279,1.03507-2.63266,2.44542-1.12637,3.90749-4.22038,4.852a4.55558,4.55558,0,0,1-2.03557.32346c-1.47921-.23288-1.0992-1.682-1.92706-3.377-1.42488-2.95-4.74965-3.23465-5.31958-5.66712-.27143-1.19033.39359-1.60437,1.0992-3.2217q-.285-.05815-.61069-.15525c-3.31119-.9963-6.93447-4.10152-6.85305-6.66341a2.50083,2.50083,0,0,1,.5971-1.50085c-3.93537-1.07392-7.38232-2.89823-7.28731-4.46383.02716-.55635.51568-1.02212,2.36124-2.07015a36.32462,36.32462,0,0,1,8.41368-3.31228,10.97984,10.97984,0,0,0-2.14415-.68578c-6.22878-1.42321-9.71639,1.31976-12.037-1.29386a4.98745,4.98745,0,0,1-1.1942-3.88158c.4886-3.10522,4.84465-4.94256,9.11937-6.06821a17.81261,17.81261,0,0,0-6.70379-3.00176c-3.86763-.86687-7.13807-.47873-7.65375-2.03129-.27142-.81514.4071-1.66913.71927-2.13491,2.14407-3.22169,5.44168-1.65617,11.00561-4.4121a9.42348,9.42348,0,0,0,.99061-.56923c-8.34577-1.38444-17.22088-5.33077-17.01729-8.6042.05425-.94449.882-1.73381,4.01679-3.51934a43.34015,43.34015,0,0,1,4.62757-2.316,17.71156,17.71156,0,0,0-1.72348-.80219c-8.42718-3.35113-13.42117-1.43616-16.69161-5.36955a3.50838,3.50838,0,0,1-1.08562-2.57477c.25784-1.86316,3.1076-3.32523,7.34157-3.85568a13.482,13.482,0,0,1,2.23915-2.7042,75.69377,75.69377,0,0,1-9.26863-3.791C625.4702,635.15539,631.33264,635.15539,638.34861,632.56767Z"/>
        <path class="cls-1" d="M696.62133,649.79689c5.2523-1.9335,3.49811-3.867,7.87842-5.81979,4.37016-1.95285,4.37016-.94745,16.6188-2.88095,3.43734-.54138,5.8911-.84107,7.94946-.95708V627.56165h4.09638V640.1681h.01015c5.12048.377,4.67433,1.77879,11.14339,2.86155,5.84042.97642,7.23969,0,12.16751.96675a32.07014,32.07014,0,0,1,10.10914,3.867c3.54886.48338,5.94185,1.79814,6.15474,3.47066a3.28175,3.28175,0,0,1-.90238,2.32984c-2.7377,3.52866-6.92535,1.8175-14.00277,4.83375-.05074.01935-.10143.04833-.15212.06768,1.28775,1.16979,1.39927,2.3299,4.78586,3.48995,4.6744,1.60484,8.57812,1.60484,1.56154,4.80478a59.637,59.637,0,0,1-10.84938,3.635c2.9912.76371,4.98867.522,6.41838,2.67785.27373.40608.88214,1.16011.6388,1.89485-.46644,1.37277-3.36635,1.03443-6.80369,1.79814-3.86318.86042-5.4551,2.4652-7.44248,3.64467a31.235,31.235,0,0,1,5.76943,2.55223c1.96708,1.1214,2.49436,1.61446,2.52481,2.20416.12167,2.05918-5.445,4.53406-10.677,5.41383,2.95059,1.35342,4.75547.58971,5.95193,2.50385a2.193,2.193,0,0,1,.42585,1.3438c-.10137.96675-1.2167,1.73046-2.87961,2.01085a96.84531,96.84531,0,0,0-9.298,2.79386c-.01015,0-.0203.00968-.03045.00968a9.11954,9.11954,0,0,1,2.00762-.22233c.49689.07735.53742.261,1.23706.609,2.91,1.44045,4.6338.61874,5.75928,2.31055.1622.24169.51713.68635.37516,1.1214-.27379.8121-1.98739.60906-4.00515,1.05379a8.86784,8.86784,0,0,0-3.09257,1.31476,3.48352,3.48352,0,0,1,.35486.78307,3.13114,3.13114,0,0,1,.25349,1.45012c-.1825,1.05373-1.31813.79274-2.64641,1.38245-1.49049.65738-2.10905,1.86582-2.87961,2.75521-.05075.64776-.09129,1.08275-.09129,1.08275-.01014,0-.63879.00968-1.25729,1.58549-.46645,1.15043.4056,1.58548.19265,2.17518-.11152.30937-.35492.3384-.83145.77339-1.96709,1.82717-.84161,2.9196-3.1534,3.62531a3.40389,3.40389,0,0,1-1.52094.24169c-1.10524-.174-.8213-1.25676-1.43987-2.5232-1.06464-2.20416-3.54885-2.41688-3.9747-4.23437-.2028-.88939.29409-1.19876.82131-2.4072q-.213-.04345-.4563-.116c-2.47406-.74442-5.18131-3.06458-5.12048-4.97879a1.86858,1.86858,0,0,1,.44615-1.1214c-2.94045-.80242-5.51594-2.16551-5.445-3.3353.0203-.41569.38531-.76371,1.76428-1.54677a27.14052,27.14052,0,0,1,6.28656-2.47488,8.20454,8.20454,0,0,0-1.60207-.51241c-4.654-1.0634-7.25992.98611-8.99381-.96675a3.72652,3.72652,0,0,1-.89229-2.90024c.36507-2.32017,3.61984-3.693,6.81383-4.53406a13.30925,13.30925,0,0,0-5.009-2.24287c-2.88982-.6477-5.33343-.35769-5.71874-1.51774-.2028-.60906.30418-1.24715.53743-1.59516,1.602-2.4072,4.06592-1.23747,8.22319-3.29665a7.03781,7.03781,0,0,0,.74017-.42532c-6.23581-1.03443-12.86714-3.98306-12.715-6.42891.04054-.7057.659-1.29547,3.00128-2.62959a32.384,32.384,0,0,1,3.45763-1.73046,13.23247,13.23247,0,0,0-1.28775-.59938c-6.29664-2.5039-10.02806-1.07307-12.47168-4.012a2.62138,2.62138,0,0,1-.81115-1.92382c.19265-1.39212,2.32194-2.48456,5.48549-2.8809a10.073,10.073,0,0,1,1.67306-2.02053,56.55728,56.55728,0,0,1-6.92536-2.83257C686.99881,651.73039,691.37912,651.73039,696.62133,649.79689Z"/>
        <path class="cls-1" d="M344.81608,628.45927c3.98236-1.5376,2.65231-3.0752,5.97352-4.62814,3.31352-1.553,3.31352-.75345,12.60061-2.29105a59.09769,59.09769,0,0,1,6.0274-.7611V610.77691h3.10592v10.02516h.0077c3.88242.29979,3.54415,1.41456,8.44908,2.27561,4.42828.77649,5.48923,0,9.22557.7688a23.6605,23.6605,0,0,1,7.6649,3.07519c2.69079.3844,4.50519,1.43,4.66661,2.76a2.67953,2.67953,0,0,1-.6842,1.85279c-2.07576,2.80613-5.2509,1.44534-10.6171,3.844-.03847.01539-.0769.03843-.11533.05382.97638.93026,1.06094,1.85283,3.6287,2.77535,3.54419,1.27623,6.50405,1.27623,1.184,3.82095a43.76275,43.76275,0,0,1-8.22615,2.89068c2.268.60734,3.78247.41514,4.86651,2.12954.20754.32293.66885.92257.48434,1.50686-.35366,1.09168-2.55241.82262-5.15865,1.43-2.92912.68424-4.13613,1.96042-5.643,2.89838a23.1337,23.1337,0,0,1,4.37447,2.02964c1.49147.89178,1.89126,1.28388,1.91434,1.75283.09225,1.63754-4.12849,3.60566-8.09546,4.3053,2.23718,1.07629,3.60566.46895,4.51284,1.99116a1.80141,1.80141,0,0,1,.32288,1.06864c-.07686.76879-.92252,1.37613-2.18336,1.59911a70.89888,70.89888,0,0,0-7.04986,2.22179c-.0077,0-.01539.0077-.02309.0077a6.60535,6.60535,0,0,1,1.52221-.17681c.37675.06151.40748.20759.938.48434,2.20645,1.1455,3.51341.49205,4.36677,1.83744.123.1922.39209.54582.28445.89179-.20759.64581-1.50686.48434-3.03676.838a6.56765,6.56765,0,0,0-2.34482,1.04555,2.837,2.837,0,0,1,.26906.62272,2.59726,2.59726,0,0,1,.1922,1.1532c-.13838.838-.99943.63042-2.00656,1.09938a6.24412,6.24412,0,0,0-2.18336,2.191c-.03847.51513-.06921.86105-.06921.86105-.00769,0-.48434.0077-.9533,1.26084-.35366.91487.30754,1.26084.14607,1.7298-.08455.246-.2691.2691-.63042.615-1.49147,1.453-.63811,2.32178-2.39095,2.883a2.47383,2.47383,0,0,1-1.15319.1922c-.838-.13838-.62273-.99943-1.09173-2.00655-.80723-1.75284-2.69079-1.922-3.01367-3.36734-.15377-.70728.223-.9533.62272-1.9143q-.16146-.03456-.346-.09225c-1.87587-.592-3.92854-2.43708-3.88242-3.95933a1.52878,1.52878,0,0,1,.33828-.89179c-2.22949-.63811-4.18227-1.7221-4.12845-2.65236.0154-.33058.29215-.60733,1.33771-1.23006a20.00935,20.00935,0,0,1,4.76655-1.96812,6.016,6.016,0,0,0-1.21471-.40748c-3.52876-.84566-5.50457.78419-6.81924-.7688a3.06034,3.06034,0,0,1-.67654-2.30639c.2768-1.84509,2.74461-2.93682,5.16634-3.60567a9.88,9.88,0,0,0-3.79786-1.78361c-2.1911-.51509-4.04388-.28446-4.336-1.207-.15377-.48434.23063-.99177.40749-1.26853,1.21466-1.9143,3.08284-.98408,6.23494-2.62163a5.283,5.283,0,0,0,.5612-.33822c-4.72808-.82262-9.756-3.16749-9.64071-5.11253.03074-.56121.49969-1.03021,2.27562-2.09115a24.11488,24.11488,0,0,1,2.62162-1.37613,9.82319,9.82319,0,0,0-.97639-.47665c-4.7742-1.99121-7.60342-.85336-9.4562-3.19053a2.13415,2.13415,0,0,1-.615-1.5299c.14608-1.10708,1.76053-1.97582,4.15918-2.291a7.95911,7.95911,0,0,1,1.26853-1.60681,41.76556,41.76556,0,0,1-5.2509-2.25257C337.52015,629.99686,340.84136,629.99686,344.81608,628.45927Z"/>
        <path class="cls-1" d="M373.03745,638.97981c6.12656-2.36547,4.08038-4.73094,9.1898-7.12,5.09758-2.38915,5.09758-1.15913,19.385-3.5246a90.915,90.915,0,0,1,9.27267-1.1709V611.77691h4.77823v15.42291h.01183c5.9728.46121,5.45239,2.17619,12.99825,3.50085,6.81256,1.19457,8.44474,0,14.19281,1.18273a36.39968,36.39968,0,0,1,11.79183,4.73094c4.13957.59137,6.93088,2.19987,7.1792,4.24605a4.12217,4.12217,0,0,1-1.05257,2.85036c-3.1934,4.317-8.0781,2.22354-16.33356,5.91367-.0592.02368-.11832.05912-.17744.0828,1.50209,1.43113,1.63218,2.85043,5.58247,4.26965,5.45246,1.96338,10.006,1.96338,1.82146,5.87823a67.32519,67.32519,0,0,1-12.65528,4.44709c3.48908.93434,5.819.63866,7.48673,3.27613.31929.4968,1.029,1.4193.74513,2.31819-.54408,1.67946-3.92669,1.26553-7.93617,2.19986-4.50622,1.05266-6.36312,3.016-8.68131,4.45894a35.58985,35.58985,0,0,1,6.72976,3.12243c2.29451,1.37194,2.90956,1.97515,2.94507,2.6966.14193,2.51923-6.35135,5.547-12.45422,6.62336,3.44172,1.65578,5.547.72145,6.94264,3.06324a2.77143,2.77143,0,0,1,.49673,1.644c-.11825,1.18273-1.41922,2.11707-3.35893,2.46011a109.07182,109.07182,0,0,0-10.84565,3.418c-.01184,0-.02368.01184-.03552.01184a10.16244,10.16244,0,0,1,2.34179-.272c.5796.09464.62689.31936,1.443.74512,3.39444,1.76227,5.4051.757,6.71792,2.82676.18921.29568.60321.83969.43761,1.37194-.31937.99353-2.31819.74513-4.67182,1.28921a10.10427,10.10427,0,0,0-3.60733,1.6085,4.363,4.363,0,0,1,.41393.958,3.99549,3.99549,0,0,1,.29569,1.77411c-.21289,1.28914-1.53754.96985-3.08692,1.6913-1.73859.80425-2.46011,2.28267-3.35893,3.37076-.05919.79249-.10648,1.32466-.10648,1.32466-.01184,0-.74513.01184-1.46658,1.9397-.54408,1.40746.47313,1.9397.22473,2.66115-.13009.37849-.414.414-.96985.94618-2.29451,2.23538-.98169,3.57188-3.67829,4.43525a3.80567,3.80567,0,0,1-1.7741.29568c-1.28922-.21288-.958-1.53754-1.67954-3.08692-1.24186-2.69659-4.13957-2.95683-4.6363-5.18038-.23656-1.08809.343-1.46658.958-2.945q-.2484-.05316-.53224-.14192c-2.88588-.91073-6.04376-3.74925-5.9728-6.09111a2.35187,2.35187,0,0,1,.52041-1.37194c-3.42989-.98169-6.43408-2.64931-6.35128-4.08045.02368-.50857.44945-.93433,2.058-1.89234a30.78223,30.78223,0,0,1,7.333-3.0278,9.25613,9.25613,0,0,0-1.86874-.62689c-5.42871-1.301-8.46835,1.20642-10.49085-1.18273a4.70807,4.70807,0,0,1-1.04081-3.5482c.42583-2.83852,4.22237-4.51806,7.948-5.547a15.19967,15.19967,0,0,0-5.84271-2.744c-3.37084-.79242-6.2212-.43761-6.67064-1.85683-.23656-.74513.3548-1.52578.62688-1.95154,1.86867-2.945,4.74271-1.51394,9.592-4.03317a8.12587,8.12587,0,0,0,.86337-.52033c-7.27377-1.26554-15.0089-4.87294-14.83146-7.86522.04728-.86337.76873-1.58489,3.50085-3.21707a37.10138,37.10138,0,0,1,4.03316-2.11707,15.11463,15.11463,0,0,0-1.50209-.73329c-7.34474-3.06332-11.69727-1.31282-14.54762-4.90838a3.28315,3.28315,0,0,1-.94618-2.35363c.22473-1.70314,2.70844-3.03963,6.39856-3.52452a12.24458,12.24458,0,0,1,1.95155-2.47195,64.25608,64.25608,0,0,1-8.0781-3.4654C361.81324,641.34528,366.92266,641.34528,373.03745,638.97981Z"/>
        <path class="cls-1" d="M419.81133,633.92981c5.17341-1.99746,3.44556-3.99492,7.76008-6.01231,4.30452-2.01746,4.30452-.9788,16.36919-2.97626a76.77231,76.77231,0,0,1,7.83007-.98873V610.959h4.03484V623.9825h.01c5.04357.38946,4.60413,1.83763,10.976,2.9562,5.75269,1.00873,7.13094,0,11.98475.99873a30.73648,30.73648,0,0,1,9.9573,3.99492c3.49556.49936,5.85261,1.85762,6.0623,3.58546a3.48089,3.48089,0,0,1-.88882,2.40691c-2.69659,3.64539-6.82134,1.87762-13.79245,4.99365-.05.02-.09991.04993-.14984.06992,1.26841,1.20848,1.37825,2.407,4.714,3.6054,4.60418,1.65792,8.44927,1.65792,1.53808,4.96372a56.85114,56.85114,0,0,1-10.68642,3.75523c2.94626.789,4.91373.53929,6.322,2.76644.26962.41951.86889,1.19848.62921,1.95753-.45944,1.41818-3.31579,1.06865-6.7015,1.85762-3.80515.88888-5.37317,2.54675-7.3307,3.76523a30.05372,30.05372,0,0,1,5.68277,2.63666c1.93754,1.1585,2.4569,1.66786,2.48689,2.27707.11984,2.1273-5.36323,4.68405-10.51665,5.59292,2.90628,1.39819,4.684.60921,5.86254,2.58668a2.34026,2.34026,0,0,1,.41945,1.38825c-.09985.99873-1.19843,1.7877-2.83636,2.07737a92.10447,92.10447,0,0,0-9.15833,2.88628c-.01,0-.02.01-.03.01a8.58193,8.58193,0,0,1,1.97746-.22969c.48943.07992.52936.26968,1.21848.62921,2.86635,1.48809,4.5642.6392,5.67278,2.387.15977.24969.50936.70906.36952,1.1585-.26967.839-1.95753.62921-3.945,1.08865a8.532,8.532,0,0,0-3.04611,1.35825,3.68516,3.68516,0,0,1,.34953.809,3.37384,3.37384,0,0,1,.24968,1.4981c-.17976,1.08858-1.29833.819-2.60667,1.42817-1.4681.67913-2.07737,1.92754-2.83635,2.84636-.05.66919-.08992,1.11857-.08992,1.11857-.01,0-.6292.01-1.23841,1.63793-.45944,1.18849.39951,1.63793.18976,2.24714-.10985.3196-.34959.34959-.819.799-1.93753,1.88762-.829,3.01618-3.106,3.74524a3.21377,3.21377,0,0,1-1.49809.24968c-1.08865-.17976-.809-1.29834-1.41824-2.60667-1.04866-2.27707-3.49556-2.49682-3.915-4.37444-.19975-.91881.28967-1.23841.809-2.48683q-.20976-.04489-.44944-.11984c-2.4369-.769-5.10349-3.16595-5.04357-5.14348a1.986,1.986,0,0,1,.43944-1.1585c-2.89628-.829-5.43309-2.23714-5.36317-3.44563.02-.42944.37952-.789,1.73778-1.59794a25.99384,25.99384,0,0,1,6.19213-2.55675,7.81607,7.81607,0,0,0-1.578-.52935c-4.58414-1.09858-7.15088,1.01872-8.85873-.99873a3.97566,3.97566,0,0,1-.87889-2.99619c.35959-2.39691,3.56547-3.81515,6.7115-4.684a12.835,12.835,0,0,0-4.93373-2.31706c-2.84641-.66913-5.25333-.36953-5.63285-1.56795-.19976-.62921.29961-1.2884.52936-1.64793,1.57795-2.48683,4.00485-1.2784,8.09968-3.4057a6.86047,6.86047,0,0,0,.72905-.43939c-6.14215-1.06864-12.67388-4.11482-12.524-6.64157.03992-.72905.64913-1.33833,2.9562-2.71658a31.32934,31.32934,0,0,1,3.4057-1.7877,12.76428,12.76428,0,0,0-1.26841-.61921c-6.20207-2.58673-9.87745-1.10857-12.28436-4.14475a2.77239,2.77239,0,0,1-.799-1.98746c.18976-1.43817,2.28707-2.56674,5.4031-2.9762a10.33974,10.33974,0,0,1,1.64793-2.08737,54.25813,54.25813,0,0,1-6.82134-2.92627C410.33333,635.92727,414.64785,635.92727,419.81133,633.92981Z"/>
        <path class="cls-1" d="M441.94733,626.56767c7.02947-2.58772,4.68173-5.17544,10.54417-7.789,5.84885-2.61362,5.84885-1.268,22.242-3.85575,4.60039-.72456,7.88441-1.12566,10.63925-1.28091V596.80888h5.48243v16.872h.01358c6.853.50455,6.25595,2.38066,14.91389,3.82978,7.81659,1.30681,9.68931,0,16.28452,1.29386A42.92144,42.92144,0,0,1,535.59682,623.98c4.74965.64693,7.95233,2.40656,8.23726,4.645a4.39215,4.39215,0,0,1-1.20771,3.11817c-3.664,4.72262-9.26863,2.43246-18.74076,6.4693-.06792.0259-.13576.06468-.20359.09058,1.72347,1.5656,1.87272,3.11825,6.4052,4.67082,6.256,2.14785,11.48062,2.14785,2.0899,6.43052a79.81488,79.81488,0,0,1-14.52038,4.86493c4.0033,1.02212,6.67663.69866,8.59011,3.58394.36635.54348,1.18062,1.55265.85494,2.536-.62427,1.83726-4.50539,1.38444-9.10579,2.40657-5.17033,1.15155-7.3009,3.29932-9.96073,4.87787a41.80373,41.80373,0,0,1,7.72158,3.41581c2.63267,1.50085,3.33836,2.16073,3.37911,2.95.16283,2.75593-7.2874,6.06821-14.28971,7.24567,3.949,1.81136,6.36454.78923,7.96584,3.351a2.9351,2.9351,0,0,1,.56993,1.79849c-.13567,1.29386-1.62838,2.316-3.85395,2.69125a129.61224,129.61224,0,0,0-12.44407,3.73919c-.01358,0-.02716.013-.04075.013a12.20585,12.20585,0,0,1,2.68692-.29757c.665.10353.71927.34937,1.65564.81514,3.8947,1.92784,6.20169.82809,7.708,3.09235.21709.32346.69211.91859.5021,1.50084-.36643,1.08688-2.65983.81514-5.36034,1.41034a11.8685,11.8685,0,0,0-4.139,1.75963,4.66206,4.66206,0,0,1,.47493,1.048,4.19077,4.19077,0,0,1,.33926,1.94079c-.24426,1.41026-1.76414,1.061-3.54186,1.85021-1.99481.87981-2.82267,2.49714-3.854,3.68747-.06792.86694-.12217,1.44911-.12217,1.44911-.01358,0-.85494.013-1.68272,2.12195-.62427,1.5397.54285,2.12195.25784,2.91119-.14925.414-.475.4529-1.11278,1.03507-2.63267,2.44542-1.12637,3.90749-4.22039,4.852a4.55554,4.55554,0,0,1-2.03556.32346c-1.47922-.23288-1.0992-1.682-1.92706-3.377-1.42488-2.95-4.74965-3.23465-5.31959-5.66712-.27142-1.19033.3936-1.60437,1.0992-3.2217q-.285-.05815-.61068-.15525c-3.31119-.9963-6.93448-4.10152-6.85306-6.66341a2.50092,2.50092,0,0,1,.59711-1.50085c-3.93538-1.07392-7.38232-2.89823-7.28732-4.46383.02717-.55635.51568-1.02212,2.36124-2.07015a36.32465,36.32465,0,0,1,8.41369-3.31228,10.98029,10.98029,0,0,0-2.14415-.68578c-6.22879-1.42321-9.7164,1.31976-12.037-1.29386a4.9875,4.9875,0,0,1-1.19421-3.88158c.4886-3.10522,4.84466-4.94256,9.11938-6.06821a17.81266,17.81266,0,0,0-6.7038-3.00176c-3.86762-.86687-7.13806-.47873-7.65374-2.03129-.27143-.81514.40709-1.66913.71927-2.13491,2.14407-3.22169,5.44167-1.65617,11.0056-4.4121a9.42276,9.42276,0,0,0,.99062-.56923c-8.34577-1.38444-17.22089-5.33077-17.0173-8.6042.05425-.94449.882-1.73381,4.0168-3.51934a43.341,43.341,0,0,1,4.62756-2.316,17.71,17.71,0,0,0-1.72347-.80219c-8.42719-3.35113-13.42118-1.43616-16.69162-5.36955a3.50834,3.50834,0,0,1-1.08561-2.57477c.25784-1.86316,3.1076-3.32523,7.34156-3.85568a13.48184,13.48184,0,0,1,2.23916-2.7042,75.69313,75.69313,0,0,1-9.26863-3.791C429.06892,629.15539,434.93135,629.15539,441.94733,626.56767Z"/>
        <path class="cls-1" d="M500.22005,643.79689c5.2523-1.9335,3.4981-3.867,7.87841-5.81979,4.37016-1.95285,4.37016-.94745,16.61881-2.88095,3.43733-.54138,5.89109-.84107,7.94946-.95708V621.56165h4.09637V634.1681h.01015c5.12048.377,4.67434,1.77879,11.1434,2.86155,5.84041.97642,7.23968,0,12.16751.96675a32.07024,32.07024,0,0,1,10.10914,3.867c3.54885.48338,5.94184,1.79814,6.15473,3.47066a3.28174,3.28174,0,0,1-.90237,2.32984c-2.7377,3.52866-6.92536,1.8175-14.00277,4.83375-.05075.01935-.10143.04833-.15212.06768,1.28775,1.16979,1.39927,2.3299,4.78586,3.48995,4.67439,1.60484,8.57811,1.60484,1.56153,4.80478a59.63667,59.63667,0,0,1-10.84937,3.635c2.99119.76371,4.98866.522,6.41838,2.67785.27372.40608.88214,1.16011.6388,1.89485-.46645,1.37277-3.36635,1.03443-6.80369,1.79814-3.86318.86042-5.4551,2.4652-7.44249,3.64467a31.23442,31.23442,0,0,1,5.76943,2.55223c1.96709,1.1214,2.49436,1.61446,2.52481,2.20416.12167,2.05918-5.445,4.53406-10.677,5.41383,2.95059,1.35342,4.75547.58971,5.95193,2.50385a2.193,2.193,0,0,1,.42584,1.3438c-.10137.96675-1.2167,1.73046-2.8796,2.01085a96.84657,96.84657,0,0,0-9.298,2.79386c-.01015,0-.0203.00968-.03045.00968a9.11954,9.11954,0,0,1,2.00762-.22233c.49689.07735.53743.261,1.23706.609,2.91006,1.44045,4.6338.61874,5.75928,2.31055.16221.24169.51713.68635.37516,1.1214-.27379.8121-1.98738.60906-4.00515,1.05379a8.86787,8.86787,0,0,0-3.09256,1.31476,3.48352,3.48352,0,0,1,.35486.78307,3.13139,3.13139,0,0,1,.25349,1.45012c-.18251,1.05373-1.31813.79274-2.64642,1.38245-1.49049.65738-2.10905,1.86582-2.87961,2.75521-.05074.64776-.09128,1.08275-.09128,1.08275-.01015,0-.6388.00968-1.2573,1.58549-.46644,1.15043.40561,1.58548.19266,2.17518-.11153.30937-.35493.3384-.83146.77339-1.96708,1.82717-.8416,2.9196-3.1534,3.62531a3.40382,3.40382,0,0,1-1.52093.24169c-1.10525-.174-.82131-1.25676-1.43987-2.5232-1.06464-2.20416-3.54886-2.41688-3.9747-4.23437-.20281-.88939.29409-1.19876.8213-2.4072q-.213-.04345-.45629-.116c-2.47406-.74442-5.18132-3.06458-5.12048-4.97879a1.86862,1.86862,0,0,1,.44614-1.1214c-2.94044-.80242-5.51594-2.16551-5.44495-3.3353.0203-.41569.38531-.76371,1.76428-1.54677a27.14035,27.14035,0,0,1,6.28656-2.47488,8.20444,8.20444,0,0,0-1.60208-.51241c-4.654-1.0634-7.25992.98611-8.99381-.96675a3.72656,3.72656,0,0,1-.89229-2.90024c.36508-2.32017,3.61984-3.693,6.81384-4.53406a13.30925,13.30925,0,0,0-5.009-2.24287c-2.88982-.6477-5.33343-.35769-5.71874-1.51774-.20281-.60906.30417-1.24715.53742-1.59516,1.602-2.4072,4.06593-1.23747,8.2232-3.29665a7.0399,7.0399,0,0,0,.74017-.42532c-6.23581-1.03443-12.86714-3.98306-12.715-6.42891.04054-.7057.659-1.29547,3.00128-2.62959a32.3851,32.3851,0,0,1,3.45764-1.73046,13.23477,13.23477,0,0,0-1.28775-.59938c-6.29664-2.5039-10.02807-1.07307-12.47168-4.012a2.62138,2.62138,0,0,1-.81116-1.92382c.19266-1.39212,2.32195-2.48456,5.48549-2.8809a10.07342,10.07342,0,0,1,1.67306-2.02053,56.55728,56.55728,0,0,1-6.92536-2.83257C490.59752,645.73039,494.97783,645.73039,500.22005,643.79689Z"/>
        <path class="cls-1" d="M177.81608,648.45927c3.98236-1.5376,2.65231-3.0752,5.97352-4.62814,3.31352-1.553,3.31352-.75345,12.60061-2.29105a59.09769,59.09769,0,0,1,6.0274-.7611V630.77691h3.10592v10.02516h.0077c3.88242.29979,3.54415,1.41456,8.44908,2.27561,4.42828.77649,5.48923,0,9.22557.7688a23.6605,23.6605,0,0,1,7.6649,3.07519c2.69079.3844,4.50519,1.43,4.66661,2.76a2.67953,2.67953,0,0,1-.6842,1.85279c-2.07576,2.80613-5.2509,1.44534-10.6171,3.844-.03847.01539-.0769.03843-.11533.05382.97638.93026,1.06094,1.85283,3.6287,2.77535,3.54419,1.27623,6.50405,1.27623,1.184,3.82095a43.76275,43.76275,0,0,1-8.22615,2.89068c2.268.60734,3.78247.41514,4.86651,2.12954.20754.32293.66885.92257.48434,1.50686-.35366,1.09168-2.55241.82262-5.15865,1.43-2.92912.68424-4.13613,1.96042-5.643,2.89838a23.1337,23.1337,0,0,1,4.37447,2.02964c1.49147.89178,1.89126,1.28388,1.91434,1.75283.09225,1.63754-4.12849,3.60566-8.09546,4.3053,2.23718,1.07629,3.60566.46895,4.51284,1.99116a1.80141,1.80141,0,0,1,.32288,1.06864c-.07686.76879-.92252,1.37613-2.18336,1.59911a70.89888,70.89888,0,0,0-7.04986,2.22179c-.0077,0-.01539.0077-.02309.0077a6.60535,6.60535,0,0,1,1.52221-.17681c.37675.06151.40748.20759.938.48434,2.20645,1.1455,3.51341.49205,4.36677,1.83744.123.1922.39209.54582.28445.89179-.20759.64581-1.50686.48434-3.03676.838a6.56765,6.56765,0,0,0-2.34482,1.04555,2.837,2.837,0,0,1,.26906.62272,2.59726,2.59726,0,0,1,.1922,1.1532c-.13838.838-.99943.63042-2.00656,1.09938a6.24412,6.24412,0,0,0-2.18336,2.191c-.03847.51513-.06921.86105-.06921.86105-.00769,0-.48434.0077-.9533,1.26084-.35366.91487.30754,1.26084.14607,1.7298-.08455.246-.2691.2691-.63042.615-1.49147,1.453-.63811,2.32178-2.391,2.883a2.47383,2.47383,0,0,1-1.15319.1922c-.838-.13838-.62273-.99943-1.09173-2.00655-.80723-1.75284-2.69079-1.922-3.01367-3.36734-.15377-.70728.223-.9533.62272-1.9143q-.16146-.03456-.346-.09225c-1.87587-.592-3.92854-2.43708-3.88242-3.95933a1.52878,1.52878,0,0,1,.33828-.89179c-2.22949-.63811-4.18227-1.7221-4.12845-2.65236.0154-.33058.29215-.60733,1.33771-1.23006a20.00935,20.00935,0,0,1,4.76655-1.96812,6.016,6.016,0,0,0-1.21471-.40748c-3.52876-.84566-5.50457.78419-6.81924-.7688a3.06034,3.06034,0,0,1-.67654-2.30639c.2768-1.84509,2.74461-2.93682,5.16634-3.60567a9.88,9.88,0,0,0-3.79786-1.78361c-2.1911-.51509-4.04388-.28446-4.336-1.207-.15377-.48434.23063-.99177.40749-1.26853,1.21466-1.9143,3.08284-.98408,6.23494-2.62163a5.283,5.283,0,0,0,.5612-.33822c-4.72808-.82262-9.756-3.16749-9.64071-5.11253.03074-.56121.49969-1.03021,2.27562-2.09115a24.11488,24.11488,0,0,1,2.62162-1.37613,9.82319,9.82319,0,0,0-.97639-.47665c-4.7742-1.99121-7.60342-.85336-9.4562-3.19053a2.13415,2.13415,0,0,1-.615-1.5299c.14608-1.10708,1.76053-1.97582,4.15918-2.291a7.95911,7.95911,0,0,1,1.26853-1.60681,41.76556,41.76556,0,0,1-5.2509-2.25257C170.52015,649.99686,173.84136,649.99686,177.81608,648.45927Z"/>
        <path class="cls-1" d="M206.03745,658.97981c6.12656-2.36547,4.08038-4.73094,9.1898-7.12,5.09758-2.38915,5.09758-1.15913,19.385-3.5246a90.915,90.915,0,0,1,9.27267-1.1709V631.77691h4.77823v15.42291h.01183c5.9728.46121,5.45239,2.17619,12.99825,3.50085,6.81256,1.19457,8.44474,0,14.19281,1.18273a36.39968,36.39968,0,0,1,11.79183,4.73094c4.13957.59137,6.93088,2.19987,7.1792,4.24605a4.12217,4.12217,0,0,1-1.05257,2.85036c-3.1934,4.317-8.0781,2.22354-16.33356,5.91367-.0592.02368-.11832.05912-.17744.0828,1.50209,1.43113,1.63218,2.85043,5.58247,4.26965,5.45246,1.96338,10.006,1.96338,1.82146,5.87823a67.32519,67.32519,0,0,1-12.65528,4.44709c3.48908.93434,5.819.63866,7.48673,3.27613.31929.4968,1.029,1.4193.74513,2.31819-.54408,1.67946-3.92669,1.26553-7.93617,2.19986-4.50622,1.05266-6.36312,3.016-8.68131,4.45894a35.58985,35.58985,0,0,1,6.72976,3.12243c2.29451,1.37194,2.90956,1.97515,2.94507,2.6966.14193,2.51923-6.35135,5.547-12.45422,6.62336,3.44172,1.65578,5.547.72145,6.94264,3.06324a2.77143,2.77143,0,0,1,.49673,1.644c-.11825,1.18273-1.41922,2.11707-3.35893,2.46011a109.07182,109.07182,0,0,0-10.84565,3.418c-.01184,0-.02368.01184-.03552.01184a10.16244,10.16244,0,0,1,2.34179-.272c.5796.09464.62689.31936,1.443.74512,3.39444,1.76227,5.4051.757,6.71792,2.82676.18921.29568.60321.83969.43761,1.37194-.31937.99353-2.31819.74513-4.67182,1.28921a10.10427,10.10427,0,0,0-3.60733,1.6085,4.363,4.363,0,0,1,.41393.958,3.99549,3.99549,0,0,1,.29569,1.77411c-.21289,1.28914-1.53754.96985-3.08692,1.6913-1.73859.80425-2.46011,2.28267-3.35893,3.37076-.05919.79249-.10648,1.32466-.10648,1.32466-.01184,0-.74513.01184-1.46658,1.9397-.54408,1.40746.47313,1.9397.22473,2.66115-.13009.37849-.414.414-.96985.94618-2.29451,2.23538-.98169,3.57188-3.67829,4.43525a3.80567,3.80567,0,0,1-1.7741.29568c-1.28922-.21288-.958-1.53754-1.67954-3.08692-1.24186-2.69659-4.13957-2.95683-4.6363-5.18038-.23656-1.08809.343-1.46658.958-2.945q-.2484-.05316-.53224-.14192c-2.88588-.91073-6.04376-3.74925-5.9728-6.09111a2.35187,2.35187,0,0,1,.52041-1.37194c-3.42989-.98169-6.43408-2.64931-6.35128-4.08045.02368-.50857.44945-.93433,2.05795-1.89234a30.78223,30.78223,0,0,1,7.333-3.0278,9.25613,9.25613,0,0,0-1.86874-.62689c-5.42871-1.301-8.46835,1.20642-10.49085-1.18273a4.70807,4.70807,0,0,1-1.04081-3.5482c.42583-2.83852,4.22237-4.51806,7.948-5.547a15.19967,15.19967,0,0,0-5.84271-2.744c-3.37084-.79242-6.2212-.43761-6.67064-1.85683-.23656-.74513.3548-1.52578.62688-1.95154,1.86867-2.945,4.74271-1.51394,9.592-4.03317a8.12587,8.12587,0,0,0,.86337-.52033c-7.27377-1.26554-15.0089-4.87294-14.83146-7.86522.04728-.86337.76873-1.58489,3.50085-3.21707a37.10138,37.10138,0,0,1,4.03316-2.11707,15.11463,15.11463,0,0,0-1.50209-.73329c-7.34474-3.06332-11.69727-1.31282-14.54762-4.90838a3.28315,3.28315,0,0,1-.94618-2.35363c.22473-1.70314,2.70844-3.03963,6.39856-3.52452a12.24458,12.24458,0,0,1,1.95155-2.47195,64.25608,64.25608,0,0,1-8.0781-3.4654C194.81324,661.34528,199.92266,661.34528,206.03745,658.97981Z"/>
        <path class="cls-1" d="M252.81133,653.92981c5.17341-1.99746,3.44556-3.99492,7.76008-6.01231,4.30452-2.01746,4.30452-.9788,16.36919-2.97626a76.77231,76.77231,0,0,1,7.83007-.98873V630.959h4.03484V643.9825h.01c5.04357.38946,4.60413,1.83763,10.976,2.9562,5.75269,1.00873,7.13094,0,11.98475.99873a30.73648,30.73648,0,0,1,9.9573,3.99492c3.49556.49936,5.85261,1.85762,6.0623,3.58546a3.48089,3.48089,0,0,1-.88882,2.40691c-2.69659,3.64539-6.82134,1.87762-13.79245,4.99365-.05.02-.09991.04993-.14984.06992,1.26841,1.20848,1.37825,2.407,4.714,3.6054,4.60418,1.65792,8.44927,1.65792,1.53808,4.96372a56.85114,56.85114,0,0,1-10.68642,3.75523c2.94626.789,4.91373.53929,6.322,2.76644.26962.41951.86889,1.19848.62921,1.95753-.45944,1.41818-3.31579,1.06865-6.7015,1.85762-3.80515.88888-5.37317,2.54675-7.3307,3.76523a30.05372,30.05372,0,0,1,5.68277,2.63666c1.93754,1.1585,2.4569,1.66786,2.48689,2.27707.11984,2.1273-5.36323,4.68405-10.51665,5.59292,2.90628,1.39819,4.684.60921,5.86254,2.58668a2.34026,2.34026,0,0,1,.41945,1.38825c-.09985.99873-1.19843,1.7877-2.83636,2.07737a92.10447,92.10447,0,0,0-9.15833,2.88628c-.01,0-.02.01-.03.01a8.58193,8.58193,0,0,1,1.97746-.22969c.48943.07992.52936.26968,1.21848.62921,2.86635,1.48809,4.5642.6392,5.67278,2.387.15977.24969.50936.70906.36952,1.1585-.26967.839-1.95753.62921-3.945,1.08865a8.532,8.532,0,0,0-3.04611,1.35825,3.68516,3.68516,0,0,1,.34953.809,3.37384,3.37384,0,0,1,.24968,1.4981c-.17976,1.08858-1.29833.819-2.60667,1.42817-1.4681.67913-2.07737,1.92754-2.83635,2.84636-.05.66919-.08992,1.11857-.08992,1.11857-.01,0-.6292.01-1.23841,1.63793-.45944,1.18849.39951,1.63793.18976,2.24714-.10985.3196-.34959.34959-.819.799-1.93753,1.88762-.829,3.01618-3.106,3.74524a3.21377,3.21377,0,0,1-1.49809.24968c-1.08865-.17976-.809-1.29834-1.41824-2.60667-1.04866-2.27707-3.49556-2.49682-3.915-4.37444-.19975-.91881.28967-1.23841.809-2.48683q-.20976-.04489-.44944-.11984c-2.4369-.769-5.10349-3.16595-5.04357-5.14348a1.986,1.986,0,0,1,.43944-1.1585c-2.89628-.829-5.43309-2.23714-5.36317-3.44563.02-.42944.37952-.789,1.73778-1.59794a25.99384,25.99384,0,0,1,6.19213-2.55675,7.81607,7.81607,0,0,0-1.578-.52935c-4.58414-1.09858-7.15088,1.01872-8.85873-.99873a3.97566,3.97566,0,0,1-.87889-2.99619c.35959-2.39691,3.56547-3.81515,6.7115-4.684a12.835,12.835,0,0,0-4.93373-2.31706c-2.84641-.66913-5.25333-.36953-5.63285-1.56795-.19976-.62921.29961-1.2884.52936-1.64793,1.57795-2.48683,4.00485-1.2784,8.09968-3.4057a6.86047,6.86047,0,0,0,.72905-.43939c-6.14215-1.06864-12.67388-4.11482-12.524-6.64157.03992-.72905.64913-1.33833,2.9562-2.71658a31.32934,31.32934,0,0,1,3.4057-1.7877,12.76428,12.76428,0,0,0-1.26841-.61921c-6.20207-2.58673-9.87745-1.10857-12.28436-4.14475a2.77239,2.77239,0,0,1-.799-1.98746c.18976-1.43817,2.28707-2.56674,5.4031-2.9762a10.33974,10.33974,0,0,1,1.64793-2.08737,54.25813,54.25813,0,0,1-6.82134-2.92627C243.33333,655.92727,247.64785,655.92727,252.81133,653.92981Z"/>
        <path class="cls-1" d="M274.94733,646.56767c7.02947-2.58772,4.68173-5.17544,10.54417-7.789,5.84885-2.61362,5.84885-1.268,22.242-3.85575,4.60039-.72456,7.88441-1.12566,10.63925-1.28091V616.80888h5.48243v16.872h.01358c6.853.50455,6.25595,2.38066,14.91389,3.82978,7.81659,1.30681,9.68931,0,16.28452,1.29386A42.92144,42.92144,0,0,1,368.59682,643.98c4.74965.64693,7.95233,2.40656,8.23726,4.645a4.39215,4.39215,0,0,1-1.20771,3.11817c-3.664,4.72262-9.26863,2.43246-18.74076,6.4693-.06792.0259-.13576.06468-.20359.09058,1.72347,1.5656,1.87272,3.11825,6.4052,4.67082,6.256,2.14785,11.48062,2.14785,2.0899,6.43052a79.81488,79.81488,0,0,1-14.52038,4.86493c4.0033,1.02212,6.67663.69866,8.59011,3.58394.36635.54348,1.18062,1.55265.85494,2.536-.62427,1.83726-4.50539,1.38444-9.10579,2.40657-5.17033,1.15155-7.3009,3.29932-9.96073,4.87787a41.80373,41.80373,0,0,1,7.72158,3.41581c2.63267,1.50085,3.33836,2.16073,3.37911,2.95.16283,2.75593-7.2874,6.06821-14.28971,7.24567,3.949,1.81136,6.36454.78923,7.96584,3.351a2.9351,2.9351,0,0,1,.56993,1.79849c-.13567,1.29386-1.62838,2.316-3.85395,2.69125a129.61224,129.61224,0,0,0-12.44407,3.73919c-.01358,0-.02716.013-.04075.013a12.20585,12.20585,0,0,1,2.68692-.29757c.665.10353.71927.34937,1.65564.81514,3.8947,1.92784,6.20169.82809,7.708,3.09235.21709.32346.69211.91859.5021,1.50084-.36643,1.08688-2.65983.81514-5.36034,1.41034a11.8685,11.8685,0,0,0-4.139,1.75963,4.66206,4.66206,0,0,1,.47493,1.048,4.19077,4.19077,0,0,1,.33926,1.94079c-.24426,1.41026-1.76414,1.061-3.54186,1.85021-1.99481.87981-2.82267,2.49714-3.854,3.68747-.06792.86694-.12217,1.44911-.12217,1.44911-.01358,0-.85494.013-1.68272,2.12195-.62427,1.5397.54285,2.12195.25784,2.91119-.14925.414-.475.4529-1.11278,1.03507-2.63267,2.44542-1.12637,3.90749-4.22039,4.852a4.55554,4.55554,0,0,1-2.03556.32346c-1.47922-.23288-1.0992-1.682-1.92706-3.377-1.42488-2.95-4.74965-3.23465-5.31959-5.66712-.27142-1.19033.3936-1.60437,1.0992-3.2217q-.285-.05815-.61068-.15525c-3.31119-.9963-6.93448-4.10152-6.85306-6.66341a2.50092,2.50092,0,0,1,.59711-1.50085c-3.93538-1.07392-7.38232-2.89823-7.28732-4.46383.02717-.55635.51568-1.02212,2.36124-2.07015a36.32465,36.32465,0,0,1,8.41369-3.31228,10.98029,10.98029,0,0,0-2.14415-.68578c-6.22879-1.42321-9.7164,1.31976-12.037-1.29386a4.9875,4.9875,0,0,1-1.19421-3.88158c.4886-3.10522,4.84466-4.94256,9.11938-6.06821a17.81266,17.81266,0,0,0-6.7038-3.00176c-3.86762-.86687-7.13806-.47873-7.65374-2.03129-.27143-.81514.40709-1.66913.71927-2.13491,2.14407-3.22169,5.44167-1.65617,11.0056-4.4121a9.42276,9.42276,0,0,0,.99062-.56923c-8.34577-1.38444-17.22089-5.33077-17.0173-8.6042.05425-.94449.882-1.73381,4.0168-3.51934a43.341,43.341,0,0,1,4.62756-2.316,17.71,17.71,0,0,0-1.72347-.80219c-8.42719-3.35113-13.42118-1.43616-16.69162-5.36955a3.50834,3.50834,0,0,1-1.08561-2.57477c.25784-1.86316,3.1076-3.32523,7.34156-3.85568a13.48184,13.48184,0,0,1,2.23916-2.7042,75.69313,75.69313,0,0,1-9.26863-3.791C262.06892,649.15539,267.93135,649.15539,274.94733,646.56767Z"/>
        <path class="cls-1" d="M333.22005,663.79689c5.2523-1.9335,3.4981-3.867,7.87841-5.81979,4.37016-1.95285,4.37016-.94745,16.61881-2.88095,3.43733-.54138,5.89109-.84107,7.94946-.95708V641.56165h4.09637V654.1681h.01015c5.12048.377,4.67434,1.77879,11.1434,2.86155,5.84041.97642,7.23968,0,12.16751.96675a32.07024,32.07024,0,0,1,10.10914,3.867c3.54885.48338,5.94184,1.79814,6.15473,3.47066a3.28174,3.28174,0,0,1-.90237,2.32984c-2.7377,3.52866-6.92536,1.8175-14.00277,4.83375-.05075.01935-.10143.04833-.15212.06768,1.28775,1.16979,1.39927,2.3299,4.78586,3.48995,4.67439,1.60484,8.57811,1.60484,1.56153,4.80478a59.63667,59.63667,0,0,1-10.84937,3.635c2.99119.76371,4.98866.522,6.41838,2.67785.27372.40608.88214,1.16011.6388,1.89485-.46645,1.37277-3.36635,1.03443-6.80369,1.79814-3.86318.86042-5.4551,2.4652-7.44249,3.64467a31.23442,31.23442,0,0,1,5.76943,2.55223c1.96709,1.1214,2.49436,1.61446,2.52481,2.20416.12167,2.05918-5.445,4.53406-10.677,5.41383,2.95059,1.35342,4.75547.58971,5.95193,2.50385a2.193,2.193,0,0,1,.42584,1.3438c-.10137.96675-1.2167,1.73046-2.8796,2.01085a96.84657,96.84657,0,0,0-9.298,2.79386c-.01015,0-.0203.00968-.03045.00968a9.11954,9.11954,0,0,1,2.00762-.22233c.49689.07735.53743.261,1.23706.609,2.91006,1.44045,4.6338.61874,5.75928,2.31055.16221.24169.51713.68635.37516,1.1214-.27379.8121-1.98738.60906-4.00515,1.05379a8.86787,8.86787,0,0,0-3.09256,1.31476,3.48352,3.48352,0,0,1,.35486.78307,3.13139,3.13139,0,0,1,.25349,1.45012c-.18251,1.05373-1.31813.79274-2.64642,1.38245-1.49049.65738-2.109,1.86582-2.87961,2.75521-.05074.64776-.09128,1.08275-.09128,1.08275-.01015,0-.6388.00968-1.2573,1.58549-.46644,1.15043.40561,1.58548.19266,2.17518-.11153.30937-.35493.3384-.83146.77339-1.96708,1.82717-.8416,2.9196-3.1534,3.62531a3.40382,3.40382,0,0,1-1.52093.24169c-1.10525-.174-.82131-1.25676-1.43987-2.5232-1.06464-2.20416-3.54886-2.41688-3.9747-4.23437-.20281-.88939.29409-1.19876.8213-2.4072q-.213-.04345-.45629-.116c-2.47406-.74442-5.18132-3.06458-5.12048-4.97879a1.86862,1.86862,0,0,1,.44614-1.1214c-2.94044-.80242-5.51594-2.16551-5.445-3.3353.0203-.41569.38531-.76371,1.76428-1.54677a27.14035,27.14035,0,0,1,6.28656-2.47488,8.20444,8.20444,0,0,0-1.60208-.51241c-4.654-1.0634-7.25992.98611-8.99381-.96675a3.72656,3.72656,0,0,1-.89229-2.90024c.36508-2.32017,3.61984-3.693,6.81384-4.53406a13.30925,13.30925,0,0,0-5.009-2.24287c-2.88982-.6477-5.33343-.35769-5.71874-1.51774-.20281-.60906.30417-1.24715.53742-1.59516,1.602-2.4072,4.06593-1.23747,8.2232-3.29665a7.0399,7.0399,0,0,0,.74017-.42532c-6.23581-1.03443-12.86714-3.98306-12.715-6.42891.04054-.7057.659-1.29547,3.00128-2.62959a32.3851,32.3851,0,0,1,3.45764-1.73046,13.23477,13.23477,0,0,0-1.28775-.59938c-6.29664-2.5039-10.02807-1.07307-12.47168-4.012a2.62138,2.62138,0,0,1-.81116-1.92382c.19266-1.39212,2.32195-2.48456,5.48549-2.8809a10.07342,10.07342,0,0,1,1.67306-2.02053,56.55728,56.55728,0,0,1-6.92536-2.83257C323.59752,665.73039,327.97783,665.73039,333.22005,663.79689Z"/>
        <path class="cls-1" d="M359.78264,632.45927c-3.98237-1.5376-2.65232-3.0752-5.97353-4.62814-3.31352-1.553-3.31352-.75345-12.60061-2.29105a59.09722,59.09722,0,0,0-6.02739-.7611V614.77691h-3.10593v10.02516h-.00769c-3.88242.29979-3.54415,1.41456-8.44909,2.27561-4.42828.77649-5.48922,0-9.22557.7688a23.66033,23.66033,0,0,0-7.66489,3.07519c-2.69079.3844-4.50519,1.43-4.66661,2.76a2.67952,2.67952,0,0,0,.68419,1.85279c2.07577,2.80613,5.25091,1.44534,10.6171,3.844.03848.01539.07691.03843.11534.05382-.97639.93026-1.06095,1.85283-3.6287,2.77535-3.5442,1.27623-6.50405,1.27623-1.184,3.82095a43.76268,43.76268,0,0,0,8.22614,2.89068c-2.268.60734-3.78247.41514-4.8665,2.12954-.20754.32293-.66885.92257-.48435,1.50686.35367,1.09168,2.55242.82262,5.15865,1.43,2.92912.68424,4.13614,1.96042,5.643,2.89838a23.13336,23.13336,0,0,0-4.37446,2.02964c-1.49147.89178-1.89126,1.28388-1.91435,1.75283-.09225,1.63754,4.12849,3.60566,8.09547,4.3053-2.23718,1.07629-3.60567.46895-4.51284,1.99116a1.80141,1.80141,0,0,0-.32288,1.06864c.07686.76879.92252,1.37613,2.18336,1.59911a70.89974,70.89974,0,0,1,7.04986,2.22179c.00769,0,.01539.0077.02308.0077a6.60533,6.60533,0,0,0-1.5222-.17681c-.37675.06151-.40749.20759-.938.48434-2.20644,1.1455-3.51341.49205-4.36676,1.83744-.123.1922-.3921.54582-.28446.89179.2076.64581,1.50687.48434,3.03677.838a6.56773,6.56773,0,0,1,2.34482,1.04555,2.8365,2.8365,0,0,0-.26906.62272,2.59712,2.59712,0,0,0-.1922,1.1532c.13838.838.99943.63042,2.00655,1.09938a6.24412,6.24412,0,0,1,2.18336,2.191c.03848.51513.06921.86105.06921.86105.0077,0,.48435.0077.9533,1.26084.35367.91487-.30753,1.26084-.14607,1.7298.08456.246.26911.2691.63042.615,1.49147,1.453.63812,2.32178,2.391,2.883a2.47388,2.47388,0,0,0,1.1532.1922c.838-.13838.62272-.99943,1.09172-2.00655.80723-1.75284,2.6908-1.922,3.01368-3.36734.15377-.70728-.223-.9533-.62273-1.9143q.16148-.03456.346-.09225c1.87587-.592,3.92855-2.43708,3.88242-3.95933a1.52869,1.52869,0,0,0-.33827-.89179c2.22949-.63811,4.18226-1.7221,4.12844-2.65236-.01539-.33058-.29215-.60733-1.3377-1.23006a20.00938,20.00938,0,0,0-4.76656-1.96812,6.01638,6.01638,0,0,1,1.21472-.40748c3.52875-.84566,5.50457.78419,6.81923-.7688a3.06035,3.06035,0,0,0,.67655-2.30639c-.27681-1.84509-2.74462-2.93682-5.16635-3.60567a9.88,9.88,0,0,1,3.79786-1.78361c2.19111-.51509,4.04389-.28446,4.336-1.207.15377-.48434-.23063-.99177-.40748-1.26853-1.21467-1.9143-3.08284-.98408-6.23494-2.62163a5.28225,5.28225,0,0,1-.56121-.33822c4.72808-.82262,9.75605-3.16749,9.64071-5.11253-.03073-.56121-.49969-1.03021-2.27561-2.09115a24.11591,24.11591,0,0,0-2.62163-1.37613,9.82319,9.82319,0,0,1,.97639-.47665c4.77421-1.99121,7.60342-.85336,9.4562-3.19053a2.13407,2.13407,0,0,0,.615-1.5299c-.14607-1.10708-1.76053-1.97582-4.15917-2.291a7.95941,7.95941,0,0,0-1.26854-1.60681,41.765,41.765,0,0,0,5.25091-2.25257C367.07857,633.99686,363.75736,633.99686,359.78264,632.45927Z"/>
        <path class="cls-1" d="M331.56127,642.97981c-6.12656-2.36547-4.08038-4.73094-9.1898-7.12-5.09759-2.38915-5.09759-1.15913-19.385-3.5246a90.91465,90.91465,0,0,0-9.27267-1.1709V615.77691h-4.77822v15.42291h-.01184c-5.97279.46121-5.45239,2.17619-12.99824,3.50085-6.81256,1.19457-8.44474,0-14.19281,1.18273a36.39959,36.39959,0,0,0-11.79183,4.73094c-4.13957.59137-6.93088,2.19987-7.17921,4.24605a4.12222,4.12222,0,0,0,1.05258,2.85036c3.1934,4.317,8.0781,2.22354,16.33356,5.91367.05919.02368.11832.05912.17744.0828-1.5021,1.43113-1.63218,2.85043-5.58247,4.26965-5.45246,1.96338-10.006,1.96338-1.82146,5.87823a67.32488,67.32488,0,0,0,12.65527,4.44709c-3.48908.93434-5.819.63866-7.48673,3.27613-.31929.4968-1.029,1.4193-.74512,2.31819.54408,1.67946,3.92668,1.26553,7.93617,2.19986,4.50622,1.05266,6.36312,3.016,8.6813,4.45894a35.58985,35.58985,0,0,0-6.72976,3.12243c-2.29451,1.37194-2.90955,1.97515-2.94507,2.6966-.14192,2.51923,6.35135,5.547,12.45423,6.62336-3.44173,1.65578-5.547.72145-6.94265,3.06324a2.77136,2.77136,0,0,0-.49672,1.644c.11824,1.18273,1.41922,2.11707,3.35892,2.46011a109.0713,109.0713,0,0,1,10.84566,3.418c.01184,0,.02367.01184.03551.01184a10.16244,10.16244,0,0,0-2.34179-.272c-.5796.09464-.62688.31936-1.443.74512-3.39444,1.76227-5.40511.757-6.71792,2.82676-.18921.29568-.60321.83969-.43761,1.37194.31936.99353,2.31818.74513,4.67181,1.28921a10.1041,10.1041,0,0,1,3.60733,1.6085,4.364,4.364,0,0,0-.41393.958,3.9955,3.9955,0,0,0-.29568,1.77411c.21288,1.28914,1.53754.96985,3.08692,1.6913,1.73858.80425,2.46011,2.28267,3.35892,3.37076.0592.79249.10648,1.32466.10648,1.32466.01184,0,.74513.01184,1.46658,1.9397.54409,1.40746-.47312,1.9397-.22472,2.66115.13008.37849.414.414.96985.94618,2.29451,2.23538.98169,3.57188,3.67829,4.43525a3.80562,3.80562,0,0,0,1.7741.29568c1.28921-.21288.958-1.53754,1.67953-3.08692,1.24186-2.69659,4.13957-2.95683,4.6363-5.18038.23656-1.08809-.343-1.46658-.958-2.945q.2484-.05316.53225-.14192c2.88587-.91073,6.04375-3.74925,5.97279-6.09111a2.3518,2.3518,0,0,0-.52041-1.37194c3.42989-.98169,6.43408-2.64931,6.35128-4.08045-.02367-.50857-.44944-.93433-2.05794-1.89234a30.78239,30.78239,0,0,0-7.333-3.0278,9.25591,9.25591,0,0,1,1.86874-.62689c5.42871-1.301,8.46835,1.20642,10.49085-1.18273a4.70811,4.70811,0,0,0,1.04081-3.5482c-.42584-2.83852-4.22237-4.51806-7.948-5.547a15.19953,15.19953,0,0,1,5.84271-2.744c3.37083-.79242,6.22119-.43761,6.67064-1.85683.23656-.74513-.35481-1.52578-.62689-1.95154-1.86866-2.945-4.7427-1.51394-9.592-4.03317a8.1269,8.1269,0,0,1-.86337-.52033c7.27378-1.26554,15.00891-4.87294,14.83147-7.86522-.04729-.86337-.76874-1.58489-3.50085-3.21707a37.10056,37.10056,0,0,0-4.03317-2.11707,15.11616,15.11616,0,0,1,1.5021-.73329c7.34473-3.06332,11.69726-1.31282,14.54762-4.90838a3.2831,3.2831,0,0,0,.94617-2.35363c-.22472-1.70314-2.70843-3.03963-6.39856-3.52452a12.24473,12.24473,0,0,0-1.95154-2.47195,64.25671,64.25671,0,0,0,8.0781-3.4654C342.78548,645.34528,337.676,645.34528,331.56127,642.97981Z"/>
        <path class="cls-1" d="M284.78739,637.92981c-5.17341-1.99746-3.44557-3.99492-7.76009-6.01231-4.30452-2.01746-4.30452-.9788-16.36919-2.97626a76.77184,76.77184,0,0,0-7.83006-.98873V614.959H248.7932V627.9825h-.01c-5.04357.38946-4.60412,1.83763-10.976,2.9562-5.75269,1.00873-7.13094,0-11.98476.99873a30.73668,30.73668,0,0,0-9.9573,3.99492c-3.49555.49936-5.8526,1.85762-6.06229,3.58546a3.48085,3.48085,0,0,0,.88882,2.40691c2.69658,3.64539,6.82134,1.87762,13.79245,4.99365.05.02.09991.04993.14983.06992-1.2684,1.20848-1.37825,2.407-4.714,3.6054-4.60419,1.65792-8.44927,1.65792-1.53808,4.96372a56.85114,56.85114,0,0,0,10.68642,3.75523c-2.94627.789-4.91374.53929-6.322,2.76644-.26961.41951-.86889,1.19848-.6292,1.95753.45943,1.41818,3.31579,1.06865,6.70149,1.85762,3.80516.88888,5.37317,2.54675,7.3307,3.76523a30.05372,30.05372,0,0,0-5.68277,2.63666c-1.93754,1.1585-2.4569,1.66786-2.48689,2.27707-.11984,2.1273,5.36324,4.68405,10.51665,5.59292-2.90627,1.39819-4.684.60921-5.86253,2.58668a2.34019,2.34019,0,0,0-.41945,1.38825c.09985.99873,1.19842,1.7877,2.83635,2.07737a92.104,92.104,0,0,1,9.15834,2.88628c.01,0,.02.01.03.01a8.582,8.582,0,0,0-1.97747-.22969c-.48943.07992-.52935.26968-1.21848.62921-2.86635,1.48809-4.5642.6392-5.67277,2.387-.15977.24969-.50937.70906-.36953,1.1585.26968.839,1.95753.62921,3.945,1.08865a8.532,8.532,0,0,1,3.04612,1.35825,3.68468,3.68468,0,0,0-.34953.809,3.37383,3.37383,0,0,0-.24969,1.4981c.17977,1.08858,1.29834.819,2.60667,1.42817,1.46811.67913,2.07738,1.92754,2.83636,2.84636.05.66919.08991,1.11857.08991,1.11857.01,0,.62921.01,1.23842,1.63793.45944,1.18849-.39952,1.63793-.18976,2.24714.10984.3196.34959.34959.819.799,1.93754,1.88762.829,3.01618,3.106,3.74524a3.21375,3.21375,0,0,0,1.49809.24968c1.08864-.17976.809-1.29834,1.41824-2.60667,1.04865-2.27707,3.49555-2.49682,3.915-4.37444.19976-.91881-.28967-1.23841-.809-2.48683q.20976-.04489.44944-.11984c2.43691-.769,5.1035-3.16595,5.04358-5.14348a1.986,1.986,0,0,0-.43945-1.1585c2.89628-.829,5.43309-2.23714,5.36317-3.44563-.02-.42944-.37952-.789-1.73777-1.59794a25.99387,25.99387,0,0,0-6.19214-2.55675,7.8164,7.8164,0,0,1,1.578-.52935c4.58413-1.09858,7.15088,1.01872,8.85873-.99873a3.97561,3.97561,0,0,0,.87888-2.99619c-.35959-2.39691-3.56547-3.81515-6.71149-4.684a12.83487,12.83487,0,0,1,4.93372-2.31706c2.84642-.66913,5.25333-.36953,5.63285-1.56795.19976-.62921-.2996-1.2884-.52935-1.64793-1.57795-2.48683-4.00486-1.2784-8.09968-3.4057a6.86183,6.86183,0,0,1-.72906-.43939c6.14215-1.06864,12.67388-4.11482,12.524-6.64157-.03993-.72905-.64914-1.33833-2.9562-2.71658a31.33026,31.33026,0,0,0-3.4057-1.7877,12.76388,12.76388,0,0,1,1.2684-.61921c6.20207-2.58673,9.87745-1.10857,12.28436-4.14475a2.77235,2.77235,0,0,0,.799-1.98746c-.18976-1.43817-2.28706-2.56674-5.4031-2.9762a10.33989,10.33989,0,0,0-1.64792-2.08737,54.25813,54.25813,0,0,0,6.82134-2.92627C294.26538,639.92727,289.95086,639.92727,284.78739,637.92981Z"/>
        <path class="cls-1" d="M262.65139,630.56767c-7.02948-2.58772-4.68173-5.17544-10.54417-7.789-5.84886-2.61362-5.84886-1.268-22.242-3.85575-4.6004-.72456-7.88442-1.12566-10.63926-1.28091V600.80888h-5.48242v16.872H213.73c-6.853.50455-6.25595,2.38066-14.91389,3.82978-7.81658,1.30681-9.68931,0-16.28452,1.29386A42.92137,42.92137,0,0,0,169.0019,627.98c-4.74965.64693-7.95234,2.40656-8.23726,4.645a4.39219,4.39219,0,0,0,1.2077,3.11817c3.664,4.72262,9.26863,2.43246,18.74077,6.4693.06792.0259.13575.06468.20359.09058-1.72347,1.5656-1.87273,3.11825-6.40521,4.67082-6.256,2.14785-11.48061,2.14785-2.0899,6.43052a79.81513,79.81513,0,0,0,14.52038,4.86493c-4.00329,1.02212-6.67663.69866-8.5901,3.58394-.36635.54348-1.18063,1.55265-.855,2.536.62427,1.83726,4.5054,1.38444,9.10579,2.40657,5.17033,1.15155,7.3009,3.29932,9.96074,4.87787a41.80315,41.80315,0,0,0-7.72158,3.41581c-2.63267,1.50085-3.33836,2.16073-3.37911,2.95-.16284,2.75593,7.2874,6.06821,14.2897,7.24567-3.949,1.81136-6.36453.78923-7.96583,3.351a2.9351,2.9351,0,0,0-.56994,1.79849c.13567,1.29386,1.62839,2.316,3.854,2.69125a129.611,129.611,0,0,1,12.44406,3.73919c.01359,0,.02717.013.04075.013a12.20585,12.20585,0,0,0-2.68692-.29757c-.665.10353-.71927.34937-1.65563.81514-3.89471,1.92784-6.2017.82809-7.708,3.09235-.21709.32346-.6921.91859-.5021,1.50084.36643,1.08688,2.65984.81514,5.36034,1.41034a11.86856,11.86856,0,0,1,4.139,1.75963,4.662,4.662,0,0,0-.47494,1.048,4.1909,4.1909,0,0,0-.33926,1.94079c.24426,1.41026,1.76414,1.061,3.54187,1.85021,1.99481.87981,2.82267,2.49714,3.85395,3.68747.06792.86694.12217,1.44911.12217,1.44911.01359,0,.855.013,1.68272,2.12195.62427,1.5397-.54285,2.12195-.25784,2.91119.14926.414.475.4529,1.11279,1.03507,2.63266,2.44542,1.12637,3.90749,4.22038,4.852a4.55558,4.55558,0,0,0,2.03557.32346c1.47921-.23288,1.0992-1.682,1.92706-3.377,1.42488-2.95,4.74965-3.23465,5.31958-5.66712.27143-1.19033-.39359-1.60437-1.0992-3.2217q.285-.05815.61069-.15525c3.31119-.9963,6.93447-4.10152,6.85305-6.66341a2.50083,2.50083,0,0,0-.5971-1.50085c3.93537-1.07392,7.38232-2.89823,7.28731-4.46383-.02716-.55635-.51568-1.02212-2.36124-2.07015a36.32462,36.32462,0,0,0-8.41368-3.31228,10.97984,10.97984,0,0,1,2.14415-.68578c6.22878-1.42321,9.71639,1.31976,12.037-1.29386a4.98745,4.98745,0,0,0,1.1942-3.88158c-.4886-3.10522-4.84465-4.94256-9.11937-6.06821a17.81261,17.81261,0,0,1,6.70379-3.00176c3.86763-.86687,7.13807-.47873,7.65375-2.03129.27142-.81514-.4071-1.66913-.71927-2.13491-2.14407-3.22169-5.44168-1.65617-11.00561-4.4121a9.42348,9.42348,0,0,1-.99061-.56923c8.34577-1.38444,17.22088-5.33077,17.01729-8.6042-.05425-.94449-.882-1.73381-4.01679-3.51934a43.34015,43.34015,0,0,0-4.62757-2.316,17.71156,17.71156,0,0,1,1.72348-.80219c8.42718-3.35113,13.42117-1.43616,16.69161-5.36955a3.50838,3.50838,0,0,0,1.08562-2.57477c-.25784-1.86316-3.1076-3.32523-7.34157-3.85568a13.482,13.482,0,0,0-2.23915-2.7042,75.69377,75.69377,0,0,0,9.26863-3.791C275.5298,633.15539,269.66736,633.15539,262.65139,630.56767Z"/>
        <path class="cls-1" d="M204.37867,647.79689c-5.2523-1.9335-3.49811-3.867-7.87842-5.81979-4.37016-1.95285-4.37016-.94745-16.6188-2.88095-3.43734-.54138-5.8911-.84107-7.94946-.95708V625.56165h-4.09638V638.1681h-.01015c-5.12048.377-4.67433,1.77879-11.14339,2.86155-5.84042.97642-7.23969,0-12.16751.96675a32.07014,32.07014,0,0,0-10.10914,3.867c-3.54886.48338-5.94185,1.79814-6.15474,3.47066a3.28175,3.28175,0,0,0,.90238,2.32984c2.7377,3.52866,6.92535,1.8175,14.00277,4.83375.05074.01935.10143.04833.15212.06768-1.28775,1.16979-1.39927,2.3299-4.78586,3.48995-4.6744,1.60484-8.57812,1.60484-1.56154,4.80478a59.637,59.637,0,0,0,10.84938,3.635c-2.9912.76371-4.98867.522-6.41838,2.67785-.27373.40608-.88214,1.16011-.6388,1.89485.46644,1.37277,3.36635,1.03443,6.80369,1.79814,3.86318.86042,5.4551,2.4652,7.44248,3.64467a31.235,31.235,0,0,0-5.76943,2.55223c-1.96708,1.1214-2.49436,1.61446-2.52481,2.20416-.12167,2.05918,5.445,4.53406,10.677,5.41383-2.95059,1.35342-4.75547.58971-5.95193,2.50385a2.193,2.193,0,0,0-.42585,1.3438c.10137.96675,1.2167,1.73046,2.87961,2.01085a96.84531,96.84531,0,0,1,9.298,2.79386c.01015,0,.0203.00968.03045.00968a9.11954,9.11954,0,0,0-2.00762-.22233c-.49689.07735-.53742.261-1.23706.609-2.91,1.44045-4.6338.61874-5.75928,2.31055-.1622.24169-.51713.68635-.37516,1.1214.27379.8121,1.98739.60906,4.00515,1.05379a8.86784,8.86784,0,0,1,3.09257,1.31476,3.48352,3.48352,0,0,0-.35486.78307,3.13114,3.13114,0,0,0-.25349,1.45012c.1825,1.05373,1.31813.79274,2.64641,1.38245,1.49049.65738,2.10905,1.86582,2.87961,2.75521.05075.64776.09129,1.08275.09129,1.08275.01014,0,.63879.00968,1.25729,1.58549.46645,1.15043-.4056,1.58548-.19265,2.17518.11152.30937.35492.3384.83145.77339,1.96709,1.82717.84161,2.9196,3.1534,3.62531a3.40389,3.40389,0,0,0,1.52094.24169c1.10524-.174.8213-1.25676,1.43987-2.5232,1.06464-2.20416,3.54885-2.41688,3.9747-4.23437.2028-.88939-.29409-1.19876-.82131-2.4072q.213-.04345.4563-.116c2.47406-.74442,5.18131-3.06458,5.12048-4.97879a1.86858,1.86858,0,0,0-.44615-1.1214c2.94045-.80242,5.51594-2.16551,5.445-3.3353-.0203-.41569-.38531-.76371-1.76428-1.54677a27.14052,27.14052,0,0,0-6.28656-2.47488,8.20454,8.20454,0,0,1,1.60207-.51241c4.654-1.0634,7.25992.98611,8.99381-.96675a3.72652,3.72652,0,0,0,.89229-2.90024c-.36507-2.32017-3.61984-3.693-6.81383-4.53406a13.30925,13.30925,0,0,1,5.009-2.24287c2.88982-.6477,5.33343-.35769,5.71874-1.51774.2028-.60906-.30418-1.24715-.53743-1.59516-1.602-2.4072-4.06592-1.23747-8.22319-3.29665a7.03781,7.03781,0,0,1-.74017-.42532c6.23581-1.03443,12.86714-3.98306,12.715-6.42891-.04054-.7057-.659-1.29547-3.00128-2.62959a32.384,32.384,0,0,0-3.45763-1.73046,13.23247,13.23247,0,0,1,1.28775-.59938c6.29664-2.5039,10.02806-1.07307,12.47168-4.012a2.62138,2.62138,0,0,0,.81115-1.92382c-.19265-1.39212-2.32194-2.48456-5.48549-2.8809a10.073,10.073,0,0,0-1.67306-2.02053,56.55728,56.55728,0,0,0,6.92536-2.83257C214.00119,649.73039,209.62088,649.73039,204.37867,647.79689Z"/>
      </g>
      <path class="cls-1" d="M1920,627.73832a417.74346,417.74346,0,0,1-50,9c-71.35413,8.40216-117.94592-4.92938-159-9-68.75635-6.81738-103.93726,14.13-173,30-194.7074,44.742-251.69226-44.40387-529-23-73.65167,5.68476-87.3562,13.34125-168,16-121.01416,3.98975-152.24823-11.204-264-15-162.06995-5.50525-183.57574,23.48926-340,20a1254.31494,1254.31494,0,0,1-237-28v-40H1920Z"/>
    </g>
    <rect id="Lake" class="cls-2" y="586" width="1920" height="494"/>
  </g>
</svg>
