<svg id="Layer_1" data-name="Layer 1" xmlns="http://www.w3.org/2000/svg" viewBox="0 0 1920 1080">
  <defs>
    <style>
      .cls-1 {
        fill: #1c0028;
      }
    </style>
  </defs>
  <g id="Trees">
    <g>
      <path class="cls-1" d="M1035.17157,534.229c-3.32669,1.28444-2.21563,2.56887-4.99,3.86613-2.768,1.29729-2.768.6294-10.526,1.91384a49.369,49.369,0,0,1-5.035.63579V549H1012.026v-8.37456h-.00643c-3.2432-.25043-2.96062-1.18166-7.058-1.90094-3.69919-.64865-4.58545,0-7.70663-.64222a19.7649,19.7649,0,0,1-6.4029-2.56887c-2.24776-.32111-3.76343-1.19452-3.89827-2.30559a2.23836,2.23836,0,0,1,.57154-1.54773c1.734-2.34411,4.38637-1.20737,8.869-3.21109.03215-.01286.06425-.0321.09635-.045-.81563-.7771-.88626-1.54777-3.03125-2.3184-2.96066-1.06611-5.43319-1.06611-.989-3.19185a36.55744,36.55744,0,0,1,6.87175-2.41475c-1.89456-.50734-3.15971-.34678-4.06526-1.77892-.17337-.26976-.55873-.77067-.4046-1.25876.29543-.91194,2.13217-.68718,4.3093-1.19452,2.44685-.57158,3.45514-1.63765,4.7139-2.42118a19.32525,19.32525,0,0,1-3.65422-1.69546c-1.24591-.745-1.57987-1.0725-1.59916-1.46424-.07706-1.36793,3.44875-3.012,6.76258-3.59645-1.86884-.89908-3.012-.39174-3.76982-1.66332a1.50493,1.50493,0,0,1-.26972-.8927c.06421-.64222.77063-1.14956,1.82388-1.33582a59.22644,59.22644,0,0,0,5.88914-1.856c.00642,0,.01285-.00643.01928-.00643a5.5181,5.5181,0,0,1-1.27158.1477c-.31472-.05139-.34039-.17341-.78353-.4046-1.84316-.9569-2.93494-.411-3.6478-1.53491-.10273-.16056-.32753-.45595-.23761-.745.17341-.53948,1.25876-.4046,2.53677-.7a5.48657,5.48657,0,0,0,1.95876-.87341,2.36932,2.36932,0,0,1-.22476-.5202,2.16947,2.16947,0,0,1-.16056-.96332c.1156-.7.83488-.52663,1.67618-.91837a5.216,5.216,0,0,0,1.82388-1.83031c.03215-.43032.05782-.71928.05782-.71928.00643,0,.4046-.00643.79635-1.05325.29543-.76424-.25691-1.05325-.122-1.445.07064-.20552.2248-.2248.52663-.51377,1.2459-1.2138.53305-1.93951,1.99729-2.40832a2.06662,2.06662,0,0,1,.96333-.16056c.7.1156.52019.83488.912,1.67619.67432,1.46423,2.24776,1.60554,2.51748,2.81292.12845.59083-.18627.79634-.52019,1.59912q.13488.02886.289.07706c1.567.49452,3.28173,2.03582,3.2432,3.30744a1.2771,1.2771,0,0,1-.28258.745c1.86241.53305,3.49367,1.43856,3.44871,2.21566-.01285.27615-.244.50734-1.11745,1.02754a16.71484,16.71484,0,0,1-3.98177,1.64407,5.02585,5.02585,0,0,0,1.01472.3404c2.94776.70642,4.59827-.65508,5.69648.64222a2.55646,2.55646,0,0,1,.56515,1.92665c-.23122,1.54131-2.29272,2.45328-4.31573,3.012a8.25335,8.25335,0,0,0,3.17257,1.48995c1.83034.43028,3.37807.23762,3.62212,1.00825.12845.4046-.19266.82849-.3404,1.05968-1.01467,1.59912-2.57526.82206-5.20838,2.19a4.41131,4.41131,0,0,0-.46881.28254c3.94962.68717,8.14976,2.646,8.05341,4.27077-.02567.4688-.41742.86059-1.90094,1.74685a20.14528,20.14528,0,0,1-2.19,1.14956,8.2077,8.2077,0,0,0,.81563.39817c3.98816,1.66337,6.35156.71286,7.89929,2.66523a1.78268,1.78268,0,0,1,.51376,1.278c-.122.9248-1.47066,1.65051-3.47438,1.9138a6.64868,6.64868,0,0,1-1.05968,1.34226,34.88926,34.88926,0,0,1,4.38636,1.8817C1041.26626,532.94453,1038.49187,532.94453,1035.17157,534.229Z"/>
      <path class="cls-1" d="M1007.57707,528.533c-4.65288,1.79649-3.09889,3.593-6.97929,5.40737-3.87141,1.81447-3.87141.88032-14.72217,2.6768a69.04938,69.04938,0,0,1-7.04223.88925v11.68611h-3.62887V537.47948h-.009c-4.5361-.35027-4.14088-1.65273-9.87165-2.65875-5.17388-.90723-6.41345,0-10.77889-.89824a27.64414,27.64414,0,0,1-8.95543-3.593c-3.14384-.44912-5.26373-1.67072-5.45232-3.22471a3.13064,3.13064,0,0,1,.79939-2.16474c2.42526-3.2786,6.135-1.68869,12.4047-4.4912.04495-.018.08985-.0449.13475-.06288-1.14078-1.08689-1.23957-2.16479-4.23966-3.24264-4.14093-1.49111-7.59914-1.49111-1.38333-4.46428a51.13108,51.13108,0,0,1,9.61118-3.37739c-2.64982-.70959-4.41932-.485-5.68587-2.48809-.24249-.3773-.78147-1.0779-.5659-1.76057.41321-1.27549,2.98217-.96112,6.02721-1.67071,3.4223-.79945,4.83254-2.29051,6.59311-3.38639a27.03,27.03,0,0,1-5.111-2.37136c-1.74259-1.04194-2.20969-1.5-2.23666-2.048-.10779-1.91326,4.8236-4.21275,9.45849-5.03018-2.61385-1.25751-4.21274-.54792-5.27266-2.32641a2.1048,2.1048,0,0,1-.37725-1.24857c.0898-.89824,1.07785-1.60783,2.551-1.86836a82.837,82.837,0,0,0,8.23685-2.59587c.009,0,.018-.009.027-.009a7.71873,7.71873,0,0,1-1.7785.20658c-.44019-.07188-.4761-.24255-1.09588-.5659-2.57795-1.33837-4.105-.57489-5.102-2.14681-.1437-.22456-.45811-.63771-.33235-1.04193.24255-.75455,1.76057-.5659,3.54806-.97911a7.67364,7.67364,0,0,0,2.73963-1.22159,3.31426,3.31426,0,0,1-.31437-.72757,3.03454,3.03454,0,0,1-.22456-1.34736c.16168-.979,1.1677-.73657,2.3444-1.28448a7.29563,7.29563,0,0,0,2.551-2.56c.04495-.60186.08086-1.006.08086-1.006.009,0,.5659-.009,1.11381-1.47313.41321-1.0689-.35931-1.47312-.17066-2.021.09879-.28744.31441-.31441.73656-.71858,1.74259-1.69768.74555-2.7127,2.79351-3.3684a2.89037,2.89037,0,0,1,1.34736-.22456c.97911.16168.72758,1.1677,1.27555,2.3444.94314,2.048,3.14384,2.2456,3.52108,3.93429.17966.82637-.26052,1.11381-.72757,2.23661q.18865.04038.40422.10779c2.19171.69166,4.59,2.8474,4.5361,4.626a1.7861,1.7861,0,0,1-.39523,1.04193c2.60487.74556,4.88643,2.012,4.82355,3.09894-.018.38624-.34134.70959-1.56293,1.43716a23.37847,23.37847,0,0,1-5.5691,2.2995,7.02928,7.02928,0,0,0,1.41923.47609c4.1229.988,6.43138-.91622,7.96739.89824a3.57564,3.57564,0,0,1,.79046,2.69472c-.32341,2.15574-3.20673,3.43129-6.03621,4.21275a11.54357,11.54357,0,0,0,4.43731,2.08392c2.56.60181,4.72476.33235,5.06609,1.41019.17966.5659-.26946,1.15877-.47609,1.48212-1.41918,2.23661-3.6019,1.14978-7.28472,3.063a6.17413,6.17413,0,0,0-.6557.39517c5.52415.96113,11.39868,3.70081,11.26392,5.97332-.03591.6557-.58383,1.20367-2.65876,2.44325a28.17813,28.17813,0,0,1-3.063,1.60783,11.48237,11.48237,0,0,0,1.14078.5569c5.578,2.32647,8.88361.997,11.04835,3.72772a2.49346,2.49346,0,0,1,.71858,1.78749c-.17067,1.29347-2.057,2.30848-4.85946,2.67674a9.29925,9.29925,0,0,1-1.48211,1.87735,48.80068,48.80068,0,0,1,6.135,2.63183C1016.10142,526.73656,1012.221,526.73656,1007.57707,528.533Z"/>
      <path class="cls-1" d="M971.04157,531.94519c-3.98237,1.53759-2.65232,3.07519-5.97353,4.62813-3.31352,1.553-3.31352.75345-12.60061,2.29105a59.09735,59.09735,0,0,1-6.0274.7611v10.00207h-3.10592V539.60238h-.0077c-3.88242-.29979-3.54414-1.41456-8.44908-2.27561-4.42828-.77649-5.48923,0-9.22557-.7688a23.66027,23.66027,0,0,1-7.6649-3.07519c-2.69079-.3844-4.50519-1.43-4.6666-2.76a2.67948,2.67948,0,0,1,.68419-1.85278c2.07576-2.80614,5.2509-1.44535,10.6171-3.844.03847-.01539.07691-.03843.11534-.05383-.97639-.93026-1.061-1.85282-3.62871-2.77534-3.54419-1.27623-6.504-1.27623-1.184-3.82095a43.76216,43.76216,0,0,1,8.22615-2.89069c-2.268-.60733-3.78247-.41514-4.8665-2.12954-.20755-.32293-.66885-.92257-.48435-1.50686.35366-1.09168,2.55241-.82262,5.15865-1.42995,2.92912-.68424,4.13614-1.96043,5.643-2.89839a23.13388,23.13388,0,0,1-4.37446-2.02963c-1.49147-.89179-1.89126-1.28388-1.91435-1.75284-.09225-1.63754,4.12849-3.60566,8.09546-4.30529-2.23718-1.07629-3.60566-.469-4.51284-1.99116a1.80157,1.80157,0,0,1-.32288-1.06864c.07686-.7688.92252-1.37614,2.18336-1.59912a70.89621,70.89621,0,0,0,7.04986-2.22179c.0077,0,.0154-.00769.02309-.00769a6.60644,6.60644,0,0,1-1.5222.17681c-.37675-.06152-.40749-.20759-.938-.48435-2.20645-1.1455-3.51341-.492-4.36677-1.83744-.123-.1922-.39209-.54582-.28445-.89178.20759-.64581,1.50686-.48435,3.03676-.838a6.56788,6.56788,0,0,0,2.34483-1.04556,2.836,2.836,0,0,1-.26906-.62272,2.597,2.597,0,0,1-.1922-1.1532c.13837-.838.99942-.63042,2.00655-1.09937a6.24422,6.24422,0,0,0,2.18336-2.19106c.03847-.51513.06921-.861.06921-.861.00769,0,.48435-.00769.9533-1.26084.35366-.91487-.30754-1.26084-.14607-1.72979.08455-.246.2691-.26911.63042-.615,1.49147-1.453.63811-2.32179,2.39095-2.883a2.4736,2.4736,0,0,1,1.15319-.1922c.838.13837.62273.99942,1.09173,2.00655.80723,1.75283,2.69079,1.922,3.01368,3.36734.15376.70728-.223.9533-.62273,1.91429q.16146.03456.346.09226c1.87587.592,3.92855,2.43707,3.88242,3.95932a1.52881,1.52881,0,0,1-.33827.89179c2.22948.63811,4.18226,1.7221,4.12844,2.65236-.01539.33058-.29215.60733-1.3377,1.23006a20.00955,20.00955,0,0,1-4.76656,1.96812,6.01626,6.01626,0,0,0,1.21471.40748c3.52876.84566,5.50458-.78418,6.81924.7688a3.06031,3.06031,0,0,1,.67654,2.3064c-.2768,1.84508-2.74461,2.93681-5.16634,3.60566a9.8801,9.8801,0,0,0,3.79786,1.78362c2.1911.51508,4.04388.28445,4.336,1.207.15377.48434-.23063.99178-.40748,1.26853-1.21467,1.9143-3.08284.98409-6.23494,2.62163a5.28034,5.28034,0,0,0-.56121.33823c4.72808.82262,9.756,3.16749,9.64071,5.11252-.03074.56121-.49969,1.03021-2.27561,2.09115a24.11782,24.11782,0,0,1-2.62163,1.37614,9.82769,9.82769,0,0,0,.97639.47665c4.7742,1.9912,7.60342.85335,9.4562,3.19053a2.13408,2.13408,0,0,1,.615,1.5299c-.14607,1.10707-1.76053,1.97581-4.15918,2.291a7.95911,7.95911,0,0,1-1.26853,1.60681,41.7685,41.7685,0,0,1,5.2509,2.25257C978.3375,530.40759,975.01628,530.40759,971.04157,531.94519Z"/>
      <path class="cls-1" d="M942.82019,521.42464c-6.12655,2.36547-4.08037,4.73094-9.1898,7.12-5.09758,2.38914-5.09758,1.15913-19.385,3.52459a90.915,90.915,0,0,1-9.27267,1.1709v15.38739h-4.77822V533.20463h-.01184c-5.9728-.46121-5.45239-2.17619-12.99824-3.50084-6.81257-1.19458-8.44475,0-14.19282-1.18274a36.39968,36.39968,0,0,1-11.79183-4.73094c-4.13957-.59136-6.93087-2.19987-7.1792-4.24605a4.12213,4.12213,0,0,1,1.05258-2.85035c3.19339-4.317,8.07809-2.22355,16.33356-5.91368.05919-.02367.11831-.05912.17744-.0828-1.5021-1.43113-1.63218-2.85043-5.58248-4.26965-5.45246-1.96338-10.006-1.96338-1.82145-5.87823a67.32488,67.32488,0,0,1,12.65527-4.44709c-3.48908-.93434-5.819-.63865-7.48673-3.27613-.31929-.4968-1.029-1.41929-.74513-2.31818.54409-1.67947,3.92669-1.26554,7.93618-2.19987,4.50621-1.05265,6.36311-3.016,8.6813-4.45893a35.59058,35.59058,0,0,1-6.72976-3.12244c-2.29451-1.37194-2.90956-1.97515-2.94507-2.6966-.14193-2.51923,6.35135-5.547,12.45423-6.62335-3.44173-1.65579-5.547-.72146-6.94265-3.06325a2.77142,2.77142,0,0,1-.49673-1.644c.11825-1.18274,1.41923-2.11707,3.35893-2.46011a109.07319,109.07319,0,0,0,10.84565-3.418c.01184,0,.02368-.01184.03552-.01184a10.16306,10.16306,0,0,1-2.34179.272c-.5796-.09464-.62689-.31937-1.443-.74513-3.39444-1.76227-5.4051-.757-6.71792-2.82676-.1892-.29568-.6032-.83969-.4376-1.37194.31936-.99352,2.31818-.74512,4.67181-1.28921a10.10393,10.10393,0,0,0,3.60733-1.6085,4.36353,4.36353,0,0,1-.41393-.958,3.99534,3.99534,0,0,1-.29568-1.7741c.21288-1.28914,1.53754-.96985,3.08692-1.6913,1.73858-.80426,2.4601-2.28267,3.35892-3.37077.0592-.79248.10648-1.32466.10648-1.32466.01184,0,.74513-.01184,1.46658-1.9397.54408-1.40746-.47312-1.9397-.22472-2.66115.13008-.37848.414-.414.96985-.94617,2.2945-2.23539.98169-3.57189,3.67828-4.43526a3.80582,3.80582,0,0,1,1.77411-.29568c1.28921.21288.958,1.53754,1.67953,3.08692,1.24186,2.69659,4.13957,2.95683,4.6363,5.18038.23656,1.0881-.343,1.46658-.958,2.945q.2484.05316.53224.14192c2.88588.91073,6.04376,3.74925,5.9728,6.09111a2.35187,2.35187,0,0,1-.52041,1.37194c3.42989.98169,6.43408,2.64932,6.35128,4.08045-.02368.50857-.44945.93434-2.058,1.89235a30.7821,30.7821,0,0,1-7.333,3.02779,9.2554,9.2554,0,0,0,1.86875.62689c5.42871,1.301,8.46834-1.20641,10.49084,1.18273a4.70809,4.70809,0,0,1,1.04082,3.54821c-.42584,2.83852-4.22237,4.518-7.948,5.547a15.19967,15.19967,0,0,0,5.84271,2.744c3.37084.79241,6.2212.4376,6.67064,1.85683.23657.74513-.3548,1.52577-.62688,1.95154-1.86867,2.945-4.7427,1.51393-9.592,4.03316a8.12565,8.12565,0,0,0-.86337.52034c7.27377,1.26553,15.0089,4.87293,14.83146,7.86521-.04728.86337-.76873,1.5849-3.50085,3.21708a37.10123,37.10123,0,0,1-4.03316,2.11706,15.115,15.115,0,0,0,1.5021.73329c7.34473,3.06332,11.69726,1.31282,14.54762,4.90838a3.2832,3.2832,0,0,1,.94617,2.35363c-.22472,1.70314-2.70844,3.03964-6.39856,3.52453a12.24484,12.24484,0,0,1-1.95154,2.47194,64.25465,64.25465,0,0,1,8.07809,3.46541C954.0444,519.05917,948.935,519.05917,942.82019,521.42464Z"/>
      <path class="cls-1" d="M896.04632,526.47465c-5.17342,1.99746-3.44557,3.99491-7.76009,6.01231-4.30452,2.01745-4.30452.97879-16.36919,2.97625a76.76945,76.76945,0,0,1-7.83007.98873v12.99348h-4.03484V536.422h-.01c-5.04357-.38946-4.60413-1.83763-10.976-2.9562-5.75269-1.00872-7.13094,0-11.98475-.99873a30.7366,30.7366,0,0,1-9.9573-3.99491c-3.49556-.49937-5.8526-1.85763-6.0623-3.58547a3.48085,3.48085,0,0,1,.88883-2.40691c2.69658-3.64539,6.82133-1.87762,13.79245-4.99365.05-.02.09991-.04992.14983-.06992-1.26841-1.20848-1.37825-2.407-4.714-3.6054-4.60419-1.65792-8.44928-1.65792-1.53809-4.96371a56.85127,56.85127,0,0,1,10.68642-3.75524c-2.94626-.789-4.91373-.53929-6.322-2.76643-.26962-.41951-.86889-1.19849-.62921-1.95754.45944-1.41817,3.31579-1.06864,6.7015-1.85762,3.80516-.88888,5.37317-2.54675,7.3307-3.76523a30.05309,30.05309,0,0,1-5.68277-2.63666c-1.93754-1.1585-2.4569-1.66786-2.48689-2.27707-.11984-2.1273,5.36323-4.684,10.51665-5.59292-2.90628-1.39819-4.684-.60921-5.86254-2.58668a2.34025,2.34025,0,0,1-.41945-1.38824c.09985-.99873,1.19843-1.78771,2.83636-2.07738a92.1036,92.1036,0,0,0,9.15833-2.88628c.01,0,.02-.01.03-.01a8.58138,8.58138,0,0,1-1.97746.22969c-.48943-.07992-.52936-.26968-1.21848-.6292-2.86635-1.4881-4.5642-.63921-5.67278-2.387-.15977-.24968-.50936-.70906-.36952-1.1585.26967-.839,1.95753-.62921,3.945-1.08864a8.53211,8.53211,0,0,0,3.04611-1.35826,3.68494,3.68494,0,0,1-.34953-.809,3.37382,3.37382,0,0,1-.24968-1.49809c.17976-1.08858,1.29834-.819,2.60667-1.42818,1.4681-.67913,2.07737-1.92754,2.83636-2.84635.05-.6692.08991-1.11858.08991-1.11858.01,0,.6292-.01,1.23841-1.63793.45944-1.18849-.39951-1.63793-.18976-2.24714.10985-.3196.34959-.34959.819-.799,1.93754-1.88761.829-3.01618,3.106-3.74523a3.21365,3.21365,0,0,1,1.4981-.24969c1.08864.17977.809,1.29834,1.41824,2.60667,1.04865,2.27707,3.49555,2.49683,3.915,4.37444.19976.91882-.28967,1.23842-.809,2.48683q.20976.0449.44944.11984c2.4369.769,5.10349,3.166,5.04357,5.14348a1.98587,1.98587,0,0,1-.43944,1.1585c2.89628.829,5.43309,2.23715,5.36317,3.44563-.02.42945-.37952.789-1.73778,1.59794a25.99384,25.99384,0,0,1-6.19213,2.55675,7.81556,7.81556,0,0,0,1.578.52935c4.58413,1.09858,7.15087-1.01872,8.85872.99873a3.97559,3.97559,0,0,1,.87889,2.99619c-.35959,2.39692-3.56547,3.81516-6.7115,4.684a12.83515,12.83515,0,0,0,4.93373,2.31705c2.84642.66914,5.25333.36953,5.63285,1.568.19976.6292-.29961,1.2884-.52936,1.64792-1.57794,2.48683-4.00485,1.27841-8.09968,3.40571a6.86069,6.86069,0,0,0-.72905.43938c6.14215,1.06865,12.67388,4.11482,12.524,6.64157-.03992.72906-.64913,1.33833-2.9562,2.71658a31.32666,31.32666,0,0,1-3.4057,1.7877,12.76428,12.76428,0,0,0,1.26841.61921c6.20207,2.58674,9.87745,1.10858,12.28436,4.14475a2.77237,2.77237,0,0,1,.799,1.98746c-.18976,1.43818-2.28707,2.56675-5.4031,2.9762a10.33974,10.33974,0,0,1-1.64793,2.08737,54.2596,54.2596,0,0,1,6.82134,2.92627C905.52431,524.47719,901.20979,524.47719,896.04632,526.47465Z"/>
      <path class="cls-1" d="M873.91031,533.83678c-7.02947,2.58772-4.68173,5.17544-10.54417,7.789-5.84885,2.61362-5.84885,1.268-22.24195,3.85576-4.6004.72455-7.88442,1.12565-10.63926,1.2809v16.83314H825.0025v-16.872h-.01358c-6.85305-.50454-6.25595-2.38066-14.91389-3.82977-7.81658-1.30682-9.68931,0-16.28452-1.29387a42.92127,42.92127,0,0,1-13.52968-5.17544c-4.74966-.64693-7.95234-2.40656-8.23727-4.645a4.39222,4.39222,0,0,1,1.20771-3.11817c3.664-4.72262,9.26863-2.43246,18.74076-6.4693.06792-.0259.13576-.06468.20359-.09058-1.72347-1.5656-1.87272-3.11825-6.4052-4.67081-6.256-2.14786-11.48062-2.14786-2.0899-6.43053a79.81566,79.81566,0,0,1,14.52038-4.86493c-4.0033-1.02212-6.67663-.69865-8.59011-3.58394-.36634-.54348-1.18062-1.55265-.85494-2.536.62427-1.83726,4.50539-1.38444,9.10579-2.40656,5.17033-1.15156,7.3009-3.29933,9.96073-4.87788a41.80373,41.80373,0,0,1-7.72158-3.41581c-2.63266-1.50084-3.33835-2.16073-3.3791-2.95-.16284-2.75593,7.28739-6.06821,14.2897-7.24567-3.949-1.81135-6.36454-.78923-7.96584-3.351a2.93511,2.93511,0,0,1-.56993-1.79848c.13567-1.29386,1.62838-2.316,3.854-2.69126a129.61278,129.61278,0,0,0,12.44406-3.73919c.01358,0,.02717-.01295.04075-.01295a12.20577,12.20577,0,0,1-2.68692.29756c-.665-.10353-.71927-.34937-1.65564-.81514-3.8947-1.92784-6.20169-.82809-7.708-3.09234-.21709-.32347-.69211-.91859-.5021-1.50085.36643-1.08687,2.65983-.81514,5.36034-1.41034a11.8685,11.8685,0,0,0,4.139-1.75963,4.66261,4.66261,0,0,1-.47493-1.048,4.19093,4.19093,0,0,1-.33926-1.94079c.24426-1.41027,1.76414-1.061,3.54186-1.85022,1.99482-.87981,2.82268-2.49714,3.854-3.68747.06792-.86694.12217-1.44911.12217-1.44911.01358,0,.85494-.01295,1.68272-2.122.62427-1.5397-.54285-2.12195-.25784-2.91119.14925-.414.475-.4529,1.11278-1.03507,2.63267-2.44541,1.12637-3.90748,4.22039-4.852a4.55568,4.55568,0,0,1,2.03556-.32346c1.47922.23288,1.09921,1.682,1.92706,3.377,1.42488,2.95,4.74966,3.23465,5.31959,5.66711.27143,1.19033-.39359,1.60437-1.0992,3.2217q.285.05815.61069.15526c3.31118.99629,6.93447,4.10151,6.85305,6.66341a2.501,2.501,0,0,1-.5971,1.50084c3.93537,1.07393,7.38231,2.89823,7.28731,4.46383-.02717.55635-.51568,1.02213-2.36124,2.07015a36.32465,36.32465,0,0,1-8.41369,3.31228,10.97951,10.97951,0,0,0,2.14416.68578c6.22878,1.42322,9.71639-1.31976,12.037,1.29386a4.98747,4.98747,0,0,1,1.19421,3.88158c-.4886,3.10522-4.84466,4.94256-9.11938,6.06821a17.81289,17.81289,0,0,0,6.7038,3.00177c3.86762.86686,7.13806.47872,7.65375,2.03129.27142.81514-.4071,1.66913-.71928,2.1349-2.14407,3.2217-5.44167,1.65618-11.0056,4.41211a9.41984,9.41984,0,0,0-.99061.56922c8.34576,1.38444,17.22088,5.33077,17.01729,8.6042-.05425.94449-.882,1.73381-4.0168,3.51934a43.341,43.341,0,0,1-4.62756,2.316,17.70988,17.70988,0,0,0,1.72347.80219c8.42719,3.35113,13.42118,1.43617,16.69162,5.36955a3.50838,3.50838,0,0,1,1.08562,2.57477c-.25785,1.86316-3.1076,3.32523-7.34157,3.85568a13.48184,13.48184,0,0,1-2.23916,2.7042,75.69471,75.69471,0,0,1,9.26863,3.791C886.78872,531.24906,880.92629,531.24906,873.91031,533.83678Z"/>
      <path class="cls-1" d="M815.6376,516.60756c-5.2523,1.9335-3.49811,3.867-7.87842,5.81979-4.37016,1.95286-4.37016.94746-16.6188,2.881-3.43734.54137-5.8911.84106-7.94947.95707V538.8428h-4.09637V526.23635h-.01015c-5.12048-.377-4.67434-1.77879-11.1434-2.86154-5.84041-.97643-7.23968,0-12.1675-.96675a32.07053,32.07053,0,0,1-10.10915-3.867c-3.54885-.48338-5.94184-1.79814-6.15473-3.47066a3.28178,3.28178,0,0,1,.90237-2.32984c2.7377-3.52866,6.92536-1.81749,14.00277-4.83375.05075-.01935.10144-.04832.15212-.06768-1.28775-1.16978-1.39927-2.3299-4.78585-3.49-4.6744-1.60484-8.57812-1.60484-1.56154-4.80477a59.63615,59.63615,0,0,1,10.84937-3.635c-2.99119-.76371-4.98866-.522-6.41838-2.67786-.27372-.40608-.88213-1.16011-.63879-1.89485.46644-1.37277,3.36635-1.03443,6.80368-1.79814,3.86318-.86042,5.45511-2.4652,7.44249-3.64466a31.2352,31.2352,0,0,1-5.76943-2.55224c-1.96708-1.1214-2.49436-1.61445-2.52481-2.20416-.12167-2.05918,5.445-4.53405,10.677-5.41383-2.9506-1.35341-4.75547-.5897-5.95194-2.50385a2.193,2.193,0,0,1-.42584-1.34379c.10137-.96675,1.2167-1.73046,2.87961-2.01086a96.84241,96.84241,0,0,0,9.298-2.79386c.01015,0,.0203-.00968.03045-.00968a9.12023,9.12023,0,0,1-2.00762.22234c-.49689-.07736-.53743-.26105-1.23706-.60906-2.91006-1.44045-4.6338-.61874-5.75928-2.31055-.16221-.24168-.51713-.68635-.37516-1.1214.27379-.8121,1.98738-.60906,4.00515-1.05378a8.868,8.868,0,0,0,3.09256-1.31477,3.48342,3.48342,0,0,1-.35486-.78306,3.13144,3.13144,0,0,1-.25349-1.45013c.18251-1.05372,1.31814-.79274,2.64642-1.38244,1.49049-.65739,2.10905-1.86582,2.87961-2.75522.05075-.64776.09128-1.08275.09128-1.08275.01015,0,.6388-.00968,1.2573-1.58548.46644-1.15044-.40561-1.58549-.19265-2.17519.11152-.30937.35492-.3384.83145-.77339,1.96708-1.82717.8416-2.9196,3.1534-3.62531a3.40384,3.40384,0,0,1,1.52094-.24169c1.10524.174.8213,1.25677,1.43986,2.5232,1.06465,2.20416,3.54886,2.41688,3.9747,4.23437.20281.8894-.29408,1.19876-.8213,2.4072q.213.04345.45629.116c2.47407.74441,5.18132,3.06457,5.12048,4.97878a1.86862,1.86862,0,0,1-.44614,1.1214c2.94044.80242,5.51594,2.16551,5.445,3.3353-.0203.4157-.38531.76371-1.76428,1.54678a27.14081,27.14081,0,0,1-6.28655,2.47487,8.20341,8.20341,0,0,0,1.60207.51241c4.654,1.0634,7.25992-.9861,8.99381.96675a3.72657,3.72657,0,0,1,.89229,2.90025c-.36507,2.32016-3.61984,3.693-6.81384,4.53406a13.30942,13.30942,0,0,0,5.009,2.24286c2.88982.64771,5.33344.35769,5.71874,1.51775.20281.609-.30417,1.24714-.53742,1.59516-1.602,2.40719-4.06593,1.23746-8.22319,3.29665a7.03943,7.03943,0,0,0-.74018.42531c6.23581,1.03443,12.86715,3.98306,12.715,6.42891-.04054.70571-.659,1.29547-3.00128,2.62959a32.38416,32.38416,0,0,1-3.45764,1.73046,13.23477,13.23477,0,0,0,1.28775.59938c6.29665,2.50391,10.02807,1.07308,12.47168,4.012a2.62141,2.62141,0,0,1,.81116,1.92383c-.19266,1.39212-2.322,2.48455-5.48549,2.88089a10.07342,10.07342,0,0,1-1.67306,2.02053,56.55728,56.55728,0,0,1,6.92536,2.83257C825.26012,514.67406,820.87981,514.67406,815.6376,516.60756Z"/>
      <path class="cls-1" d="M541.21736,539.27906c3.98237,1.53759,2.65232,3.07519,5.97353,4.62813,3.31352,1.553,3.31352.75345,12.60061,2.29105a59.09722,59.09722,0,0,0,6.02739.7611v10.00207h3.10593V546.93625h.00769c3.88242-.29979,3.54415-1.41456,8.44909-2.27561,4.42828-.77649,5.48922,0,9.22557-.7688a23.6601,23.6601,0,0,0,7.66489-3.07519c2.69079-.3844,4.50519-1.42995,4.66661-2.76a2.67948,2.67948,0,0,0-.68419-1.85278c-2.07577-2.80613-5.25091-1.44535-10.6171-3.844-.03848-.01539-.07691-.03843-.11534-.05382.97639-.93027,1.061-1.85283,3.6287-2.77535,3.5442-1.27623,6.50405-1.27623,1.184-3.821a43.76209,43.76209,0,0,0-8.22614-2.89069c2.268-.60733,3.78247-.41513,4.8665-2.12954.20754-.32293.66885-.92257.48435-1.50686-.35367-1.09168-2.55242-.82262-5.15865-1.43-2.92912-.68424-4.13614-1.96043-5.643-2.89839a23.13388,23.13388,0,0,0,4.37446-2.02963c1.49147-.89179,1.89126-1.28388,1.91435-1.75284.09225-1.63754-4.12849-3.60566-8.09547-4.30529,2.23718-1.07629,3.60567-.469,4.51284-1.99116a1.80143,1.80143,0,0,0,.32288-1.06864c-.07686-.7688-.92252-1.37614-2.18336-1.59912a70.89707,70.89707,0,0,1-7.04986-2.22179c-.00769,0-.01539-.00769-.02308-.00769a6.60644,6.60644,0,0,0,1.5222.17681c.37675-.06152.40749-.20759.938-.48435,2.20644-1.1455,3.51341-.492,4.36676-1.83744.123-.1922.3921-.54581.28446-.89178-.2076-.64581-1.50687-.48435-3.03677-.838a6.5679,6.5679,0,0,1-2.34482-1.04556,2.83629,2.83629,0,0,0,.26906-.62272,2.59709,2.59709,0,0,0,.1922-1.1532c-.13838-.838-.99943-.63042-2.00655-1.09937a6.24422,6.24422,0,0,1-2.18336-2.19106c-.03848-.51513-.06921-.861-.06921-.861-.0077,0-.48435-.00769-.9533-1.26084-.35367-.91487.30753-1.26084.14607-1.72979-.08456-.246-.26911-.26911-.63042-.615-1.49147-1.453-.63812-2.32179-2.39095-2.883a2.47362,2.47362,0,0,0-1.1532-.1922c-.838.13837-.62272.99942-1.09172,2.00655-.80723,1.75283-2.6908,1.922-3.01368,3.36734-.15377.70728.223.9533.62273,1.91429q-.16147.03456-.346.09226c-1.87587.592-3.92855,2.43707-3.88242,3.95932a1.52867,1.52867,0,0,0,.33827.89179c-2.22949.63811-4.18226,1.7221-4.12844,2.65236.01539.33058.29215.60733,1.3377,1.23006a20.00938,20.00938,0,0,0,4.76656,1.96812,6.01695,6.01695,0,0,1-1.21472.40749c-3.52875.84565-5.50457-.78419-6.81923.76879a3.06036,3.06036,0,0,0-.67655,2.3064c.27681,1.84508,2.74462,2.93681,5.16635,3.60566a9.8801,9.8801,0,0,1-3.79786,1.78362c-2.19111.51508-4.04389.28445-4.336,1.207-.15377.48434.23063.99178.40748,1.26853,1.21467,1.9143,3.08284.98409,6.23494,2.62163a5.28034,5.28034,0,0,1,.56121.33823c-4.72808.82262-9.756,3.16749-9.64071,5.11252.03073.56121.49969,1.03021,2.27561,2.09116a24.11943,24.11943,0,0,0,2.62163,1.37613,9.82769,9.82769,0,0,1-.97639.47665c-4.77421,1.9912-7.60342.85335-9.4562,3.19053a2.134,2.134,0,0,0-.615,1.5299c.14607,1.10707,1.76053,1.97581,4.15917,2.291a7.95941,7.95941,0,0,0,1.26854,1.60681,41.768,41.768,0,0,0-5.25091,2.25257C533.92143,537.74146,537.24264,537.74146,541.21736,539.27906Z"/>
      <path class="cls-1" d="M569.43873,528.75851c6.12656,2.36547,4.08038,4.73094,9.1898,7.12,5.09759,2.38914,5.09759,1.15913,19.385,3.5246a90.917,90.917,0,0,0,9.27267,1.17089v15.38739h4.77822V540.5385h.01184c5.97279-.46121,5.45239-2.17619,12.99824-3.50084,6.81256-1.19458,8.44474,0,14.19281-1.18274a36.39959,36.39959,0,0,0,11.79183-4.73094c4.13957-.59136,6.93088-2.19987,7.17921-4.246a4.12218,4.12218,0,0,0-1.05258-2.85035c-3.1934-4.317-8.0781-2.22355-16.33356-5.91368-.05919-.02367-.11832-.05912-.17744-.0828,1.5021-1.43113,1.63218-2.85043,5.58247-4.26965,5.45246-1.96338,10.006-1.96338,1.82146-5.87823a67.32488,67.32488,0,0,0-12.65527-4.44709c3.48908-.93434,5.819-.63865,7.48673-3.27613.31929-.4968,1.029-1.41929.74512-2.31818-.54408-1.67947-3.92668-1.26554-7.93617-2.19987-4.50622-1.05265-6.36312-3.016-8.6813-4.45893a35.59058,35.59058,0,0,0,6.72976-3.12244c2.29451-1.37194,2.90955-1.97515,2.94507-2.6966.14192-2.51923-6.35135-5.547-12.45423-6.62335,3.44173-1.65579,5.547-.72145,6.94265-3.06325a2.77135,2.77135,0,0,0,.49672-1.644c-.11824-1.18274-1.41922-2.11707-3.35892-2.46011a109.07353,109.07353,0,0,1-10.84566-3.418c-.01184,0-.02367-.01184-.03551-.01184a10.16306,10.16306,0,0,0,2.34179.272c.5796-.09464.62688-.31936,1.443-.74513,3.39444-1.76226,5.40511-.757,6.71792-2.82675.18921-.29569.60321-.8397.43761-1.37194-.31936-.99353-2.31818-.74513-4.67181-1.28922a10.10393,10.10393,0,0,1-3.60733-1.6085,4.364,4.364,0,0,0,.41393-.958,3.99546,3.99546,0,0,0,.29568-1.7741c-.21288-1.28914-1.53754-.96985-3.08692-1.6913-1.73858-.80426-2.46011-2.28267-3.35892-3.37077-.0592-.79248-.10648-1.32466-.10648-1.32466-.01184,0-.74513-.01183-1.46658-1.9397-.54409-1.40745.47312-1.9397.22472-2.66115-.13008-.37848-.414-.414-.96985-.94617-2.29451-2.23539-.98169-3.57188-3.67829-4.43526a3.80575,3.80575,0,0,0-1.7741-.29568c-1.28921.21288-.958,1.53754-1.67953,3.08692-1.24186,2.6966-4.13957,2.95683-4.6363,5.18038-.23656,1.0881.343,1.46658.958,2.945q-.2484.05316-.53225.14192c-2.88587.91073-6.04375,3.74925-5.97279,6.09111a2.3518,2.3518,0,0,0,.52041,1.37194c-3.42989.98169-6.43408,2.64932-6.35128,4.08045.02367.50857.44944.93434,2.05794,1.89235a30.78282,30.78282,0,0,0,7.333,3.0278,9.256,9.256,0,0,1-1.86874.62688c-5.42871,1.301-8.46835-1.20641-10.49085,1.18273a4.70812,4.70812,0,0,0-1.04081,3.54821c.42584,2.83852,4.22237,4.51805,7.948,5.547a15.19952,15.19952,0,0,1-5.84271,2.744c-3.37083.79241-6.22119.4376-6.67064,1.85683-.23656.74513.35481,1.52577.62689,1.95154,1.86866,2.945,4.7427,1.51393,9.592,4.03316a8.12668,8.12668,0,0,1,.86337.52034c-7.27378,1.26553-15.00891,4.87293-14.83147,7.86521.04729.86337.76874,1.5849,3.50085,3.21708a37.10041,37.10041,0,0,0,4.03317,2.11706,15.11616,15.11616,0,0,1-1.5021.73329c-7.34473,3.06332-11.69726,1.31282-14.54762,4.90838a3.28312,3.28312,0,0,0-.94617,2.35363c.22472,1.70314,2.70843,3.03964,6.39856,3.52453a12.24484,12.24484,0,0,0,1.95154,2.47194,64.25538,64.25538,0,0,0-8.0781,3.46541C558.21452,526.39305,563.324,526.39305,569.43873,528.75851Z"/>
      <path class="cls-1" d="M616.21261,533.80852c5.17341,1.99746,3.44557,3.99491,7.76009,6.01231,4.30452,2.01745,4.30452.97879,16.36919,2.97625a76.769,76.769,0,0,0,7.83006.98873v12.99348h4.03485V543.75582h.01c5.04357-.38945,4.60412-1.83762,10.976-2.9562,5.75269-1.00872,7.13094,0,11.98476-.99873a30.7367,30.7367,0,0,0,9.9573-3.99491c3.49555-.49937,5.8526-1.85763,6.06229-3.58547a3.48085,3.48085,0,0,0-.88882-2.40691c-2.69658-3.64539-6.82134-1.87762-13.79245-4.99365-.05-.02-.09991-.04992-.14983-.06992,1.2684-1.20848,1.37825-2.407,4.714-3.6054,4.60419-1.65792,8.44927-1.65792,1.53808-4.96371a56.85114,56.85114,0,0,0-10.68642-3.75523c2.94627-.789,4.91374-.5393,6.322-2.76644.26961-.41951.86889-1.19849.6292-1.95754-.45943-1.41817-3.31579-1.06864-6.70149-1.85762-3.80516-.88888-5.37317-2.54675-7.3307-3.76523a30.05309,30.05309,0,0,0,5.68277-2.63666c1.93754-1.1585,2.4569-1.66786,2.48689-2.27707.11984-2.1273-5.36324-4.684-10.51665-5.59292,2.90627-1.39819,4.684-.60921,5.86253-2.58668a2.34018,2.34018,0,0,0,.41945-1.38824c-.09985-.99873-1.19842-1.78771-2.83635-2.07738a92.104,92.104,0,0,1-9.15834-2.88628c-.01,0-.02-.01-.03-.01a8.58146,8.58146,0,0,0,1.97747.22969c.48943-.07991.52935-.26968,1.21848-.6292,2.86635-1.4881,4.5642-.63921,5.67277-2.387.15977-.24968.50937-.70906.36953-1.1585-.26968-.839-1.95753-.62921-3.945-1.08864a8.53217,8.53217,0,0,1-3.04612-1.35826,3.68425,3.68425,0,0,0,.34953-.809,3.37381,3.37381,0,0,0,.24969-1.49809c-.17977-1.08858-1.29834-.819-2.60667-1.42818-1.46811-.67913-2.07738-1.92754-2.83636-2.84635-.05-.6692-.08991-1.11858-.08991-1.11858-.01,0-.62921-.01-1.23842-1.63793-.45944-1.18849.39952-1.63793.18976-2.24714-.10984-.3196-.34959-.34959-.819-.799-1.93754-1.88761-.829-3.01618-3.106-3.74523a3.21361,3.21361,0,0,0-1.49809-.24969c-1.08864.17977-.809,1.29834-1.41824,2.60667-1.04865,2.27707-3.49555,2.49683-3.915,4.37444-.19976.91882.28967,1.23842.809,2.48683q-.20976.04489-.44944.11984c-2.43691.769-5.1035,3.166-5.04358,5.14348a1.986,1.986,0,0,0,.43945,1.1585c-2.89628.829-5.43309,2.23715-5.36317,3.44563.02.42945.37952.789,1.73777,1.59794a25.99387,25.99387,0,0,0,6.19214,2.55675,7.81578,7.81578,0,0,1-1.578.52935c-4.58413,1.09858-7.15088-1.01872-8.85873.99873a3.97562,3.97562,0,0,0-.87888,2.99619c.35959,2.39692,3.56547,3.81516,6.71149,4.68405a12.835,12.835,0,0,1-4.93372,2.31706c-2.84642.66913-5.25333.36952-5.63285,1.56795-.19976.6292.2996,1.2884.52935,1.64792,1.578,2.48683,4.00486,1.27841,8.09968,3.40571a6.86205,6.86205,0,0,1,.72906.43938c-6.14215,1.06865-12.67388,4.11482-12.524,6.64157.03993.72906.64914,1.33833,2.9562,2.71658a31.3285,31.3285,0,0,0,3.4057,1.7877,12.76388,12.76388,0,0,1-1.2684.61921c-6.20207,2.58674-9.87745,1.10858-12.28436,4.14475a2.77237,2.77237,0,0,0-.799,1.98746c.18976,1.43818,2.28706,2.56675,5.4031,2.9762a10.33958,10.33958,0,0,0,1.64792,2.08737,54.2596,54.2596,0,0,0-6.82134,2.92627C606.73462,531.81106,611.04914,531.81106,616.21261,533.80852Z"/>
      <path class="cls-1" d="M638.34861,541.17065c7.02948,2.58772,4.68173,5.17544,10.54417,7.789,5.84886,2.61362,5.84886,1.268,22.242,3.85576,4.6004.72455,7.88442,1.12565,10.63926,1.28091v16.83313h5.48242v-16.872H687.27c6.85305-.50454,6.256-2.38066,14.91389-3.82977,7.81658-1.30682,9.68931,0,16.28452-1.29386a42.92159,42.92159,0,0,0,13.52968-5.17545c4.74965-.64693,7.95234-2.40656,8.23726-4.645a4.39221,4.39221,0,0,0-1.2077-3.11817c-3.664-4.72262-9.26863-2.43246-18.74077-6.4693-.06792-.0259-.13575-.06468-.20359-.09058,1.72347-1.5656,1.87273-3.11825,6.40521-4.67081,6.256-2.14786,11.48061-2.14786,2.0899-6.43053a79.81591,79.81591,0,0,0-14.52038-4.86493c4.00329-1.02212,6.67663-.69865,8.5901-3.58394.36635-.54348,1.18063-1.55264.85495-2.536-.62427-1.83726-4.5054-1.38444-9.10579-2.40656-5.17033-1.15156-7.3009-3.29933-9.96074-4.87788a41.80315,41.80315,0,0,0,7.72158-3.41581c2.63267-1.50084,3.33836-2.16073,3.37911-2.95.16284-2.75593-7.2874-6.06821-14.2897-7.24567,3.949-1.81135,6.36453-.78923,7.96583-3.35105a2.935,2.935,0,0,0,.56994-1.79848c-.13567-1.29386-1.62839-2.316-3.854-2.69126a129.611,129.611,0,0,1-12.44406-3.73919c-.01359,0-.02717-.01295-.04075-.01295a12.20516,12.20516,0,0,0,2.68692.29756c.665-.10353.71927-.34937,1.65563-.81514,3.89471-1.92784,6.2017-.82809,7.708-3.09234.21709-.32347.6921-.91859.5021-1.50085-.36643-1.08687-2.65984-.81513-5.36034-1.41034a11.86856,11.86856,0,0,1-4.139-1.75963,4.66215,4.66215,0,0,0,.47494-1.048,4.19093,4.19093,0,0,0,.33926-1.94079c-.24426-1.41027-1.76414-1.061-3.54187-1.85021-1.99481-.87982-2.82267-2.49715-3.854-3.68747-.06792-.86695-.12217-1.44912-.12217-1.44912-.01359,0-.855-.01295-1.68272-2.122-.62427-1.5397.54285-2.12195.25784-2.91119-.14926-.414-.475-.4529-1.11279-1.03507-2.63266-2.44541-1.12637-3.90748-4.22038-4.852a4.55572,4.55572,0,0,0-2.03557-.32346c-1.47921.23289-1.0992,1.682-1.92706,3.377-1.42488,2.95-4.74965,3.23465-5.31958,5.66711-.27143,1.19033.39359,1.60437,1.0992,3.2217q-.285.05815-.61069.15526c-3.31119.99629-6.93447,4.10151-6.85305,6.66341a2.50083,2.50083,0,0,0,.5971,1.50084c-3.93537,1.07393-7.38232,2.89824-7.28731,4.46383.02716.55636.51568,1.02213,2.36124,2.07015a36.32462,36.32462,0,0,0,8.41368,3.31228,10.97916,10.97916,0,0,1-2.14415.68578c-6.22878,1.42322-9.71639-1.31976-12.037,1.29386a4.98746,4.98746,0,0,0-1.1942,3.88158c.4886,3.10522,4.84465,4.94256,9.11937,6.06821a17.81275,17.81275,0,0,1-6.70379,3.00177c-3.86763.86686-7.13807.47872-7.65375,2.03129-.27142.81514.4071,1.66913.71927,2.1349,2.14407,3.2217,5.44168,1.65618,11.00561,4.41211a9.42193,9.42193,0,0,1,.99061.56922c-8.34577,1.38444-17.22088,5.33078-17.01729,8.6042.05425.94449.882,1.73381,4.01679,3.51934a43.34015,43.34015,0,0,0,4.62757,2.316,17.70915,17.70915,0,0,1-1.72348.80219c-8.42718,3.35113-13.42117,1.43617-16.69161,5.36955a3.50838,3.50838,0,0,0-1.08562,2.57477c.25784,1.86316,3.1076,3.32523,7.34157,3.85568a13.48166,13.48166,0,0,0,2.23915,2.7042,75.69536,75.69536,0,0,0-9.26863,3.791C625.4702,538.58293,631.33264,538.58293,638.34861,541.17065Z"/>
      <path class="cls-1" d="M696.62133,523.94143c5.2523,1.9335,3.49811,3.867,7.87842,5.81979,4.37016,1.95286,4.37016.94746,16.6188,2.881,3.43734.54137,5.8911.84106,7.94946.95707v12.57742h4.09638V533.57022h.01015c5.12048-.377,4.67433-1.77879,11.14339-2.86154,5.84042-.97643,7.23969,0,12.16751-.96675a32.07036,32.07036,0,0,0,10.10914-3.867c3.54886-.48338,5.94185-1.79814,6.15474-3.47066a3.28175,3.28175,0,0,0-.90238-2.32984c-2.7377-3.52866-6.92535-1.81749-14.00277-4.83375-.05074-.01935-.10143-.04832-.15212-.06768,1.28775-1.16978,1.39927-2.3299,4.78586-3.49,4.6744-1.60484,8.57812-1.60484,1.56154-4.80477a59.63621,59.63621,0,0,0-10.84938-3.635c2.9912-.76371,4.98867-.522,6.41838-2.67786.27373-.40608.88214-1.16011.6388-1.89485-.46644-1.37277-3.36635-1.03443-6.80369-1.79814-3.86318-.86042-5.4551-2.4652-7.44248-3.64466a31.23578,31.23578,0,0,0,5.76943-2.55224c1.96708-1.1214,2.49436-1.61445,2.52481-2.20416.12167-2.05918-5.445-4.53405-10.677-5.41383,2.95059-1.35341,4.75547-.5897,5.95193-2.50385a2.193,2.193,0,0,0,.42585-1.34379c-.10137-.96675-1.2167-1.73046-2.87961-2.01086a96.84241,96.84241,0,0,1-9.298-2.79386c-.01015,0-.0203-.00968-.03045-.00968a9.12023,9.12023,0,0,0,2.00762.22234c.49689-.07736.53742-.261,1.23706-.60906,2.91-1.44045,4.6338-.61873,5.75928-2.31055.1622-.24168.51713-.68635.37516-1.1214-.27379-.8121-1.98739-.60906-4.00515-1.05378a8.868,8.868,0,0,1-3.09257-1.31477,3.48342,3.48342,0,0,0,.35486-.78306,3.13118,3.13118,0,0,0,.25349-1.45013c-.1825-1.05372-1.31813-.79274-2.64641-1.38244-1.49049-.65739-2.10905-1.86582-2.87961-2.75522-.05075-.64776-.09129-1.08275-.09129-1.08275-.01014,0-.63879-.00968-1.25729-1.58548-.46645-1.15044.4056-1.58549.19265-2.17519-.11152-.30937-.35492-.3384-.83145-.77339-1.96709-1.82717-.84161-2.9196-3.1534-3.62531a3.40389,3.40389,0,0,0-1.52094-.24169c-1.10524.174-.8213,1.25677-1.43987,2.52321-1.06464,2.20415-3.54885,2.41687-3.9747,4.23436-.2028.8894.29409,1.19876.82131,2.4072q-.213.04346-.4563.116c-2.47406.74441-5.18131,3.06458-5.12048,4.97878a1.86855,1.86855,0,0,0,.44615,1.1214c-2.94045.80242-5.51594,2.16551-5.445,3.3353.0203.4157.38531.76371,1.76428,1.54678a27.14085,27.14085,0,0,0,6.28656,2.47487,8.20318,8.20318,0,0,1-1.60207.51241c-4.654,1.0634-7.25992-.9861-8.99381.96675a3.72653,3.72653,0,0,0-.89229,2.90025c.36507,2.32016,3.61984,3.693,6.81383,4.53406a13.30942,13.30942,0,0,1-5.009,2.24286c-2.88982.64771-5.33343.35769-5.71874,1.51775-.2028.609.30418,1.24714.53743,1.59516,1.602,2.40719,4.06592,1.23747,8.22319,3.29665a7.03805,7.03805,0,0,1,.74017.42531c-6.23581,1.03443-12.86714,3.98306-12.715,6.42891.04054.70571.659,1.29547,3.00128,2.62959a32.384,32.384,0,0,0,3.45763,1.73046,13.23247,13.23247,0,0,1-1.28775.59938c-6.29664,2.50391-10.02806,1.07308-12.47168,4.012a2.62142,2.62142,0,0,0-.81115,1.92383c.19265,1.39212,2.32194,2.48455,5.48549,2.88089a10.073,10.073,0,0,0,1.67306,2.02053,56.55887,56.55887,0,0,0-6.92536,2.83257C686.99881,522.00793,691.37912,522.00793,696.62133,523.94143Z"/>
      <path class="cls-1" d="M344.81608,545.27906c3.98236,1.53759,2.65231,3.07519,5.97352,4.62813,3.31352,1.553,3.31352.75345,12.60061,2.29105a59.09769,59.09769,0,0,0,6.0274.7611v10.00207h3.10592V552.93625h.0077c3.88242-.29979,3.54415-1.41456,8.44908-2.27561,4.42828-.77649,5.48923,0,9.22557-.7688a23.66027,23.66027,0,0,0,7.6649-3.07519c2.69079-.3844,4.50519-1.42995,4.66661-2.76a2.67948,2.67948,0,0,0-.6842-1.85278c-2.07576-2.80613-5.2509-1.44535-10.6171-3.844-.03847-.01539-.0769-.03843-.11533-.05382.97638-.93027,1.06094-1.85283,3.6287-2.77535,3.54419-1.27623,6.50405-1.27623,1.184-3.821a43.76216,43.76216,0,0,0-8.22615-2.89069c2.268-.60733,3.78247-.41513,4.86651-2.12954.20754-.32293.66885-.92257.48434-1.50686-.35366-1.09168-2.55241-.82262-5.15865-1.43-2.92912-.68424-4.13613-1.96043-5.643-2.89839a23.13423,23.13423,0,0,0,4.37447-2.02963c1.49147-.89179,1.89126-1.28388,1.91434-1.75284.09225-1.63754-4.12849-3.60566-8.09546-4.30529,2.23718-1.07629,3.60566-.469,4.51284-1.99116a1.80143,1.80143,0,0,0,.32288-1.06864c-.07686-.7688-.92252-1.37614-2.18336-1.59912a70.89621,70.89621,0,0,1-7.04986-2.22179c-.0077,0-.01539-.00769-.02309-.00769a6.60646,6.60646,0,0,0,1.52221.17681c.37675-.06152.40748-.20759.938-.48435,2.20645-1.1455,3.51341-.492,4.36677-1.83744.123-.1922.39209-.54581.28445-.89178-.20759-.64581-1.50686-.48435-3.03676-.838a6.56782,6.56782,0,0,1-2.34482-1.04556,2.83677,2.83677,0,0,0,.26906-.62272,2.59723,2.59723,0,0,0,.1922-1.1532c-.13838-.838-.99943-.63042-2.00656-1.09937a6.24422,6.24422,0,0,1-2.18336-2.19106c-.03847-.51513-.06921-.861-.06921-.861-.00769,0-.48434-.00769-.9533-1.26084-.35366-.91487.30754-1.26084.14607-1.72979-.08455-.246-.2691-.26911-.63042-.615-1.49147-1.453-.63811-2.32179-2.39095-2.883a2.47358,2.47358,0,0,0-1.15319-.1922c-.838.13837-.62273.99942-1.09173,2.00655-.80723,1.75283-2.69079,1.922-3.01367,3.36734-.15377.70728.223.9533.62272,1.91429q-.16146.03456-.346.09226c-1.87587.592-3.92854,2.43707-3.88242,3.95932a1.52876,1.52876,0,0,0,.33828.89179c-2.22949.63811-4.18227,1.7221-4.12845,2.65236.0154.33058.29215.60733,1.33771,1.23006a20.00935,20.00935,0,0,0,4.76655,1.96812,6.01661,6.01661,0,0,1-1.21471.40749c-3.52876.84565-5.50457-.78419-6.81924.76879a3.06035,3.06035,0,0,0-.67654,2.3064c.2768,1.84508,2.74461,2.93681,5.16634,3.60566a9.8801,9.8801,0,0,1-3.79786,1.78362c-2.1911.51508-4.04388.28445-4.336,1.207-.15377.48434.23063.99178.40749,1.26853,1.21466,1.9143,3.08284.98409,6.23494,2.62163a5.281,5.281,0,0,1,.5612.33823c-4.72808.82262-9.756,3.16749-9.64071,5.11252.03074.56121.49969,1.03021,2.27562,2.09116a24.11841,24.11841,0,0,0,2.62162,1.37613,9.82769,9.82769,0,0,1-.97639.47665c-4.7742,1.9912-7.60342.85335-9.4562,3.19053a2.13412,2.13412,0,0,0-.615,1.5299c.14608,1.10707,1.76053,1.97581,4.15918,2.291a7.95911,7.95911,0,0,0,1.26853,1.60681,41.7685,41.7685,0,0,0-5.2509,2.25257C337.52015,543.74146,340.84136,543.74146,344.81608,545.27906Z"/>
      <path class="cls-1" d="M373.03745,534.75851c6.12656,2.36547,4.08038,4.73094,9.1898,7.12,5.09758,2.38914,5.09758,1.15913,19.385,3.5246A90.91732,90.91732,0,0,0,410.885,546.574v15.38739h4.77823V546.5385h.01183c5.9728-.46121,5.45239-2.17619,12.99825-3.50084,6.81256-1.19458,8.44474,0,14.19281-1.18274A36.39968,36.39968,0,0,0,454.6579,537.124c4.13957-.59136,6.93088-2.19987,7.1792-4.246a4.12213,4.12213,0,0,0-1.05257-2.85035c-3.1934-4.317-8.0781-2.22355-16.33356-5.91368-.0592-.02367-.11832-.05912-.17744-.0828,1.50209-1.43113,1.63218-2.85043,5.58247-4.26965,5.45246-1.96338,10.006-1.96338,1.82146-5.87823a67.32519,67.32519,0,0,0-12.65528-4.44709c3.48908-.93434,5.819-.63865,7.48673-3.27613.31929-.4968,1.029-1.41929.74513-2.31818-.54408-1.67947-3.92669-1.26554-7.93617-2.19987-4.50622-1.05265-6.36312-3.016-8.68131-4.45893a35.59058,35.59058,0,0,0,6.72976-3.12244c2.29451-1.37194,2.90956-1.97515,2.94507-2.6966.14193-2.51923-6.35135-5.547-12.45422-6.62335,3.44172-1.65579,5.547-.72145,6.94264-3.06325a2.77142,2.77142,0,0,0,.49673-1.644c-.11825-1.18274-1.41922-2.11707-3.35893-2.46011a109.07405,109.07405,0,0,1-10.84565-3.418c-.01184,0-.02368-.01184-.03552-.01184a10.16306,10.16306,0,0,0,2.34179.272c.5796-.09464.62689-.31936,1.443-.74513,3.39444-1.76226,5.4051-.757,6.71792-2.82675.18921-.29569.60321-.8397.43761-1.37194-.31937-.99353-2.31819-.74513-4.67182-1.28922a10.10409,10.10409,0,0,1-3.60733-1.6085,4.363,4.363,0,0,0,.41393-.958,3.99545,3.99545,0,0,0,.29569-1.7741c-.21289-1.28914-1.53754-.96985-3.08692-1.6913-1.73859-.80426-2.46011-2.28267-3.35893-3.37077-.05919-.79248-.10648-1.32466-.10648-1.32466-.01184,0-.74513-.01183-1.46658-1.9397-.54408-1.40745.47313-1.9397.22473-2.66115-.13009-.37848-.414-.414-.96985-.94617-2.29451-2.23539-.98169-3.57188-3.67829-4.43526a3.8058,3.8058,0,0,0-1.7741-.29568c-1.28922.21288-.958,1.53754-1.67954,3.08692-1.24186,2.6966-4.13957,2.95683-4.6363,5.18038-.23656,1.0881.343,1.46658.958,2.945q-.2484.05316-.53224.14192c-2.88588.91073-6.04376,3.74925-5.9728,6.09111a2.35187,2.35187,0,0,0,.52041,1.37194c-3.42989.98169-6.43408,2.64932-6.35128,4.08045.02368.50857.44945.93434,2.058,1.89235a30.78265,30.78265,0,0,0,7.333,3.0278,9.25618,9.25618,0,0,1-1.86874.62688c-5.42871,1.301-8.46835-1.20641-10.49085,1.18273a4.70808,4.70808,0,0,0-1.04081,3.54821c.42583,2.83852,4.22237,4.51805,7.948,5.547a15.19967,15.19967,0,0,1-5.84271,2.744c-3.37084.79241-6.2212.4376-6.67064,1.85683-.23656.74513.3548,1.52577.62688,1.95154,1.86867,2.945,4.74271,1.51393,9.592,4.03316a8.12565,8.12565,0,0,1,.86337.52034c-7.27377,1.26553-15.0089,4.87293-14.83146,7.86521.04728.86337.76873,1.5849,3.50085,3.21708a37.10123,37.10123,0,0,0,4.03316,2.11706,15.11463,15.11463,0,0,1-1.50209.73329c-7.34474,3.06332-11.69727,1.31282-14.54762,4.90838a3.28317,3.28317,0,0,0-.94618,2.35363c.22473,1.70314,2.70844,3.03964,6.39856,3.52453a12.24469,12.24469,0,0,0,1.95155,2.47194,64.25475,64.25475,0,0,0-8.0781,3.46541C361.81324,532.39305,366.92266,532.39305,373.03745,534.75851Z"/>
      <path class="cls-1" d="M419.81133,539.80852c5.17341,1.99746,3.44556,3.99491,7.76008,6.01231,4.30452,2.01745,4.30452.97879,16.36919,2.97625a76.76945,76.76945,0,0,0,7.83007.98873v12.99348h4.03484V549.75582h.01c5.04357-.38945,4.60413-1.83762,10.976-2.9562,5.75269-1.00872,7.13094,0,11.98475-.99873a30.7365,30.7365,0,0,0,9.9573-3.99491c3.49556-.49937,5.85261-1.85763,6.0623-3.58547a3.48089,3.48089,0,0,0-.88882-2.40691c-2.69659-3.64539-6.82134-1.87762-13.79245-4.99365-.05-.02-.09991-.04992-.14984-.06992,1.26841-1.20848,1.37825-2.407,4.714-3.6054,4.60418-1.65792,8.44927-1.65792,1.53808-4.96371a56.85114,56.85114,0,0,0-10.68642-3.75523c2.94626-.789,4.91373-.5393,6.322-2.76644.26962-.41951.86889-1.19849.62921-1.95754-.45944-1.41817-3.31579-1.06864-6.7015-1.85762-3.80515-.88888-5.37317-2.54675-7.3307-3.76523a30.05309,30.05309,0,0,0,5.68277-2.63666c1.93754-1.1585,2.4569-1.66786,2.48689-2.27707.11984-2.1273-5.36323-4.684-10.51665-5.59292,2.90628-1.39819,4.684-.60921,5.86254-2.58668a2.34025,2.34025,0,0,0,.41945-1.38824c-.09985-.99873-1.19843-1.78771-2.83636-2.07738a92.10447,92.10447,0,0,1-9.15833-2.88628c-.01,0-.02-.01-.03-.01a8.58138,8.58138,0,0,0,1.97746.22969c.48943-.07991.52936-.26968,1.21848-.6292,2.86635-1.4881,4.5642-.63921,5.67278-2.387.15977-.24968.50936-.70906.36952-1.1585-.26967-.839-1.95753-.62921-3.945-1.08864a8.53219,8.53219,0,0,1-3.04611-1.35826,3.68473,3.68473,0,0,0,.34953-.809,3.37382,3.37382,0,0,0,.24968-1.49809c-.17976-1.08858-1.29833-.819-2.60667-1.42818-1.4681-.67913-2.07737-1.92754-2.83635-2.84635-.05-.6692-.08992-1.11858-.08992-1.11858-.01,0-.6292-.01-1.23841-1.63793-.45944-1.18849.39951-1.63793.18976-2.24714-.10985-.3196-.34959-.34959-.819-.799-1.93753-1.88761-.829-3.01618-3.106-3.74523a3.21363,3.21363,0,0,0-1.49809-.24969c-1.08865.17977-.809,1.29834-1.41824,2.60667-1.04866,2.27707-3.49556,2.49683-3.915,4.37444-.19975.91882.28967,1.23842.809,2.48683q-.20976.04489-.44944.11984c-2.4369.769-5.10349,3.166-5.04357,5.14348a1.986,1.986,0,0,0,.43944,1.1585c-2.89628.829-5.43309,2.23715-5.36317,3.44563.02.42945.37952.789,1.73778,1.59794a25.99384,25.99384,0,0,0,6.19213,2.55675,7.81544,7.81544,0,0,1-1.578.52935c-4.58414,1.09858-7.15088-1.01872-8.85873.99873a3.97567,3.97567,0,0,0-.87889,2.99619c.35959,2.39692,3.56547,3.81516,6.7115,4.68405a12.83515,12.83515,0,0,1-4.93373,2.31706c-2.84641.66913-5.25333.36952-5.63285,1.56795-.19976.6292.29961,1.2884.52936,1.64792,1.57795,2.48683,4.00485,1.27841,8.09968,3.40571a6.86069,6.86069,0,0,1,.72905.43938c-6.14215,1.06865-12.67388,4.11482-12.524,6.64157.03992.72906.64913,1.33833,2.9562,2.71658a31.32758,31.32758,0,0,0,3.4057,1.7877,12.76428,12.76428,0,0,1-1.26841.61921c-6.20207,2.58674-9.87745,1.10858-12.28436,4.14475a2.77241,2.77241,0,0,0-.799,1.98746c.18976,1.43818,2.28707,2.56675,5.4031,2.9762a10.33943,10.33943,0,0,0,1.64793,2.08737,54.2596,54.2596,0,0,0-6.82134,2.92627C410.33333,537.81106,414.64785,537.81106,419.81133,539.80852Z"/>
      <path class="cls-1" d="M441.94733,547.17065c7.02947,2.58772,4.68173,5.17544,10.54417,7.789,5.84885,2.61362,5.84885,1.268,22.242,3.85576,4.60039.72455,7.88441,1.12565,10.63925,1.28091v16.83313h5.48243v-16.872h.01358c6.853-.50454,6.25595-2.38066,14.91389-3.82977,7.81659-1.30682,9.68931,0,16.28452-1.29386a42.92166,42.92166,0,0,0,13.52969-5.17545c4.74965-.64693,7.95233-2.40656,8.23726-4.645a4.39217,4.39217,0,0,0-1.20771-3.11817c-3.664-4.72262-9.26863-2.43246-18.74076-6.4693-.06792-.0259-.13576-.06468-.20359-.09058,1.72347-1.5656,1.87272-3.11825,6.4052-4.67081,6.256-2.14786,11.48062-2.14786,2.0899-6.43053a79.81566,79.81566,0,0,0-14.52038-4.86493c4.0033-1.02212,6.67663-.69865,8.59011-3.58394.36635-.54348,1.18062-1.55264.85494-2.536-.62427-1.83726-4.50539-1.38444-9.10579-2.40656-5.17033-1.15156-7.3009-3.29933-9.96073-4.87788a41.80373,41.80373,0,0,0,7.72158-3.41581c2.63267-1.50084,3.33836-2.16073,3.37911-2.95.16283-2.75593-7.2874-6.06821-14.28971-7.24567,3.949-1.81135,6.36454-.78923,7.96584-3.35105a2.935,2.935,0,0,0,.56993-1.79848c-.13567-1.29386-1.62838-2.316-3.85395-2.69126a129.61224,129.61224,0,0,1-12.44407-3.73919c-.01358,0-.02716-.01295-.04075-.01295a12.20516,12.20516,0,0,0,2.68692.29756c.665-.10353.71927-.34937,1.65564-.81514,3.8947-1.92784,6.20169-.82809,7.708-3.09234.21709-.32347.69211-.91859.5021-1.50085-.36643-1.08687-2.65983-.81513-5.36034-1.41034a11.8685,11.8685,0,0,1-4.139-1.75963,4.66217,4.66217,0,0,0,.47493-1.048,4.1908,4.1908,0,0,0,.33926-1.94079c-.24426-1.41027-1.76414-1.061-3.54186-1.85021-1.99481-.87982-2.82267-2.49715-3.854-3.68747-.06792-.86695-.12217-1.44912-.12217-1.44912-.01358,0-.85494-.01295-1.68272-2.122-.62427-1.5397.54285-2.12195.25784-2.91119-.14925-.414-.475-.4529-1.11278-1.03507-2.63267-2.44541-1.12637-3.90748-4.22039-4.852a4.55568,4.55568,0,0,0-2.03556-.32346c-1.47922.23289-1.0992,1.682-1.92706,3.377-1.42488,2.95-4.74965,3.23465-5.31959,5.66711-.27142,1.19033.3936,1.60437,1.0992,3.2217q-.285.05815-.61068.15526c-3.31119.99629-6.93448,4.10151-6.85306,6.66341a2.50091,2.50091,0,0,0,.59711,1.50084c-3.93538,1.07393-7.38232,2.89824-7.28732,4.46383.02717.55636.51568,1.02213,2.36124,2.07015a36.32465,36.32465,0,0,0,8.41369,3.31228,10.97961,10.97961,0,0,1-2.14415.68578c-6.22879,1.42322-9.7164-1.31976-12.037,1.29386a4.98751,4.98751,0,0,0-1.19421,3.88158c.4886,3.10522,4.84466,4.94256,9.11938,6.06821a17.81281,17.81281,0,0,1-6.7038,3.00177c-3.86762.86686-7.13806.47872-7.65374,2.03129-.27143.81514.40709,1.66913.71927,2.1349,2.14407,3.2217,5.44167,1.65618,11.0056,4.41211a9.42122,9.42122,0,0,1,.99062.56922c-8.34577,1.38444-17.22089,5.33078-17.0173,8.6042.05425.94449.882,1.73381,4.0168,3.51934a43.341,43.341,0,0,0,4.62756,2.316,17.70758,17.70758,0,0,1-1.72347.80219c-8.42719,3.35113-13.42118,1.43617-16.69162,5.36955a3.50834,3.50834,0,0,0-1.08561,2.57477c.25784,1.86316,3.1076,3.32523,7.34156,3.85568a13.48152,13.48152,0,0,0,2.23916,2.7042,75.69471,75.69471,0,0,0-9.26863,3.791C429.06892,544.58293,434.93135,544.58293,441.94733,547.17065Z"/>
      <path class="cls-1" d="M500.22005,529.94143c5.2523,1.9335,3.4981,3.867,7.87841,5.81979,4.37016,1.95286,4.37016.94746,16.61881,2.881,3.43733.54137,5.89109.84106,7.94946.95707v12.57742h4.09637V539.57022h.01015c5.12048-.377,4.67434-1.77879,11.1434-2.86154,5.84041-.97643,7.23968,0,12.16751-.96675a32.07046,32.07046,0,0,0,10.10914-3.867c3.54885-.48338,5.94184-1.79814,6.15473-3.47066a3.28174,3.28174,0,0,0-.90237-2.32984c-2.7377-3.52866-6.92536-1.81749-14.00277-4.83375-.05075-.01935-.10143-.04832-.15212-.06768,1.28775-1.16978,1.39927-2.3299,4.78586-3.49,4.67439-1.60484,8.57811-1.60484,1.56153-4.80477a59.63589,59.63589,0,0,0-10.84937-3.635c2.99119-.76371,4.98866-.522,6.41838-2.67786.27372-.40608.88214-1.16011.6388-1.89485-.46645-1.37277-3.36635-1.03443-6.80369-1.79814-3.86318-.86042-5.4551-2.4652-7.44249-3.64466a31.2352,31.2352,0,0,0,5.76943-2.55224c1.96709-1.1214,2.49436-1.61445,2.52481-2.20416.12167-2.05918-5.445-4.53405-10.677-5.41383,2.95059-1.35341,4.75547-.5897,5.95193-2.50385a2.193,2.193,0,0,0,.42584-1.34379c-.10137-.96675-1.2167-1.73046-2.8796-2.01086a96.84366,96.84366,0,0,1-9.298-2.79386c-.01015,0-.0203-.00968-.03045-.00968a9.12023,9.12023,0,0,0,2.00762.22234c.49689-.07736.53743-.261,1.23706-.60906,2.91006-1.44045,4.6338-.61873,5.75928-2.31055.16221-.24168.51713-.68635.37516-1.1214-.27379-.8121-1.98738-.60906-4.00515-1.05378a8.868,8.868,0,0,1-3.09256-1.31477,3.48342,3.48342,0,0,0,.35486-.78306,3.13144,3.13144,0,0,0,.25349-1.45013c-.18251-1.05372-1.31813-.79274-2.64642-1.38244-1.49049-.65739-2.10905-1.86582-2.87961-2.75522-.05074-.64776-.09128-1.08275-.09128-1.08275-.01015,0-.6388-.00968-1.2573-1.58548-.46644-1.15044.40561-1.58549.19266-2.17519-.11153-.30937-.35493-.3384-.83146-.77339-1.96708-1.82717-.8416-2.9196-3.1534-3.62531a3.40382,3.40382,0,0,0-1.52093-.24169c-1.10525.174-.82131,1.25677-1.43987,2.52321-1.06464,2.20415-3.54886,2.41687-3.9747,4.23436-.20281.8894.29409,1.19876.8213,2.4072q-.213.04346-.45629.116c-2.47406.74441-5.18132,3.06458-5.12048,4.97878a1.8686,1.8686,0,0,0,.44614,1.1214c-2.94044.80242-5.51594,2.16551-5.44495,3.3353.0203.4157.38531.76371,1.76428,1.54678a27.14068,27.14068,0,0,0,6.28656,2.47487,8.20308,8.20308,0,0,1-1.60208.51241c-4.654,1.0634-7.25992-.9861-8.99381.96675a3.72657,3.72657,0,0,0-.89229,2.90025c.36508,2.32016,3.61984,3.693,6.81384,4.53406a13.30942,13.30942,0,0,1-5.009,2.24286c-2.88982.64771-5.33343.35769-5.71874,1.51775-.20281.609.30417,1.24714.53742,1.59516,1.602,2.40719,4.06593,1.23747,8.2232,3.29665a7.04015,7.04015,0,0,1,.74017.42531c-6.23581,1.03443-12.86714,3.98306-12.715,6.42891.04054.70571.659,1.29547,3.00128,2.62959a32.3851,32.3851,0,0,0,3.45764,1.73046,13.23477,13.23477,0,0,1-1.28775.59938c-6.29664,2.50391-10.02807,1.07308-12.47168,4.012a2.62142,2.62142,0,0,0-.81116,1.92383c.19266,1.39212,2.32195,2.48455,5.48549,2.88089a10.07342,10.07342,0,0,0,1.67306,2.02053,56.55887,56.55887,0,0,0-6.92536,2.83257C490.59752,528.00793,494.97783,528.00793,500.22005,529.94143Z"/>
      <path class="cls-1" d="M177.81608,525.27906c3.98236,1.53759,2.65231,3.07519,5.97352,4.62813,3.31352,1.553,3.31352.75345,12.60061,2.29105a59.09769,59.09769,0,0,0,6.0274.7611v10.00207h3.10592V532.93625h.0077c3.88242-.29979,3.54415-1.41456,8.44908-2.27561,4.42828-.77649,5.48923,0,9.22557-.7688a23.66027,23.66027,0,0,0,7.6649-3.07519c2.69079-.3844,4.50519-1.42995,4.66661-2.76a2.67948,2.67948,0,0,0-.6842-1.85278c-2.07576-2.80613-5.2509-1.44535-10.6171-3.844-.03847-.01539-.0769-.03843-.11533-.05382.97638-.93027,1.06094-1.85283,3.6287-2.77535,3.54419-1.27623,6.50405-1.27623,1.184-3.82095a43.76216,43.76216,0,0,0-8.22615-2.89069c2.268-.60733,3.78247-.41513,4.86651-2.12954.20754-.32293.66885-.92257.48434-1.50686-.35366-1.09168-2.55241-.82262-5.15865-1.42995-2.92912-.68424-4.13613-1.96043-5.643-2.89839a23.13423,23.13423,0,0,0,4.37447-2.02963c1.49147-.89179,1.89126-1.28388,1.91434-1.75284.09225-1.63754-4.12849-3.60566-8.09546-4.30529,2.23718-1.07629,3.60566-.469,4.51284-1.99116a1.80143,1.80143,0,0,0,.32288-1.06864c-.07686-.7688-.92252-1.37614-2.18336-1.59912a70.89621,70.89621,0,0,1-7.04986-2.22179c-.0077,0-.01539-.00769-.02309-.00769a6.60646,6.60646,0,0,0,1.52221.17681c.37675-.06152.40748-.20759.938-.48435,2.20645-1.1455,3.51341-.492,4.36677-1.83744.123-.1922.39209-.54581.28445-.89178-.20759-.64581-1.50686-.48435-3.03676-.838a6.56782,6.56782,0,0,1-2.34482-1.04556,2.83677,2.83677,0,0,0,.26906-.62272,2.59723,2.59723,0,0,0,.1922-1.1532c-.13838-.838-.99943-.63042-2.00656-1.09937a6.24422,6.24422,0,0,1-2.18336-2.19106c-.03847-.51513-.06921-.861-.06921-.861-.00769,0-.48434-.00769-.9533-1.26084-.35366-.91487.30754-1.26084.14607-1.72979-.08455-.246-.2691-.26911-.63042-.615-1.49147-1.453-.63811-2.32179-2.391-2.883a2.47358,2.47358,0,0,0-1.15319-.1922c-.838.13837-.62273.99942-1.09173,2.00655-.80723,1.75283-2.69079,1.922-3.01367,3.36734-.15377.70728.223.9533.62272,1.91429q-.16146.03456-.346.09226c-1.87587.592-3.92854,2.43707-3.88242,3.95932a1.52876,1.52876,0,0,0,.33828.89179c-2.22949.63811-4.18227,1.7221-4.12845,2.65236.0154.33058.29215.60733,1.33771,1.23006a20.00935,20.00935,0,0,0,4.76655,1.96812,6.01661,6.01661,0,0,1-1.21471.40749c-3.52876.84565-5.50457-.78419-6.81924.76879a3.06035,3.06035,0,0,0-.67654,2.3064c.2768,1.84508,2.74461,2.93681,5.16634,3.60566a9.8801,9.8801,0,0,1-3.79786,1.78362c-2.1911.51508-4.04388.28445-4.336,1.207-.15377.48434.23063.99178.40749,1.26853,1.21466,1.9143,3.08284.98409,6.23494,2.62163a5.281,5.281,0,0,1,.5612.33823c-4.72808.82262-9.756,3.16749-9.64071,5.11252.03074.56121.49969,1.03021,2.27562,2.09116a24.11841,24.11841,0,0,0,2.62162,1.37613,9.82769,9.82769,0,0,1-.97639.47665c-4.7742,1.9912-7.60342.85335-9.4562,3.19053a2.13412,2.13412,0,0,0-.615,1.5299c.14608,1.10707,1.76053,1.97581,4.15918,2.291a7.95911,7.95911,0,0,0,1.26853,1.60681,41.7685,41.7685,0,0,0-5.2509,2.25257C170.52015,523.74146,173.84136,523.74146,177.81608,525.27906Z"/>
      <path class="cls-1" d="M206.03745,514.75851c6.12656,2.36547,4.08038,4.73094,9.1898,7.12,5.09758,2.38914,5.09758,1.15913,19.385,3.5246A90.91732,90.91732,0,0,0,243.885,526.574v15.38739h4.77823V526.5385h.01183c5.9728-.46121,5.45239-2.17619,12.99825-3.50084,6.81256-1.19458,8.44474,0,14.19281-1.18274A36.39968,36.39968,0,0,0,287.6579,517.124c4.13957-.59136,6.93088-2.19987,7.1792-4.246a4.12213,4.12213,0,0,0-1.05257-2.85035c-3.1934-4.317-8.0781-2.22355-16.33356-5.91368-.0592-.02367-.11832-.05912-.17744-.0828,1.50209-1.43113,1.63218-2.85043,5.58247-4.26965,5.45246-1.96338,10.006-1.96338,1.82146-5.87823a67.32519,67.32519,0,0,0-12.65528-4.44709c3.48908-.93434,5.819-.63865,7.48673-3.27613.31929-.4968,1.029-1.41929.74513-2.31818-.54408-1.67947-3.92669-1.26554-7.93617-2.19987-4.50622-1.05265-6.36312-3.016-8.68131-4.45893a35.59058,35.59058,0,0,0,6.72976-3.12244c2.29451-1.37194,2.90956-1.97515,2.94507-2.6966.14193-2.51923-6.35135-5.547-12.45422-6.62335,3.44172-1.65579,5.547-.72145,6.94264-3.06325a2.77142,2.77142,0,0,0,.49673-1.644c-.11825-1.18274-1.41922-2.11707-3.35893-2.46011a109.07405,109.07405,0,0,1-10.84565-3.418c-.01184,0-.02368-.01184-.03552-.01184a10.16306,10.16306,0,0,0,2.34179.272c.5796-.09464.62689-.31936,1.443-.74513,3.39444-1.76226,5.4051-.757,6.71792-2.82675.18921-.29569.60321-.8397.43761-1.37194-.31937-.99353-2.31819-.74513-4.67182-1.28922a10.10409,10.10409,0,0,1-3.60733-1.6085,4.363,4.363,0,0,0,.41393-.958,3.99545,3.99545,0,0,0,.29569-1.7741c-.21289-1.28914-1.53754-.96985-3.08692-1.6913-1.73859-.80426-2.46011-2.28267-3.35893-3.37077-.05919-.79248-.10648-1.32466-.10648-1.32466-.01184,0-.74513-.01183-1.46658-1.9397-.54408-1.40745.47313-1.9397.22473-2.66115-.13009-.37848-.414-.414-.96985-.94617-2.29451-2.23539-.98169-3.57188-3.67829-4.43526a3.8058,3.8058,0,0,0-1.7741-.29568c-1.28922.21288-.958,1.53754-1.67954,3.08692-1.24186,2.6966-4.13957,2.95683-4.6363,5.18038-.23656,1.0881.343,1.46658.958,2.945q-.2484.05316-.53224.14192c-2.88588.91073-6.04376,3.74925-5.9728,6.09111a2.35187,2.35187,0,0,0,.52041,1.37194c-3.42989.98169-6.43408,2.64932-6.35128,4.08045.02368.50857.44945.93434,2.05795,1.89235a30.78265,30.78265,0,0,0,7.333,3.0278,9.25618,9.25618,0,0,1-1.86874.62688c-5.42871,1.301-8.46835-1.20641-10.49085,1.18273a4.70808,4.70808,0,0,0-1.04081,3.54821c.42583,2.83852,4.22237,4.51805,7.948,5.547a15.19967,15.19967,0,0,1-5.84271,2.744c-3.37084.79241-6.2212.4376-6.67064,1.85683-.23656.74513.3548,1.52577.62688,1.95154,1.86867,2.945,4.74271,1.51393,9.592,4.03316a8.12565,8.12565,0,0,1,.86337.52034c-7.27377,1.26553-15.0089,4.87293-14.83146,7.86521.04728.86337.76873,1.5849,3.50085,3.21708a37.10123,37.10123,0,0,0,4.03316,2.11706,15.11463,15.11463,0,0,1-1.50209.73329c-7.34474,3.06332-11.69727,1.31282-14.54762,4.90838a3.28317,3.28317,0,0,0-.94618,2.35363c.22473,1.70314,2.70844,3.03964,6.39856,3.52453a12.24469,12.24469,0,0,0,1.95155,2.47194,64.25475,64.25475,0,0,0-8.0781,3.46541C194.81324,512.39305,199.92266,512.39305,206.03745,514.75851Z"/>
      <path class="cls-1" d="M252.81133,519.80852c5.17341,1.99746,3.44556,3.99491,7.76008,6.01231,4.30452,2.01745,4.30452.97879,16.36919,2.97625a76.76945,76.76945,0,0,0,7.83007.98873v12.99348h4.03484V529.75582h.01c5.04357-.38945,4.60413-1.83762,10.976-2.9562,5.75269-1.00872,7.13094,0,11.98475-.99873a30.7365,30.7365,0,0,0,9.9573-3.99491c3.49556-.49937,5.85261-1.85763,6.0623-3.58547a3.48089,3.48089,0,0,0-.88882-2.40691c-2.69659-3.64539-6.82134-1.87762-13.79245-4.99365-.05-.02-.09991-.04992-.14984-.06992,1.26841-1.20848,1.37825-2.407,4.714-3.6054,4.60418-1.65792,8.44927-1.65792,1.53808-4.96371a56.85114,56.85114,0,0,0-10.68642-3.75523c2.94626-.789,4.91373-.5393,6.322-2.76644.26962-.41951.86889-1.19849.62921-1.95754-.45944-1.41817-3.31579-1.06864-6.7015-1.85762-3.80515-.88888-5.37317-2.54675-7.3307-3.76523a30.05309,30.05309,0,0,0,5.68277-2.63666c1.93754-1.1585,2.4569-1.66786,2.48689-2.27707.11984-2.1273-5.36323-4.684-10.51665-5.59292,2.90628-1.39819,4.684-.60921,5.86254-2.58668a2.34025,2.34025,0,0,0,.41945-1.38824c-.09985-.99873-1.19843-1.78771-2.83636-2.07738a92.10447,92.10447,0,0,1-9.15833-2.88628c-.01,0-.02-.01-.03-.01a8.58138,8.58138,0,0,0,1.97746.22969c.48943-.07991.52936-.26968,1.21848-.6292,2.86635-1.4881,4.5642-.63921,5.67278-2.387.15977-.24968.50936-.70906.36952-1.1585-.26967-.839-1.95753-.62921-3.945-1.08864a8.53219,8.53219,0,0,1-3.04611-1.35826,3.68473,3.68473,0,0,0,.34953-.809,3.37382,3.37382,0,0,0,.24968-1.49809c-.17976-1.08858-1.29833-.819-2.60667-1.42818-1.4681-.67913-2.07737-1.92754-2.83635-2.84635-.05-.6692-.08992-1.11858-.08992-1.11858-.01,0-.6292-.01-1.23841-1.63793-.45944-1.18849.39951-1.63793.18976-2.24714-.10985-.3196-.34959-.34959-.819-.799-1.93753-1.88761-.829-3.01618-3.106-3.74523a3.21363,3.21363,0,0,0-1.49809-.24969c-1.08865.17977-.809,1.29834-1.41824,2.60667-1.04866,2.27707-3.49556,2.49683-3.915,4.37444-.19975.91882.28967,1.23842.809,2.48683q-.20976.04489-.44944.11984c-2.4369.769-5.10349,3.166-5.04357,5.14348a1.986,1.986,0,0,0,.43944,1.1585c-2.89628.829-5.43309,2.23715-5.36317,3.44563.02.42945.37952.789,1.73778,1.59794a25.99384,25.99384,0,0,0,6.19213,2.55675,7.81544,7.81544,0,0,1-1.578.52935c-4.58414,1.09858-7.15088-1.01872-8.85873.99873a3.97567,3.97567,0,0,0-.87889,2.99619c.35959,2.39692,3.56547,3.81516,6.7115,4.68405a12.83515,12.83515,0,0,1-4.93373,2.31706c-2.84641.66913-5.25333.36952-5.63285,1.56795-.19976.6292.29961,1.2884.52936,1.64792,1.57795,2.48683,4.00485,1.27841,8.09968,3.40571a6.86069,6.86069,0,0,1,.72905.43938c-6.14215,1.06865-12.67388,4.11482-12.524,6.64157.03992.72906.64913,1.33833,2.9562,2.71658a31.32758,31.32758,0,0,0,3.4057,1.7877,12.76428,12.76428,0,0,1-1.26841.61921c-6.20207,2.58674-9.87745,1.10858-12.28436,4.14475a2.77241,2.77241,0,0,0-.799,1.98746c.18976,1.43818,2.28707,2.56675,5.4031,2.9762a10.33943,10.33943,0,0,0,1.64793,2.08737,54.2596,54.2596,0,0,0-6.82134,2.92627C243.33333,517.81106,247.64785,517.81106,252.81133,519.80852Z"/>
      <path class="cls-1" d="M274.94733,527.17065c7.02947,2.58772,4.68173,5.17544,10.54417,7.789,5.84885,2.61362,5.84885,1.268,22.242,3.85576,4.60039.72455,7.88441,1.12565,10.63925,1.28091v16.83313h5.48243v-16.872h.01358c6.853-.50454,6.25595-2.38066,14.91389-3.82977,7.81659-1.30682,9.68931,0,16.28452-1.29386a42.92166,42.92166,0,0,0,13.52969-5.17545c4.74965-.64693,7.95233-2.40656,8.23726-4.645a4.39217,4.39217,0,0,0-1.20771-3.11817c-3.664-4.72262-9.26863-2.43246-18.74076-6.4693-.06792-.0259-.13576-.06468-.20359-.09058,1.72347-1.5656,1.87272-3.11825,6.4052-4.67081,6.256-2.14786,11.48062-2.14786,2.0899-6.43053a79.81566,79.81566,0,0,0-14.52038-4.86493c4.0033-1.02212,6.67663-.69865,8.59011-3.58394.36635-.54348,1.18062-1.55264.85494-2.536-.62427-1.83726-4.50539-1.38444-9.10579-2.40656-5.17033-1.15156-7.3009-3.29933-9.96073-4.87788a41.80373,41.80373,0,0,0,7.72158-3.41581c2.63267-1.50084,3.33836-2.16073,3.37911-2.95.16283-2.75593-7.2874-6.06821-14.28971-7.24567,3.949-1.81135,6.36454-.78923,7.96584-3.35105a2.935,2.935,0,0,0,.56993-1.79848c-.13567-1.29386-1.62838-2.316-3.85395-2.69126a129.61224,129.61224,0,0,1-12.44407-3.73919c-.01358,0-.02716-.01295-.04075-.01295a12.20516,12.20516,0,0,0,2.68692.29756c.665-.10353.71927-.34937,1.65564-.81514,3.8947-1.92784,6.20169-.82809,7.708-3.09234.21709-.32347.69211-.91859.5021-1.50085-.36643-1.08687-2.65983-.81513-5.36034-1.41034a11.8685,11.8685,0,0,1-4.139-1.75963,4.66217,4.66217,0,0,0,.47493-1.048,4.1908,4.1908,0,0,0,.33926-1.94079c-.24426-1.41027-1.76414-1.061-3.54186-1.85021-1.99481-.87982-2.82267-2.49715-3.854-3.68747-.06792-.86695-.12217-1.44912-.12217-1.44912-.01358,0-.85494-.01295-1.68272-2.122-.62427-1.5397.54285-2.12195.25784-2.91119-.14925-.414-.475-.4529-1.11278-1.03507-2.63267-2.44541-1.12637-3.90748-4.22039-4.852a4.55568,4.55568,0,0,0-2.03556-.32346c-1.47922.23289-1.0992,1.682-1.92706,3.377-1.42488,2.95-4.74965,3.23465-5.31959,5.66711-.27142,1.19033.3936,1.60437,1.0992,3.2217q-.285.05815-.61068.15526c-3.31119.99629-6.93448,4.10151-6.85306,6.66341a2.50091,2.50091,0,0,0,.59711,1.50084c-3.93538,1.07393-7.38232,2.89824-7.28732,4.46383.02717.55636.51568,1.02213,2.36124,2.07015a36.32465,36.32465,0,0,0,8.41369,3.31228,10.97961,10.97961,0,0,1-2.14415.68578c-6.22879,1.42322-9.7164-1.31976-12.037,1.29386a4.98751,4.98751,0,0,0-1.19421,3.88158c.4886,3.10522,4.84466,4.94256,9.11938,6.06821a17.81281,17.81281,0,0,1-6.7038,3.00177c-3.86762.86686-7.13806.47872-7.65374,2.03129-.27143.81514.40709,1.66913.71927,2.1349,2.14407,3.2217,5.44167,1.65618,11.0056,4.41211a9.42122,9.42122,0,0,1,.99062.56922c-8.34577,1.38444-17.22089,5.33078-17.0173,8.6042.05425.94449.882,1.73381,4.0168,3.51934a43.341,43.341,0,0,0,4.62756,2.316,17.70758,17.70758,0,0,1-1.72347.80219c-8.42719,3.35113-13.42118,1.43617-16.69162,5.36955a3.50834,3.50834,0,0,0-1.08561,2.57477c.25784,1.86316,3.1076,3.32523,7.34156,3.85568a13.48152,13.48152,0,0,0,2.23916,2.7042,75.69471,75.69471,0,0,0-9.26863,3.791C262.06892,524.58293,267.93135,524.58293,274.94733,527.17065Z"/>
      <path class="cls-1" d="M333.22005,509.94143c5.2523,1.9335,3.4981,3.867,7.87841,5.81979,4.37016,1.95286,4.37016.94746,16.61881,2.881,3.43733.54137,5.89109.84106,7.94946.95707v12.57742h4.09637V519.57022h.01015c5.12048-.377,4.67434-1.77879,11.1434-2.86154,5.84041-.97643,7.23968,0,12.16751-.96675a32.07046,32.07046,0,0,0,10.10914-3.867c3.54885-.48338,5.94184-1.79814,6.15473-3.47066a3.28174,3.28174,0,0,0-.90237-2.32984c-2.7377-3.52866-6.92536-1.81749-14.00277-4.83375-.05075-.01935-.10143-.04832-.15212-.06768,1.28775-1.16978,1.39927-2.3299,4.78586-3.49,4.67439-1.60484,8.57811-1.60484,1.56153-4.80477a59.63589,59.63589,0,0,0-10.84937-3.635c2.99119-.76371,4.98866-.522,6.41838-2.67786.27372-.40608.88214-1.16011.6388-1.89485-.46645-1.37277-3.36635-1.03443-6.80369-1.79814-3.86318-.86042-5.4551-2.4652-7.44249-3.64466a31.2352,31.2352,0,0,0,5.76943-2.55224c1.96709-1.1214,2.49436-1.61445,2.52481-2.20416.12167-2.05918-5.445-4.53405-10.677-5.41383,2.95059-1.35341,4.75547-.5897,5.95193-2.50385a2.193,2.193,0,0,0,.42584-1.34379c-.10137-.96675-1.2167-1.73046-2.8796-2.01086a96.84366,96.84366,0,0,1-9.298-2.79386c-.01015,0-.0203-.00968-.03045-.00968a9.12023,9.12023,0,0,0,2.00762.22234c.49689-.07736.53743-.261,1.23706-.60906,2.91006-1.44045,4.6338-.61873,5.75928-2.31055.16221-.24168.51713-.68635.37516-1.1214-.27379-.8121-1.98738-.60906-4.00515-1.05378a8.868,8.868,0,0,1-3.09256-1.31477,3.48342,3.48342,0,0,0,.35486-.78306,3.13144,3.13144,0,0,0,.25349-1.45013c-.18251-1.05372-1.31813-.79274-2.64642-1.38244-1.49049-.65739-2.109-1.86582-2.87961-2.75522-.05074-.64776-.09128-1.08275-.09128-1.08275-.01015,0-.6388-.00968-1.2573-1.58548-.46644-1.15044.40561-1.58549.19266-2.17519-.11153-.30937-.35493-.3384-.83146-.77339-1.96708-1.82717-.8416-2.9196-3.1534-3.62531a3.40382,3.40382,0,0,0-1.52093-.24169c-1.10525.174-.82131,1.25677-1.43987,2.52321-1.06464,2.20415-3.54886,2.41687-3.9747,4.23436-.20281.8894.29409,1.19876.8213,2.4072q-.213.04346-.45629.116c-2.47406.74441-5.18132,3.06458-5.12048,4.97878a1.8686,1.8686,0,0,0,.44614,1.1214c-2.94044.80242-5.51594,2.16551-5.445,3.3353.0203.4157.38531.76371,1.76428,1.54678a27.14068,27.14068,0,0,0,6.28656,2.47487,8.20308,8.20308,0,0,1-1.60208.51241c-4.654,1.0634-7.25992-.9861-8.99381.96675a3.72657,3.72657,0,0,0-.89229,2.90025c.36508,2.32016,3.61984,3.693,6.81384,4.53406a13.30942,13.30942,0,0,1-5.009,2.24286c-2.88982.64771-5.33343.35769-5.71874,1.51775-.20281.609.30417,1.24714.53742,1.59516,1.602,2.40719,4.06593,1.23747,8.2232,3.29665a7.04015,7.04015,0,0,1,.74017.42531c-6.23581,1.03443-12.86714,3.98306-12.715,6.42891.04054.70571.659,1.29547,3.00128,2.62959a32.3851,32.3851,0,0,0,3.45764,1.73046,13.23477,13.23477,0,0,1-1.28775.59938c-6.29664,2.50391-10.02807,1.07308-12.47168,4.012a2.62142,2.62142,0,0,0-.81116,1.92383c.19266,1.39212,2.32195,2.48455,5.48549,2.88089a10.07342,10.07342,0,0,0,1.67306,2.02053,56.55887,56.55887,0,0,0-6.92536,2.83257C323.59752,508.00793,327.97783,508.00793,333.22005,509.94143Z"/>
      <path class="cls-1" d="M359.78264,541.27906c-3.98237,1.53759-2.65232,3.07519-5.97353,4.62813-3.31352,1.553-3.31352.75345-12.60061,2.29105a59.09722,59.09722,0,0,1-6.02739.7611v10.00207h-3.10593V548.93625h-.00769c-3.88242-.29979-3.54415-1.41456-8.44909-2.27561-4.42828-.77649-5.48922,0-9.22557-.7688a23.6601,23.6601,0,0,1-7.66489-3.07519c-2.69079-.3844-4.50519-1.42995-4.66661-2.76a2.67948,2.67948,0,0,1,.68419-1.85278c2.07577-2.80613,5.25091-1.44535,10.6171-3.844.03848-.01539.07691-.03843.11534-.05382-.97639-.93027-1.06095-1.85283-3.6287-2.77535-3.5442-1.27623-6.50405-1.27623-1.184-3.821a43.76209,43.76209,0,0,1,8.22614-2.89069c-2.268-.60733-3.78247-.41513-4.8665-2.12954-.20754-.32293-.66885-.92257-.48435-1.50686.35367-1.09168,2.55242-.82262,5.15865-1.43,2.92912-.68424,4.13614-1.96043,5.643-2.89839a23.13388,23.13388,0,0,1-4.37446-2.02963c-1.49147-.89179-1.89126-1.28388-1.91435-1.75284-.09225-1.63754,4.12849-3.60566,8.09547-4.30529-2.23718-1.07629-3.60567-.469-4.51284-1.99116a1.80143,1.80143,0,0,1-.32288-1.06864c.07686-.7688.92252-1.37614,2.18336-1.59912a70.89707,70.89707,0,0,0,7.04986-2.22179c.00769,0,.01539-.00769.02308-.00769a6.60644,6.60644,0,0,1-1.5222.17681c-.37675-.06152-.40749-.20759-.938-.48435-2.20644-1.1455-3.51341-.492-4.36676-1.83744-.123-.1922-.3921-.54581-.28446-.89178.2076-.64581,1.50687-.48435,3.03677-.838a6.5679,6.5679,0,0,0,2.34482-1.04556,2.83629,2.83629,0,0,1-.26906-.62272,2.59709,2.59709,0,0,1-.1922-1.1532c.13838-.838.99943-.63042,2.00655-1.09937a6.24422,6.24422,0,0,0,2.18336-2.19106c.03848-.51513.06921-.861.06921-.861.0077,0,.48435-.00769.9533-1.26084.35367-.91487-.30753-1.26084-.14607-1.72979.08456-.246.26911-.26911.63042-.615,1.49147-1.453.63812-2.32179,2.391-2.883a2.47362,2.47362,0,0,1,1.1532-.1922c.838.13837.62272.99942,1.09172,2.00655.80723,1.75283,2.6908,1.922,3.01368,3.36734.15377.70728-.223.9533-.62273,1.91429q.16148.03456.346.09226c1.87587.592,3.92855,2.43707,3.88242,3.95932a1.52867,1.52867,0,0,1-.33827.89179c2.22949.63811,4.18226,1.7221,4.12844,2.65236-.01539.33058-.29215.60733-1.3377,1.23006a20.00938,20.00938,0,0,1-4.76656,1.96812,6.01695,6.01695,0,0,0,1.21472.40749c3.52875.84565,5.50457-.78419,6.81923.76879a3.06036,3.06036,0,0,1,.67655,2.3064c-.27681,1.84508-2.74462,2.93681-5.16635,3.60566a9.8801,9.8801,0,0,0,3.79786,1.78362c2.19111.51508,4.04389.28445,4.336,1.207.15377.48434-.23063.99178-.40748,1.26853-1.21467,1.9143-3.08284.98409-6.23494,2.62163a5.28034,5.28034,0,0,0-.56121.33823c4.72808.82262,9.75605,3.16749,9.64071,5.11252-.03073.56121-.49969,1.03021-2.27561,2.09116a24.11943,24.11943,0,0,1-2.62163,1.37613,9.82769,9.82769,0,0,0,.97639.47665c4.77421,1.9912,7.60342.85335,9.4562,3.19053a2.134,2.134,0,0,1,.615,1.5299c-.14607,1.10707-1.76053,1.97581-4.15917,2.291a7.95941,7.95941,0,0,1-1.26854,1.60681,41.768,41.768,0,0,1,5.25091,2.25257C367.07857,539.74146,363.75736,539.74146,359.78264,541.27906Z"/>
      <path class="cls-1" d="M331.56127,530.75851c-6.12656,2.36547-4.08038,4.73094-9.1898,7.12-5.09759,2.38914-5.09759,1.15913-19.385,3.5246a90.917,90.917,0,0,1-9.27267,1.17089v15.38739h-4.77822V542.5385h-.01184c-5.97279-.46121-5.45239-2.17619-12.99824-3.50084-6.81256-1.19458-8.44474,0-14.19281-1.18274a36.39959,36.39959,0,0,1-11.79183-4.73094c-4.13957-.59136-6.93088-2.19987-7.17921-4.246a4.12218,4.12218,0,0,1,1.05258-2.85035c3.1934-4.317,8.0781-2.22355,16.33356-5.91368.05919-.02367.11832-.05912.17744-.0828-1.5021-1.43113-1.63218-2.85043-5.58247-4.26965-5.45246-1.96338-10.006-1.96338-1.82146-5.87823a67.32488,67.32488,0,0,1,12.65527-4.44709c-3.48908-.93434-5.819-.63865-7.48673-3.27613-.31929-.4968-1.029-1.41929-.74512-2.31818.54408-1.67947,3.92668-1.26554,7.93617-2.19987,4.50622-1.05265,6.36312-3.016,8.6813-4.45893a35.59058,35.59058,0,0,1-6.72976-3.12244c-2.29451-1.37194-2.90955-1.97515-2.94507-2.6966-.14192-2.51923,6.35135-5.547,12.45423-6.62335-3.44173-1.65579-5.547-.72145-6.94265-3.06325a2.77135,2.77135,0,0,1-.49672-1.644c.11824-1.18274,1.41922-2.11707,3.35892-2.46011a109.07353,109.07353,0,0,0,10.84566-3.418c.01184,0,.02367-.01184.03551-.01184a10.16306,10.16306,0,0,1-2.34179.272c-.5796-.09464-.62688-.31936-1.443-.74513-3.39444-1.76226-5.40511-.757-6.71792-2.82675-.18921-.29569-.60321-.8397-.43761-1.37194.31936-.99353,2.31818-.74513,4.67181-1.28922a10.10393,10.10393,0,0,0,3.60733-1.6085,4.364,4.364,0,0,1-.41393-.958,3.99546,3.99546,0,0,1-.29568-1.7741c.21288-1.28914,1.53754-.96985,3.08692-1.6913,1.73858-.80426,2.46011-2.28267,3.35892-3.37077.0592-.79248.10648-1.32466.10648-1.32466.01184,0,.74513-.01183,1.46658-1.9397.54409-1.40745-.47312-1.9397-.22472-2.66115.13008-.37848.414-.414.96985-.94617,2.29451-2.23539.98169-3.57188,3.67829-4.43526a3.80575,3.80575,0,0,1,1.7741-.29568c1.28921.21288.958,1.53754,1.67953,3.08692,1.24186,2.6966,4.13957,2.95683,4.6363,5.18038.23656,1.0881-.343,1.46658-.958,2.945q.2484.05316.53225.14192c2.88587.91073,6.04375,3.74925,5.97279,6.09111a2.3518,2.3518,0,0,1-.52041,1.37194c3.42989.98169,6.43408,2.64932,6.35128,4.08045-.02367.50857-.44944.93434-2.05794,1.89235a30.78282,30.78282,0,0,1-7.333,3.0278,9.256,9.256,0,0,0,1.86874.62688c5.42871,1.301,8.46835-1.20641,10.49085,1.18273a4.70812,4.70812,0,0,1,1.04081,3.54821c-.42584,2.83852-4.22237,4.51805-7.948,5.547a15.19952,15.19952,0,0,0,5.84271,2.744c3.37083.79241,6.22119.4376,6.67064,1.85683.23656.74513-.35481,1.52577-.62689,1.95154-1.86866,2.945-4.7427,1.51393-9.592,4.03316a8.12668,8.12668,0,0,0-.86337.52034c7.27378,1.26553,15.00891,4.87293,14.83147,7.86521-.04729.86337-.76874,1.5849-3.50085,3.21708a37.10041,37.10041,0,0,1-4.03317,2.11706,15.11616,15.11616,0,0,0,1.5021.73329c7.34473,3.06332,11.69726,1.31282,14.54762,4.90838a3.28312,3.28312,0,0,1,.94617,2.35363c-.22472,1.70314-2.70843,3.03964-6.39856,3.52453a12.24484,12.24484,0,0,1-1.95154,2.47194,64.25538,64.25538,0,0,1,8.0781,3.46541C342.78548,528.39305,337.676,528.39305,331.56127,530.75851Z"/>
      <path class="cls-1" d="M284.78739,535.80852c-5.17341,1.99746-3.44557,3.99491-7.76009,6.01231-4.30452,2.01745-4.30452.97879-16.36919,2.97625a76.769,76.769,0,0,1-7.83006.98873v12.99348H248.7932V545.75582h-.01c-5.04357-.38945-4.60412-1.83762-10.976-2.9562-5.75269-1.00872-7.13094,0-11.98476-.99873a30.7367,30.7367,0,0,1-9.9573-3.99491c-3.49555-.49937-5.8526-1.85763-6.06229-3.58547a3.48085,3.48085,0,0,1,.88882-2.40691c2.69658-3.64539,6.82134-1.87762,13.79245-4.99365.05-.02.09991-.04992.14983-.06992-1.2684-1.20848-1.37825-2.407-4.714-3.6054-4.60419-1.65792-8.44927-1.65792-1.53808-4.96371a56.85114,56.85114,0,0,1,10.68642-3.75523c-2.94627-.789-4.91374-.5393-6.322-2.76644-.26961-.41951-.86889-1.19849-.6292-1.95754.45943-1.41817,3.31579-1.06864,6.70149-1.85762,3.80516-.88888,5.37317-2.54675,7.3307-3.76523a30.05309,30.05309,0,0,1-5.68277-2.63666c-1.93754-1.1585-2.4569-1.66786-2.48689-2.27707-.11984-2.1273,5.36324-4.684,10.51665-5.59292-2.90627-1.39819-4.684-.60921-5.86253-2.58668a2.34018,2.34018,0,0,1-.41945-1.38824c.09985-.99873,1.19842-1.78771,2.83635-2.07738a92.104,92.104,0,0,0,9.15834-2.88628c.01,0,.02-.01.03-.01a8.58146,8.58146,0,0,1-1.97747.22969c-.48943-.07991-.52935-.26968-1.21848-.6292-2.86635-1.4881-4.5642-.63921-5.67277-2.387-.15977-.24968-.50937-.70906-.36953-1.1585.26968-.839,1.95753-.62921,3.945-1.08864a8.53217,8.53217,0,0,0,3.04612-1.35826,3.68425,3.68425,0,0,1-.34953-.809,3.37381,3.37381,0,0,1-.24969-1.49809c.17977-1.08858,1.29834-.819,2.60667-1.42818,1.46811-.67913,2.07738-1.92754,2.83636-2.84635.05-.6692.08991-1.11858.08991-1.11858.01,0,.62921-.01,1.23842-1.63793.45944-1.18849-.39952-1.63793-.18976-2.24714.10984-.3196.34959-.34959.819-.799,1.93754-1.88761.829-3.01618,3.106-3.74523a3.21361,3.21361,0,0,1,1.49809-.24969c1.08864.17977.809,1.29834,1.41824,2.60667,1.04865,2.27707,3.49555,2.49683,3.915,4.37444.19976.91882-.28967,1.23842-.809,2.48683q.20976.04489.44944.11984c2.43691.769,5.1035,3.166,5.04358,5.14348a1.986,1.986,0,0,1-.43945,1.1585c2.89628.829,5.43309,2.23715,5.36317,3.44563-.02.42945-.37952.789-1.73777,1.59794a25.99387,25.99387,0,0,1-6.19214,2.55675,7.81578,7.81578,0,0,0,1.578.52935c4.58413,1.09858,7.15088-1.01872,8.85873.99873a3.97562,3.97562,0,0,1,.87888,2.99619c-.35959,2.39692-3.56547,3.81516-6.71149,4.68405a12.835,12.835,0,0,0,4.93372,2.31706c2.84642.66913,5.25333.36952,5.63285,1.56795.19976.6292-.2996,1.2884-.52935,1.64792-1.57795,2.48683-4.00486,1.27841-8.09968,3.40571a6.86205,6.86205,0,0,0-.72906.43938c6.14215,1.06865,12.67388,4.11482,12.524,6.64157-.03993.72906-.64914,1.33833-2.9562,2.71658a31.3285,31.3285,0,0,1-3.4057,1.7877,12.76388,12.76388,0,0,0,1.2684.61921c6.20207,2.58674,9.87745,1.10858,12.28436,4.14475a2.77237,2.77237,0,0,1,.799,1.98746c-.18976,1.43818-2.28706,2.56675-5.4031,2.9762a10.33958,10.33958,0,0,1-1.64792,2.08737,54.2596,54.2596,0,0,1,6.82134,2.92627C294.26538,533.81106,289.95086,533.81106,284.78739,535.80852Z"/>
      <path class="cls-1" d="M262.65139,543.17065c-7.02948,2.58772-4.68173,5.17544-10.54417,7.789-5.84886,2.61362-5.84886,1.268-22.242,3.85576-4.6004.72455-7.88442,1.12565-10.63926,1.28091v16.83313h-5.48242v-16.872H213.73c-6.853-.50454-6.25595-2.38066-14.91389-3.82977-7.81658-1.30682-9.68931,0-16.28452-1.29386a42.92159,42.92159,0,0,1-13.52968-5.17545c-4.74965-.64693-7.95234-2.40656-8.23726-4.645a4.39221,4.39221,0,0,1,1.2077-3.11817c3.664-4.72262,9.26863-2.43246,18.74077-6.4693.06792-.0259.13575-.06468.20359-.09058-1.72347-1.5656-1.87273-3.11825-6.40521-4.67081-6.256-2.14786-11.48061-2.14786-2.0899-6.43053a79.81591,79.81591,0,0,1,14.52038-4.86493c-4.00329-1.02212-6.67663-.69865-8.5901-3.58394-.36635-.54348-1.18063-1.55264-.855-2.536.62427-1.83726,4.5054-1.38444,9.10579-2.40656,5.17033-1.15156,7.3009-3.29933,9.96074-4.87788a41.80315,41.80315,0,0,1-7.72158-3.41581c-2.63267-1.50084-3.33836-2.16073-3.37911-2.95-.16284-2.75593,7.2874-6.06821,14.2897-7.24567-3.949-1.81135-6.36453-.78923-7.96583-3.35105a2.935,2.935,0,0,1-.56994-1.79848c.13567-1.29386,1.62839-2.316,3.854-2.69126a129.611,129.611,0,0,0,12.44406-3.73919c.01359,0,.02717-.01295.04075-.01295a12.20516,12.20516,0,0,1-2.68692.29756c-.665-.10353-.71927-.34937-1.65563-.81514-3.89471-1.92784-6.2017-.82809-7.708-3.09234-.21709-.32347-.6921-.91859-.5021-1.50085.36643-1.08687,2.65984-.81513,5.36034-1.41034a11.86856,11.86856,0,0,0,4.139-1.75963,4.66215,4.66215,0,0,1-.47494-1.048,4.19093,4.19093,0,0,1-.33926-1.94079c.24426-1.41027,1.76414-1.061,3.54187-1.85021,1.99481-.87982,2.82267-2.49715,3.85395-3.68747.06792-.86695.12217-1.44912.12217-1.44912.01359,0,.855-.01295,1.68272-2.122.62427-1.5397-.54285-2.12195-.25784-2.91119.14926-.414.475-.4529,1.11279-1.03507,2.63266-2.44541,1.12637-3.90748,4.22038-4.852a4.55572,4.55572,0,0,1,2.03557-.32346c1.47921.23289,1.0992,1.682,1.92706,3.377,1.42488,2.95,4.74965,3.23465,5.31958,5.66711.27143,1.19033-.39359,1.60437-1.0992,3.2217q.285.05815.61069.15526c3.31119.99629,6.93447,4.10151,6.85305,6.66341a2.50083,2.50083,0,0,1-.5971,1.50084c3.93537,1.07393,7.38232,2.89824,7.28731,4.46383-.02716.55636-.51568,1.02213-2.36124,2.07015a36.32462,36.32462,0,0,1-8.41368,3.31228,10.97916,10.97916,0,0,0,2.14415.68578c6.22878,1.42322,9.71639-1.31976,12.037,1.29386a4.98746,4.98746,0,0,1,1.1942,3.88158c-.4886,3.10522-4.84465,4.94256-9.11937,6.06821a17.81275,17.81275,0,0,0,6.70379,3.00177c3.86763.86686,7.13807.47872,7.65375,2.03129.27142.81514-.4071,1.66913-.71927,2.1349-2.14407,3.2217-5.44168,1.65618-11.00561,4.41211a9.42193,9.42193,0,0,0-.99061.56922c8.34577,1.38444,17.22088,5.33078,17.01729,8.6042-.05425.94449-.882,1.73381-4.01679,3.51934a43.34015,43.34015,0,0,1-4.62757,2.316,17.70915,17.70915,0,0,0,1.72348.80219c8.42718,3.35113,13.42117,1.43617,16.69161,5.36955a3.50838,3.50838,0,0,1,1.08562,2.57477c-.25784,1.86316-3.1076,3.32523-7.34157,3.85568a13.48166,13.48166,0,0,1-2.23915,2.7042,75.69536,75.69536,0,0,1,9.26863,3.791C275.5298,540.58293,269.66736,540.58293,262.65139,543.17065Z"/>
      <path class="cls-1" d="M204.37867,525.94143c-5.2523,1.9335-3.49811,3.867-7.87842,5.81979-4.37016,1.95286-4.37016.94746-16.6188,2.881-3.43734.54137-5.8911.84106-7.94946.95707v12.57742h-4.09638V535.57022h-.01015c-5.12048-.377-4.67433-1.77879-11.14339-2.86154-5.84042-.97643-7.23969,0-12.16751-.96675a32.07036,32.07036,0,0,1-10.10914-3.867c-3.54886-.48338-5.94185-1.79814-6.15474-3.47066a3.28175,3.28175,0,0,1,.90238-2.32984c2.7377-3.52866,6.92535-1.81749,14.00277-4.83375.05074-.01935.10143-.04832.15212-.06768-1.28775-1.16978-1.39927-2.3299-4.78586-3.49-4.6744-1.60484-8.57812-1.60484-1.56154-4.80477a59.63621,59.63621,0,0,1,10.84938-3.635c-2.9912-.76371-4.98867-.522-6.41838-2.67786-.27373-.40608-.88214-1.16011-.6388-1.89485.46644-1.37277,3.36635-1.03443,6.80369-1.79814,3.86318-.86042,5.4551-2.4652,7.44248-3.64466a31.23578,31.23578,0,0,1-5.76943-2.55224c-1.96708-1.1214-2.49436-1.61445-2.52481-2.20416-.12167-2.05918,5.445-4.53405,10.677-5.41383-2.95059-1.35341-4.75547-.5897-5.95193-2.50385a2.193,2.193,0,0,1-.42585-1.34379c.10137-.96675,1.2167-1.73046,2.87961-2.01086a96.84241,96.84241,0,0,0,9.298-2.79386c.01015,0,.0203-.00968.03045-.00968a9.12023,9.12023,0,0,1-2.00762.22234c-.49689-.07736-.53742-.261-1.23706-.60906-2.91-1.44045-4.6338-.61873-5.75928-2.31055-.1622-.24168-.51713-.68635-.37516-1.1214.27379-.8121,1.98739-.60906,4.00515-1.05378a8.868,8.868,0,0,0,3.09257-1.31477,3.48342,3.48342,0,0,1-.35486-.78306,3.13118,3.13118,0,0,1-.25349-1.45013c.1825-1.05372,1.31813-.79274,2.64641-1.38244,1.49049-.65739,2.10905-1.86582,2.87961-2.75522.05075-.64776.09129-1.08275.09129-1.08275.01014,0,.63879-.00968,1.25729-1.58548.46645-1.15044-.4056-1.58549-.19265-2.17519.11152-.30937.35492-.3384.83145-.77339,1.96709-1.82717.84161-2.9196,3.1534-3.62531a3.40389,3.40389,0,0,1,1.52094-.24169c1.10524.174.8213,1.25677,1.43987,2.52321,1.06464,2.20415,3.54885,2.41687,3.9747,4.23436.2028.8894-.29409,1.19876-.82131,2.4072q.213.04346.4563.116c2.47406.74441,5.18131,3.06458,5.12048,4.97878a1.86855,1.86855,0,0,1-.44615,1.1214c2.94045.80242,5.51594,2.16551,5.445,3.3353-.0203.4157-.38531.76371-1.76428,1.54678a27.14085,27.14085,0,0,1-6.28656,2.47487,8.20318,8.20318,0,0,0,1.60207.51241c4.654,1.0634,7.25992-.9861,8.99381.96675a3.72653,3.72653,0,0,1,.89229,2.90025c-.36507,2.32016-3.61984,3.693-6.81383,4.53406a13.30942,13.30942,0,0,0,5.009,2.24286c2.88982.64771,5.33343.35769,5.71874,1.51775.2028.609-.30418,1.24714-.53743,1.59516-1.602,2.40719-4.06592,1.23747-8.22319,3.29665a7.03805,7.03805,0,0,0-.74017.42531c6.23581,1.03443,12.86714,3.98306,12.715,6.42891-.04054.70571-.659,1.29547-3.00128,2.62959a32.384,32.384,0,0,1-3.45763,1.73046,13.23247,13.23247,0,0,0,1.28775.59938c6.29664,2.50391,10.02806,1.07308,12.47168,4.012a2.62142,2.62142,0,0,1,.81115,1.92383c-.19265,1.39212-2.32194,2.48455-5.48549,2.88089a10.073,10.073,0,0,1-1.67306,2.02053,56.55887,56.55887,0,0,1,6.92536,2.83257C214.00119,524.00793,209.62088,524.00793,204.37867,525.94143Z"/>
    </g>
    <path class="cls-1" d="M1920,547.03314a408.87293,408.87293,0,0,0-50-9.21754c-71.35413-8.60525-117.94592,5.04853-159,9.21754-68.75635,6.98217-103.93726-14.47154-173-30.72514-194.7074-45.82351-251.69226,45.47718-529,23.55594-73.65167-5.82216-87.3562-13.66372-168-16.38674C719.98584,519.391,688.75177,534.952,577,538.83977c-162.06995,5.63832-183.57574-24.057-340-20.48343A1226.18517,1226.18517,0,0,0,0,547.03314V588H1920Z"/>
  </g>
</svg>
