<svg id="Layer_1" data-name="Layer 1" xmlns="http://www.w3.org/2000/svg" viewBox="0 0 1920 1080">
  <defs>
    <style>
      .cls-1 {
        fill: #100019;
      }
    </style>
  </defs>
  <g id="Foreground">
    <path class="cls-1" d="M267,786c3.811-13.18414,13.82623-47.83215,1-83a67.87261,67.87261,0,0,0-5.86734-11.981A53.664,53.664,0,0,0,250,678c-23.48065-7.353-42.55119-14.5799-56-20-44.8326-18.06824-75.21693-30.63538-104-58a203.42367,203.42367,0,0,1-28-33q9.5,2.5,19,5a245.18537,245.18537,0,0,0,47,41c6.2531,4.17712,12.39433,7.85724,18.33386,11.10474A146.17221,146.17221,0,0,1,106,542q7,5,14,10a102.36288,102.36288,0,0,0,6,24,111.86294,111.86294,0,0,0,13,24c1.26793,1.79089,2.37839,3.24908,3.17455,4.26874A49.78783,49.78783,0,0,0,162,555q3-1,6-2a55.66345,55.66345,0,0,1-19.69786,59.01117Q151.64963,615.99417,155,620q5.02463,6.0077,10,12c7.4068,4.04834,15.40747,8.08972,24,12a367.18876,367.18876,0,0,0,38.069,14.82611c-3.9959-3.10223-7.34631-5.82721-9.92224-7.96576A144.87622,144.87622,0,0,1,206,641c-4.12637-4.34918-7.99889-9.38342-7.99893-9.38348l-.00063-.0008a95.69657,95.69657,0,0,1-5.94916-8.50378,89.05509,89.05509,0,0,1-5.34513-10.02881A212.62555,212.62555,0,0,1,129,483q2.5-4,5-8a237.83832,237.83832,0,0,0,29,91,230.90331,230.90331,0,0,0,21,31q-.94084-6.7023-1.8817-13.40454C177.95206,584.24072,127.43158,591.15125,91,552c-36.36432-39.079-25.94408-88.85736-25-93l6,6a128.31889,128.31889,0,0,0,8,45c2.62905,7.03754,9.284,24.85181,21,35,1.338,1.15894,6.34431,5.3382,12.54557,10.15289,4.309,3.34552,7.9435,6.02625,10.45443,7.84711a65.16737,65.16737,0,0,1-10-21,66.17727,66.17727,0,0,1,0-34l6,6c-.17609,1.84918-.28333,3.79858-.29626,5.83954A67.677,67.677,0,0,0,123,541a45.17182,45.17182,0,0,0,12-1c4.11424-.9101,9.15808-2.02576,14-6a26.41035,26.41035,0,0,0,7-9q3-1,6-2a21.50968,21.50968,0,0,1-2,8c-3.56229,7.5141-10.71205,10.66766-16,13a47.83016,47.83016,0,0,1-19,4,69.46753,69.46753,0,0,0,13.52168,18.63934,107.06338,107.06338,0,0,0,42.3954,3.2688A88.90107,88.90107,0,0,1,192,513q25.5,7,51,14a56.88079,56.88079,0,0,0-12,50,59.7777,59.7777,0,0,0,8,19,119.66429,119.66429,0,0,0,39,6,118.14867,118.14867,0,0,0,20-2c-4.067-.694-17.18152-3.46826-26-15a42.54675,42.54675,0,0,1-6.34167-12.81653,39.69241,39.69241,0,0,1-1.252-6.14374A50.56639,50.56639,0,0,1,241,551h6c.61169.67236,1.27672,1.34222,2,2a32.93417,32.93417,0,0,0,15.21869,7.62219A52.35333,52.35333,0,0,1,272,534l14-3c-4.24927,5.31268-13.53543,18.47113-10,32a23.99348,23.99348,0,0,0,1,3c1.4404.14606,16.20224,1.39026,26-10a30.09809,30.09809,0,0,0,7-20q3.5,2,7,4c-.04916,1.85693-.72614,17.38538-14,27a34.83429,34.83429,0,0,1-25,6,49.36587,49.36587,0,0,0,6,7c12.48779,12.06519,28.27884,14.43842,36,15a49.90214,49.90214,0,0,0,38-48l17-6c-.01508,11.34351-2.01593,26.92151-11,42-18.36694,30.82635-58.34561,46.8515-102,42q11.625,5.92071,24,13c8.11441,4.66516,15.78055,9.35419,23,14a102.88639,102.88639,0,0,0,32-3,98.37468,98.37468,0,0,0,38-19,89.37658,89.37658,0,0,0,11-11,159.08,159.08,0,0,1-26-22,162.40333,162.40333,0,0,1-35-57h7a141.3819,141.3819,0,0,0,23,41c1.19922,1.46649,4.40451,5.31781,9,10a156.926,156.926,0,0,0,27,22,193.46873,193.46873,0,0,0,25-51l14-6a162.222,162.222,0,0,1-4,17c-3.65451,12.48175-13.99106,46.24817-43,70a155.67658,155.67658,0,0,1-19,13,193.62056,193.62056,0,0,1-30.36829,14.78912A381.332,381.332,0,0,1,369,695c11.46536,9.84467,31.26877,28.60358,80,89,22.21356,27.531,18.37292,25.046,24.1015,30.79211C553.67126,895.6095,758.95923,831.05115,810,815c1.86932-.58783,1.22437-.39569,30.2428-9.66125,106.16314-33.89777,127.41626-40.45313,136.57855-43.33564,21.99677-6.92029,47.613-14.72168,79.74933-24.06756C1086.46594,729.24139,1120.715,720.33325,1163,711c37.45044-8.26611,159.45068-34.222,322-48a2583.12235,2583.12235,0,0,1,435,0v417H0V930a198.09379,198.09379,0,0,1,21-13c23.356-12.514,41.517-16.158,74-23,48.86569-10.29266,87.22372-18.78247,122-36a82.62643,82.62643,0,0,0,12-7C253.56041,833.53662,261.15857,806.20856,267,786Z"/>
    <path class="cls-1" d="M477,526.5c0,27.89-33.13,50.5-74,50.5-23.72,0-44.83-7.61-58.37-19.45-3.47.3-7.02.45-10.63.45-20.71,0-39.54-4.99-53.63-13.16A110.82446,110.82446,0,0,1,227.5,558a112.83471,112.83471,0,0,1-30.72-4.21C177.85,567.84,146.7,577,111.5,577,53.79,577,7,552.38,7,522c0-13.8,9.66-26.41,25.61-36.06a34.01431,34.01431,0,0,1,9.71-60.54,54.963,54.963,0,0,1-.32-5.9c0-40.04,43.43-72.5,97-72.5,33.11,0,62.35,12.4,79.83,31.33q4.29-.33,8.67-.33c31.54,0,59.72,12.75,78.33,32.76A111.87778,111.87778,0,0,1,344.5,404c51.09,0,92.5,33.13,92.5,74,0,1.2-.04,2.4-.11,3.59C460.71,489.99,477,506.94,477,526.5Z"/>
  </g>
</svg>
