<svg id="Layer_1" data-name="Layer 1" xmlns="http://www.w3.org/2000/svg" viewBox="0 0 1920 1080">
  <defs>
    <style>
      .cls-1 {
        fill: #ffeed3;
      }

      .cls-2 {
        opacity: 0.25;
      }

      .cls-3 {
        fill: #100019;
      }
    </style>
  </defs>
  <g id="Moon">
    <g>
      <circle class="cls-1" cx="1582" cy="226" r="108"/>
      <circle class="cls-2" cx="1632.5" cy="286.5" r="5.5"/>
      <circle class="cls-2" cx="1615" cy="262" r="8"/>
      <ellipse class="cls-2" cx="1628.15185" cy="181.46881" rx="3.40438" ry="3.19578" transform="translate(46.16528 607.06003) rotate(-21.41717)"/>
      <ellipse class="cls-2" cx="1639.93548" cy="177.06452" rx="3.40438" ry="3.19578" transform="translate(355.12246 1211.4705) rotate(-45)"/>
      <ellipse class="cls-2" cx="1640.25806" cy="187.74194" rx="3.40438" ry="3.19578" transform="translate(125.88194 845.28168) rotate(-30)"/>
      <circle class="cls-2" cx="1647" cy="232" r="10"/>
      <path class="cls-2" d="M1528,221c-1.01318,16.26553,12.22253,21.5191,30,52,9.56262,16.3959,24.32581,46.75464,17,53-3.06848,2.61588-9.0874.11285-21-5-14.90649-6.3978-26.476-11.36334-38-22-28.43127-26.24191-30.70679-63.11537-31-71-.12085-3.25009-.94348-33.438,13-54,3.631-5.35457,10.17041-14.998,18-21a54.341,54.341,0,0,0,10-9c2.51233-2.97546,2.88293-4.15744,5-6,2.94238-2.56088,5.5957-3.21017,12-5,14.03284-3.92177,15.76453-4.84853,21-5,4.97986-.14407,7.71265.57,10,2,2.53821,1.58678,5.73083,4.8071,5,7-.94983,2.85011-7.54578,1.0192-13,3-11.8269,4.29514-9.71045,23.39789-20,48C1536.50452,210.70367,1528.77148,208.61525,1528,221Z"/>
      <path class="cls-2" d="M1545,205c-3.23779,4.13676-9.00549,11.50583-8,20a22.12205,22.12205,0,0,0,5,11c1.0929,1.299,1.8197,1.82776,4.3269,4.5.00013.00008,2.604,2.77545,5.6731,6.5,7.03784,8.541,20.95471,46.737,26,46,2.7085-.39566,5.13171-12.34369,3-25-4.0542-24.07-20.92981-29.012-21-50-.02-6.00056,1.35669-6.41257,2-19,.44312-8.66917.666-25.61316-2-26-2.04907-.29733-5.57581,9.21936-7,14-1.61682,5.42688-2.2467,10.53195-6.61133,16.29755C1545.731,204.16631,1545.8064,203.96971,1545,205Z"/>
      <path class="cls-2" d="M1598.40979,133.0714c.89917,2.22233,1.27722,6.02757-1,8-2.80615,2.43061-7.51562.2339-8,0-3.47461-1.67786-2.74951-4.49265-7-9-3.2926-3.49158-5.68262-4.01835-5.40979-5.0714.453-1.74821,7.49475-2.05083,13.40979.0714C1593.11975,128.04367,1596.9209,129.39149,1598.40979,133.0714Z"/>
    </g>
    <g>
      <path class="cls-3" d="M1489,217c6.66321-.47144,15.91138-1.32484,27-3a82.5911,82.5911,0,0,0-16-4c-12.163-1.77045-16.03809.48468-34,1-14.69238.42152-16.67737-.956-31,0-7.61328.50816-13.84607,1.35085-18,2a78.46265,78.46265,0,0,0,20,5c5.75964.6483,9.21289.376,18,0C1477.57983,217.0338,1475.8595,217.92972,1489,217Z"/>
      <path class="cls-3" d="M1709.95455,258.4015c10.86977-.76906,25.95643-2.16124,44.04545-4.89394a134.73229,134.73229,0,0,0-26.101-6.52525c-19.8416-2.88815-26.16314.79066-55.46465,1.63131-23.96787.68764-27.206-1.55952-50.5707,0-12.41965.829-22.58728,2.20365-29.36364,3.26263a127.99652,127.99652,0,0,0,32.62626,8.15656c9.39578,1.05758,15.02911.61339,29.36364,0C1691.32468,258.45664,1688.51827,259.91816,1709.95455,258.4015Z"/>
      <path class="cls-3" d="M1623.76985,175.15472c-6.60641.46741-15.77574,1.31355-26.76984,2.97442a81.887,81.887,0,0,0,15.86361,3.96591c12.05928,1.75535,15.90137-.48055,33.71017-.99148,14.56714-.41793,16.53521.94785,30.73575,0,7.54838-.50383,13.728-1.33933,17.84656-1.98295a77.79387,77.79387,0,0,0-19.82951-4.95738c-5.71055-.64277-9.13436-.3728-17.84656,0C1635.09267,175.12121,1636.79834,174.23292,1623.76985,175.15472Z"/>
    </g>
  </g>
</svg>
