<svg xmlns="http://www.w3.org/2000/svg" viewBox="0 0 1920 266.00136">
  <defs>
    <style>
      .cls-1 {
        fill: #100019;
      }
    </style>
  </defs>
  <g id="Layer_2" data-name="Layer 2">
    <g id="Layer_1-2" data-name="Layer 1">
      <path id="Cavern-front" class="cls-1" d="M1920,132a271.30773,271.30773,0,0,0-184.535-96.80557A230.475,230.475,0,0,1,1711,98c-12.09534,21.15271-25.58069,36.80139-29,35-4.95471-2.61023,17.33-38.64371,3-57-5.44446-6.97427-14.91846-9.78784-19-11-14.28137-4.2413-21.26709,1.27075-32-3-5.166-2.0556-12.13928-6.75125-18.14575-18.947C1603.33716,45.46005,1584.25317,49.19232,1561,54c-63.74841,13.18024-77.48926,17.62518-102,19-19.07471,1.06992-46.6615.39206-80.69592-8.42947A177.9391,177.9391,0,0,1,1355,76c-16.63989,6.70441-21.05786,5.54556-28,9-25.88428,12.88019-22.98621,58.1123-31,58-5.71448-.08008-10.02075-23.11932-14-45-3.83289-21.07611-5.83606-38.55133-6.93872-50.27148C1246.98621,50.27005,1228.71191,59.08,1217,67c-14.41895,9.75061-21.47363,19.89877-42,28-15.43494,6.0918-18.64978,3.19678-26,9-19.36768,15.29132-12.74292,47.7843-21,49-5.20654.7666-6.167-12.39886-19-21-15.88892-10.64929-28.421.14655-41-10-11.96289-9.6496-5.2688-23.15692-18-31-8.89075-5.47711-14.4303-.29141-27-7-10.34027-5.51871-8.43958-10.01428-17-14-14.95935-6.965-25.51331,6.066-37-2-10.01453-7.03223-9.92908-18.9733-18-20-8.54761-1.08734-15.22363,11.46881-20,9-3.39893-1.75684-.69153-8.4632-5-14-4.27374-5.49219-12.34454-5.84171-16-6-28.69434-1.24261-50.83569,34.96759-93,40-13.868,1.65518-29.291-.13528-41,11a54.11089,54.11089,0,0,0-10,14c-7.11914,14.53412-4.67163,26.72974-7,27-2.54279.29517-7.71857-13.98779-10-29-1.96429-12.92551-.85516-20.28668-4.34753-21.55865C740.29407,76.85394,733.19391,86.36185,732,88c-7.655,10.5036-6.89026,19.08765-10,30-4.7655,16.72235-17.34167,34.39233-24,33-9.32635-1.95026,1.01367-39.61609-21-64-8.9812-9.94824-20.57385-14.61313-30-17a298.92433,298.92433,0,0,0-74,3c-47.437,8.00806-63.81775,23.06891-96,15-19.20508-4.81522-23.27634-12.66211-43-13-20.72925-.35513-38.87564,7.92438-50,13-15.06036,6.87149-22.59058,10.30719-29,17-21.0867,22.01886-8.94952,48.07031-30,72-10.0072,11.376-16.99991,16.99994-17,17-9.11676,7.33228-13.04965,8.08484-17,14-4.459,6.67688-3.438,11.69238-5,23-2.14056,15.49615-8.07965,35.18958-12,35-4.65146-.22491-8.17792-28.52344-8-52,.1474-19.44958,2.72647-20.96436,2-39-.53714-13.335-2.36722-22.93787-6-42-1.93973-10.17828-4.81259-23.86237-9-40l-36-9c-11.55446,3.4187-26.57246,10.02609-37,24-9.91934,13.29285-11.26157,27.32428-16,27-4.64674-.318-8.15062-14.13971-8-25a51.94038,51.94038,0,0,1,8.21155-26.77335Q156.71178,83.4284,149,84C90.69678,88.36469,40.60157,108.276,0,132V0H1920Z"/>
    </g>
  </g>
</svg>
