<svg xmlns="http://www.w3.org/2000/svg" viewBox="0 0 1920 172.04615">
  <defs>
    <style>
      .cls-1 {
        fill: #150027;
      }
    </style>
  </defs>
  <g id="Layer_2" data-name="Layer 2">
    <g id="Layer_1-2" data-name="Layer 1">
      <path id="Cavern-back" class="cls-1" d="M1908,70c-4.17578,58.41245-13.72607,72.5209-22,74-15.32495,2.73959-22.25208-38.56625-67-63-8.473-4.62653-27.64868-10.08435-66-21-26.50439-7.54373-38.17285-9.83539-51-11-9.37646-.85132-23.95056-1.51608-46,1-61.38574,7.00482-61.66541,25.07919-96,23-32.75647-1.98361-49.42737-19.4595-78-13a145.05728,145.05728,0,0,0-27,9c-11.29578,5.33957-12.86011,8.30579-25,14-16.7627,7.86252-19.27881,4.78622-26,10-16.14734,12.52585-12.78345,38.937-17,39-5.34753.07993-4.95471-42.48605-21-47-6.06787-1.707-12.70007,2.53049-15,4-12.55579,8.02234-11.49878,22.22437-17,23-7.72742,1.08951-8.58472-27.10632-27-39-19.62109-12.67245-35.41,8.51083-71-1-21.48438-5.74133-31.30835-17.62357-41-12-6.01294,3.489-5.28955,9.837-11,27-1.33337,4.00748-14.4425,42.80466-24,42-6.86365-.57785-3.45361-20.8688-16-39-19.0155-27.47986-67.55908-39.702-94-22-15.09888,10.10858-24.22729,30.80325-26,35-6.17578,14.62106-7.11566,27.972-11,28-2.60834.01877-4.662-5.98361-8-16-5.89221-17.68091-6.49249-27.86908-9-28-3.88129-.20264-6.20221,24.01169-11,24-3.45221-.00842-6.07184-12.55457-7-17-4.5127-21.61279.58807-28.18134-4-40-3.491-8.99252-12.1507-19.89023-23-22-15.53662-3.0213-21.4234,14.72879-45,26-16.96863,8.11215-21.41095,2.49911-87,6-38.07538,2.03232-44.67145,4.35587-51,9-20.5257,15.06256-22.38062,42.89981-31,42-5.9743-.62369-4.43781-13.92993-17-27-2.10254-2.18756-14.89246-15.077-32-15-4.45648.02008-12.63763,3.34671-29,10-8.78564,3.57242-13.40765,5.82062-22,10-14.42786,7.01782-15.98962,8.68762-17,10-8.0614,10.47113-1.59564,24.9162-5,26-3.25879,1.03748-11.47314-11.46979-15-25a62.38943,62.38943,0,0,1-2-15,121.45568,121.45568,0,0,1-34,8c-15.18286,1.26425-24.14667-1.04041-29,5-3.64441,4.5358-.59363,8.32892-3,21-2.24695,11.83139-7.55188,22.45255-10,22-2.18347-.40363.24847-9.18338-5-20a44.2626,44.2626,0,0,0-10-13c-7.789-7.31345-11.14359-5.903-15-11-6.63336-8.76724-.22195-17.58426-5-22-5.47644-5.06116-18.30539,2.44946-44,13-24.01852,9.8623-36.20724,14.77762-45,14-20.543-1.81677-27.31189-19.22964-45-31-16.6384-11.07184-45.12418-18.60553-97-2a150.24854,150.24854,0,0,0-7,14c-7.3905,16.92712-8.053,26.97809-11,27-3.46136.02573-6.31282-13.81223-8-22a157.41845,157.41845,0,0,1-3-23,110.8891,110.8891,0,0,0-12,31c-2.72253,12.35223-2.49745,21.68347-5,22-2.83127.35809-5.25366-11.31555-11-23-7.39775-15.04239-18.28207-25.99039-29-34a129.65274,129.65274,0,0,0-27,14c-13.805,9.37982-24.54707,16.67844-30,30-3.36125,8.21158-1.98712,12.05267-7,18-6.58465,7.81207-12.95529,5.92993-19,12-11.28683,11.33417-3.00706,31.88647-7,33-4.35467,1.21442-19.6907-21.6998-23-50-1.30134-11.12869.18916-14.8035-3-20C48.28885,92.69412,32.63589,87.84381,0,92V0H1920Z"/>
    </g>
  </g>
</svg>
