<svg xmlns="http://www.w3.org/2000/svg" viewBox="0 0 1920 296.03811">
  <defs>
    <style>
      .cls-1 {
        fill: #100019;
      }
    </style>
  </defs>
  <g id="Layer_2" data-name="Layer 2">
    <g id="Layer_1-2" data-name="Layer 1">
      <path class="cls-1" d="M1920,94.3666c-85.67249-53.24762-126.00586-50.25946-147-37.32849-16.44324,10.12787-34.3844,34.58478-42,30-3.84082-2.31232-1.182-9.67975-5-27-.33118-1.50244-5.44226-24.2616-10-24-5.52344.317-7.89648,32.52362-8,34a164.30153,164.30153,0,0,0,0,23,44.25792,44.25792,0,0,1-11-7c-6.65686-5.79486-7.5592-10.19336-10-10-4.88611.38708-8.17322,18.5603-9,33-.583,10.18274-.82715,15.33569-.92871,19.91687-.17969,8.10382.287,7.76837-.07129,9.08313-1.13159,4.15216-5.63159,10.56287-43,18-29.38574,5.84839-33.81384,3.31915-35.77783,1.901-4.38806-3.1684-6.46143-7.99988-10.22217-32.901-4.84766-32.09808-4.29956-43.25256-8-44-4.136-.83539-11.14685,13.09839-25,41-10.0752,20.2926-11.65247,25.34344-18,28-12.10242,5.065-31.21191-2.89874-39.02979-16.04962-8.17382-13.74958,1.17432-24.458-7.97021-35.95038-7.33521-9.21863-15.25171-4.71832-26-14-15.86169-13.69727-11.16626-34.33112-19-36-11.15845-2.37714-19.00989,39.84418-44,44-13.59326,2.26056-28.33643-7.39368-36-16-11.45972-12.86945-8.81189-25.33075-15-27-10.85876-2.92914-18.39026,35.60968-46.73035,58.64093-38.48571,31.27631-70.83154-2.22119-128.26965,27.35907-35.22815,18.14227-46.17969,42.52655-74,42-29.90735-.566-48.99988-17.99994-49-18-13.70862-12.5177-14.65955-25.12842-21-25-15.38422.31152-17.329,74.70532-37,77-13.02411,1.51929-28.54333-29.18317-33-38-11.69543-23.13764-7.56537-31.75916-19-42-13.08209-11.71631-23.12946-4.58856-39-17-17.004-13.29791-16.11206-29.80255-24-30-9.70691-.243-13.39264,24.693-32,60-12.24493,23.23443-22.15149,42.032-42,57-4.51392,3.404-38.28387,28.12421-76,20-19.81445-4.26813-18.91827-12.90552-45-27-50.53528-27.30908-103.029-21.4317-106.35864-40.57568-.998-5.73841,2.77331-11.79883-1.64136-18.42432-3.31122-4.96942-7.00226-3.93939-14-10-8.871-7.683-7.43762-13.23413-13-15-8.39777-2.666-14.10559,9.2121-23,7-4.32788-1.07636-4.77509-4.336-15-18-7.64914-10.22186-11.54425-15.34619-15-16-8.82169-1.66907-13.33356,12.10492-27.3233,21.92151-19.159,13.44391-50.40854,15.476-65.91758,2.2774C388.37241,94.99349,390.20276,71.918,384,72.03811c-5.21448.101-4.32678,16.36676-16,23-10.44693,5.9364-18.87045-2.70886-29,3-9.99152,5.631-6.22,16.53558-14.81128,26.712-12.96579,15.35815-44.81656,18.0744-63.29678,4.8095-6.23807-4.4776-12.7553-12.07006-19.89194-42.52154-12.36406-52.75641-5.87-85.72473-12-87-6.77161-1.40875-26.13754,36.44189-35,80-6.82138,33.52637-3.72481,52.27161-17.90427,62.38763-12.7798,9.11743-30.43586,4.69208-45.09573.61237-30.88648-8.5954-75.52219-23.18366-131-48.67151V296.03811H1920Z"/>
    </g>
  </g>
</svg>
