<svg xmlns="http://www.w3.org/2000/svg" viewBox="0 0 1920 340.40652">
  <defs>
    <style>
      .cls-1 {
        fill: #150027;
      }
    </style>
  </defs>
  <g id="Layer_2" data-name="Layer 2">
    <g id="Layer_1-2" data-name="Layer 1">
      <path class="cls-1" d="M1920,340.40652H0v-221c4.70616,2.88879,34.97166,20.97161,55,9,10.43529-6.23755,18.76985-21.03937,21-25,7.229-12.83844,8.83363-23.04346,13-23,2.86871.03,5.14922,4.89971,8,13,10.14606,28.82922,6.08325,37.68011,13,47,9.14143,12.31756,28.00238,12.70928,42,13,24.667.51232,30.16351-11.15058,53-12,35.17018-1.30817,42.70259,11.52191,82,13,23.80936.8955,40.64981-3.07685,70-10,30.628-7.22461,46.1232-11.10016,55-24,10.023-14.5655,8.30328-33.30256,15-34,3.59494-.37439,6.87756,4.735,10,10,18.28183,30.82653,17.2753,43.72351,26,52,12.28683,11.65557,27.54971-1.33722,67-2,45.12183-.75806,85.185,15.23052,102,23,19.05054,8.80236,28.217,16.27587,51,22l.001.00024c9.24463,2.31048,20.73053-14.147,21.999-16.00024,11.39752-16.65113,5.50226-26.0976,17-39,2.61285-2.93207,9.52216-10.68549,15-9,7.03217,2.16369,3.51056,17.36138,12,36,2.5816,5.6679,11.80927,25.92736,26,28,16.4671,2.40509,22.313-22.20679,46-28,7.795-1.90644,16.40234-1.501,54,16,55.27368,25.72882,67.02869,38.98358,79,33,19.54425-9.7688,12.24109-57.10755,22-58,4.422-.40442,6.57538,9.25555,18,25,10.62048,14.63623,20.28229,27.95129,32,30,20.13635,3.52062,44.34082-21.7212,56-42,14.00159-24.35291,11.67676-44.23908,27-50,10.26086-3.85767,20.91992,1.4439,22,2,14.842,7.64184,11.09448,23.02221,23,33,5.4762,4.58947,12.313,6.40069,62,0,34.40991-4.43268,51.76257-6.75611,59-12,22.74146-16.47761,24.09119-44.66944,36-44,6.39966.35974,8.23486,8.62634,15,16,17.45337,19.02325,49.86523,12.49224,84,10a481.97579,481.97579,0,0,1,97,3,39.01041,39.01041,0,0,1,3-16,39.87478,39.87478,0,0,1,15.39343-18.03547c-.413-.79193-7.70178-15.37.60657-28.96453,6.24182-10.21314,16.88611-12.67084,18.84741-13.08692A51.28039,51.28039,0,0,1,1558,32.40652a50.1752,50.1752,0,0,1,9-6,38.75386,38.75386,0,0,1,9-17c.92676-1.00489,10.68787-11.58887,16-9,3.96106,1.93041,4.85535,10.89611,1.68445,21.62591A27.19223,27.19223,0,0,1,1607,29.40652c9.86829,10.14215,7.30225,24.459,7,26a22.06348,22.06348,0,0,1,20,16c2.661,10.07781-2.71155,21.15991-12.92041,25.62677,1.04687.29168,11.32019,3.33837,14.92041,13.37323,3.10181,8.64562-.056,18.837-8,25a459.904,459.904,0,0,0,181,13,454.90644,454.90644,0,0,0,111-29Z"/>
    </g>
  </g>
</svg>
